<svg width="24" height="24" viewBox="0 0 24 24" fill="none" xmlns="http://www.w3.org/2000/svg">
<path d="M18.15 9.14447L17.85 18.2247C17.8245 19.0024 17.4969 19.7395 16.9368 20.2796C16.3766 20.8197 15.6281 21.1202 14.85 21.1175H9.15002C8.37244 21.1203 7.62434 20.8201 7.0643 20.2807C6.50427 19.7412 6.17634 19.0049 6.15002 18.2277L5.85002 9.14447C5.84346 8.94556 5.91618 8.75218 6.05219 8.60689C6.1882 8.4616 6.37636 8.37628 6.57527 8.36972C6.77418 8.36316 6.96756 8.43588 7.11285 8.57189C7.25814 8.7079 7.34346 8.89606 7.35002 9.09497L7.65002 18.1775C7.66496 18.5652 7.82957 18.9321 8.10927 19.201C8.38897 19.4699 8.762 19.62 9.15002 19.6197H14.85C15.2385 19.62 15.612 19.4695 15.8918 19.1999C16.1716 18.9303 16.3358 18.5627 16.35 18.1745L16.65 9.09497C16.6566 8.89606 16.7419 8.7079 16.8872 8.57189C17.0325 8.43588 17.2259 8.36316 17.4248 8.36972C17.6237 8.37628 17.8118 8.4616 17.9479 8.60689C18.0839 8.75218 18.1566 8.94556 18.15 9.14447ZM19.1423 6.12272C19.1423 6.32163 19.0633 6.5124 18.9226 6.65305C18.7819 6.7937 18.5912 6.87272 18.3923 6.87272H5.60852C5.40961 6.87272 5.21884 6.7937 5.07819 6.65305C4.93754 6.5124 4.85852 6.32163 4.85852 6.12272C4.85852 5.92381 4.93754 5.73304 5.07819 5.59239C5.21884 5.45174 5.40961 5.37272 5.60852 5.37272H7.93352C8.17116 5.37336 8.40053 5.28556 8.57701 5.12642C8.75348 4.96727 8.86443 4.74816 8.88827 4.51172C8.94362 3.95708 9.20347 3.44292 9.61719 3.0694C10.0309 2.69588 10.5689 2.48977 11.1263 2.49122H12.8738C13.4312 2.48977 13.9691 2.69588 14.3828 3.0694C14.7966 3.44292 15.0564 3.95708 15.1118 4.51172C15.1356 4.74816 15.2466 4.96727 15.423 5.12642C15.5995 5.28556 15.8289 5.37336 16.0665 5.37272H18.3915C18.5904 5.37272 18.7812 5.45174 18.9219 5.59239C19.0625 5.73304 19.1415 5.92381 19.1415 6.12272H19.1423ZM10.1903 5.37272H13.8113C13.7127 5.14753 13.6483 4.90891 13.62 4.66472C13.6014 4.47985 13.5149 4.30846 13.3772 4.18375C13.2394 4.05905 13.0603 3.9899 12.8745 3.98972H11.127C10.9412 3.9899 10.7621 4.05905 10.6244 4.18375C10.4866 4.30846 10.4001 4.47985 10.3815 4.66472C10.353 4.90895 10.2883 5.14757 10.1895 5.37272H10.1903ZM10.9455 16.736V10.3497C10.9455 10.1508 10.8665 9.96004 10.7259 9.81939C10.5852 9.67874 10.3944 9.59972 10.1955 9.59972C9.99661 9.59972 9.80584 9.67874 9.66519 9.81939C9.52454 9.96004 9.44552 10.1508 9.44552 10.3497V16.739C9.44552 16.9379 9.52454 17.1286 9.66519 17.2693C9.80584 17.41 9.99661 17.489 10.1955 17.489C10.3944 17.489 10.5852 17.41 10.7259 17.2693C10.8665 17.1286 10.9455 16.9379 10.9455 16.739V16.736ZM14.556 16.736V10.3497C14.556 10.1508 14.477 9.96004 14.3364 9.81939C14.1957 9.67874 14.0049 9.59972 13.806 9.59972C13.6071 9.59972 13.4163 9.67874 13.2757 9.81939C13.135 9.96004 13.056 10.1508 13.056 10.3497V16.739C13.056 16.9379 13.135 17.1286 13.2757 17.2693C13.4163 17.41 13.6071 17.489 13.806 17.489C14.0049 17.489 14.1957 17.41 14.3364 17.2693C14.477 17.1286 14.556 16.9379 14.556 16.739V16.736Z" fill="white"/>
</svg>
