<svg width="24" height="24" viewBox="0 0 24 24" fill="none" xmlns="http://www.w3.org/2000/svg">
<path d="M20.4853 3.51473C21.6569 4.6863 21.6569 6.58579 20.4853 7.75737L9.4056 18.8371C8.925 19.3177 8.32283 19.6586 7.66346 19.8234L4.22696 20.6826C3.67767 20.8199 3.18013 20.3223 3.31745 19.7731L4.17657 16.3366C4.34142 15.6772 4.68236 15.075 5.16296 14.5944L16.2426 3.51473C17.4142 2.34315 19.3137 2.34315 20.4853 3.51473ZM15.1819 6.69655L6.22362 15.6551C5.93526 15.9434 5.73069 16.3047 5.63179 16.7004L5.07583 18.9242L7.29965 18.3682C7.69528 18.2693 8.05658 18.0648 8.34494 17.7764L17.3029 8.81755L15.1819 6.69655ZM17.3033 4.57539L16.2424 5.63605L18.3634 7.75705L19.4246 6.69671C20.0104 6.11092 20.0104 5.16117 19.4246 4.57539C18.8388 3.9896 17.8891 3.9896 17.3033 4.57539Z" fill="#A64EED"/>
</svg>
