<svg width="26" height="24" viewBox="0 0 26 24" fill="none" xmlns="http://www.w3.org/2000/svg">
<path d="M11.004 6.30001C11.004 7.01609 10.7195 7.70285 10.2132 8.20919C9.70684 8.71554 9.02009 9.00001 8.304 9.00001C7.58792 9.00001 6.90116 8.71554 6.39482 8.20919C5.88847 7.70285 5.604 7.01609 5.604 6.30001C5.604 5.58392 5.88847 4.89717 6.39482 4.39082C6.90116 3.88447 7.58792 3.60001 8.304 3.60001C9.02009 3.60001 9.70684 3.88447 10.2132 4.39082C10.7195 4.89717 11.004 5.58392 11.004 6.30001V6.30001ZM5.304 9.60001C4.98574 9.60001 4.68052 9.72643 4.45548 9.95148C4.23043 10.1765 4.104 10.4817 4.104 10.8V16.2C4.104 17.3139 4.5465 18.3822 5.33416 19.1699C6.12181 19.9575 7.19009 20.4 8.304 20.4C9.41791 20.4 10.4862 19.9575 11.2739 19.1699C12.0615 18.3822 12.504 17.3139 12.504 16.2V10.8C12.504 10.4817 12.3776 10.1765 12.1525 9.95148C11.9275 9.72643 11.6223 9.60001 11.304 9.60001H5.304ZM12.204 6.30001C12.204 7.08001 11.976 7.80601 11.58 8.41561C12.0756 8.47321 12.5244 8.67961 12.8808 8.99161C13.3142 9.02743 13.7498 8.95804 14.1506 8.78934C14.5514 8.62064 14.9056 8.35763 15.1829 8.02268C15.4602 7.68773 15.6525 7.29075 15.7435 6.86551C15.8344 6.44026 15.8213 5.99934 15.7053 5.58025C15.5892 5.16116 15.3737 4.7763 15.0769 4.45841C14.7802 4.14052 14.4111 3.89901 14.001 3.75441C13.5909 3.60982 13.1519 3.56642 12.7214 3.62791C12.2909 3.68941 11.8816 3.85397 11.5284 4.10761C11.9544 4.73161 12.204 5.48761 12.204 6.30001ZM11.904 20.226C12.4711 19.7199 12.9247 19.0995 13.2349 18.4056C13.5451 17.7118 13.705 16.9601 13.704 16.2V10.8C13.7046 10.3786 13.5936 9.96463 13.3824 9.60001H16.104C16.4223 9.60001 16.7275 9.72643 16.9525 9.95148C17.1776 10.1765 17.304 10.4817 17.304 10.8V16.2C17.3042 16.8542 17.1515 17.4995 16.8582 18.0843C16.5648 18.669 16.1389 19.1772 15.6144 19.5683C15.0899 19.9593 14.4813 20.2224 13.8371 20.3366C13.1929 20.4508 12.531 20.4129 11.904 20.226ZM17.004 6.30001C17.004 7.08001 16.776 7.80601 16.38 8.41561C16.8756 8.47321 17.3244 8.67961 17.6808 8.99161C18.1142 9.02743 18.5498 8.95804 18.9506 8.78934C19.3514 8.62064 19.7056 8.35763 19.9829 8.02268C20.2602 7.68773 20.4525 7.29075 20.5435 6.86551C20.6344 6.44026 20.6213 5.99934 20.5053 5.58025C20.3892 5.16116 20.1737 4.7763 19.8769 4.45841C19.5802 4.14052 19.2111 3.89901 18.801 3.75441C18.3909 3.60982 17.9519 3.56642 17.5214 3.62791C17.0909 3.68941 16.6816 3.85397 16.3284 4.10761C16.7544 4.73161 17.004 5.48761 17.004 6.30001ZM16.704 20.226C17.2711 19.7199 17.7247 19.0995 18.0349 18.4056C18.3451 17.7118 18.505 16.9601 18.504 16.2V10.8C18.5046 10.3786 18.3936 9.96463 18.1824 9.60001H20.904C21.2223 9.60001 21.5275 9.72643 21.7525 9.95148C21.9776 10.1765 22.104 10.4817 22.104 10.8V16.2C22.1042 16.8542 21.9515 17.4995 21.6582 18.0843C21.3648 18.669 20.9389 19.1772 20.4144 19.5683C19.8899 19.9593 19.2813 20.2224 18.6371 20.3366C17.9929 20.4508 17.331 20.4129 16.704 20.226Z" fill="white"/>
</svg>
