<svg version="1.0" xmlns="http://www.w3.org/2000/svg"
    width="24" height="24" viewBox="0 0 512.000000 512.000000"
    preserveAspectRatio="xMidYMid meet">

    <g transform="translate(0.000000,512.000000) scale(0.100000,-0.100000)"
        fill="url(#pattern0)" stroke="none">
        <path d="M1177 4383 c-336 -533 -1057 -1693 -1057 -1699 1 -9 710 -454 723
-454 3 0 18 20 33 45 28 49 39 55 49 25 12 -38 103 -167 163 -231 57 -62 60
-67 55 -105 -14 -110 69 -230 185 -264 32 -10 42 -18 42 -35 0 -40 31 -112 65
-153 37 -42 89 -72 145 -81 30 -5 35 -11 42 -44 23 -111 106 -190 216 -206 42
-6 45 -8 58 -49 34 -115 123 -181 248 -182 l60 0 101 -100 c126 -123 183 -153
290 -153 144 1 267 92 304 225 l12 44 70 0 c133 2 261 94 296 214 l17 55 72 1
c57 1 84 6 126 27 90 44 163 133 182 223 6 29 11 32 56 37 230 27 360 286 242
477 l-29 46 44 53 c54 66 117 172 145 246 11 30 24 55 28 55 4 0 31 -38 59
-85 29 -47 55 -85 59 -85 12 0 721 445 722 454 0 9 -1056 1703 -1075 1725 -11
11 -75 -25 -373 -210 -199 -123 -361 -227 -361 -231 -1 -4 26 -50 59 -102 33
-53 60 -97 60 -100 0 -2 -35 -2 -78 1 -228 16 -504 -74 -687 -223 l-55 -44
-69 53 c-142 110 -317 180 -501 199 -58 7 -106 13 -108 14 -2 1 24 46 57 99
34 53 61 99 61 103 -1 7 -712 452 -723 452 -4 0 -17 -17 -30 -37z m344 -265
c153 -95 278 -176 279 -179 0 -7 -967 -1558 -980 -1573 -13 -13 -571 335 -567
354 3 13 945 1527 969 1558 6 6 13 12 16 12 3 0 131 -78 283 -172z m2861 -614
c268 -428 488 -783 487 -789 0 -16 -559 -359 -568 -349 -15 16 -981 1566 -981
1572 1 11 554 352 565 349 6 -2 229 -354 497 -783z m-2352 136 c102 -25 243
-91 329 -156 l62 -47 -213 -216 c-118 -119 -224 -232 -235 -251 -83 -138 -61
-305 53 -409 71 -65 131 -85 233 -79 123 8 153 28 404 277 l218 215 500 -499
c328 -328 506 -514 519 -541 38 -77 21 -185 -38 -247 -57 -60 -132 -81 -233
-64 l-45 8 0 -68 c1 -180 -161 -283 -328 -209 l-54 24 -4 -88 c-3 -79 -6 -93
-33 -132 -39 -55 -119 -98 -186 -98 -47 0 -58 3 -131 34 l-36 15 5 -57 c7 -76
-10 -135 -55 -184 -46 -52 -103 -78 -167 -78 -73 0 -123 28 -220 121 l-85 82
113 116 c124 127 141 157 140 251 -1 117 -71 205 -195 244 -13 4 -18 16 -18
42 0 92 -62 186 -145 220 -42 18 -45 21 -45 57 0 102 -56 199 -137 238 l-48
24 0 75 c-1 87 -15 121 -76 180 -72 70 -192 89 -280 45 -19 -9 -119 -101 -222
-203 l-188 -187 -36 40 c-65 74 -111 139 -148 213 l-37 72 19 33 c40 66 727
1163 746 1191 l20 29 96 -7 c53 -3 134 -15 181 -26z m1340 16 c8 -3 175 -261
369 -573 l355 -567 -29 -83 c-40 -117 -158 -313 -190 -313 -5 0 -231 221 -502
492 l-491 491 -251 -244 c-138 -134 -266 -251 -286 -261 -112 -58 -257 -13
-306 96 -25 56 -25 148 1 201 23 47 538 563 611 613 99 66 222 119 344 147 61
14 343 15 375 1z m-1618 -1246 c31 0 97 -69 109 -112 13 -50 5 -90 -32 -150
l-29 -48 54 0 c66 0 102 -12 140 -48 52 -50 63 -129 27 -200 -12 -23 -21 -44
-21 -47 0 -3 24 -5 53 -5 137 -1 215 -102 173 -226 -9 -26 -16 -51 -16 -55 0
-4 28 -7 63 -6 124 3 195 -79 172 -200 -5 -30 -27 -58 -103 -136 -113 -116
-156 -141 -220 -134 -51 6 -87 29 -120 78 -21 30 -23 43 -20 105 l5 70 -52
-14 c-94 -26 -172 6 -207 85 -20 45 -20 76 -2 150 6 21 4 22 -27 13 -81 -24
-161 -3 -200 52 -38 52 -41 103 -14 187 7 24 7 24 -48 18 -85 -10 -149 19
-183 85 -18 35 -18 112 0 146 8 15 93 105 188 200 175 174 223 209 273 197 11
-3 28 -5 37 -5z" />
    </g>
</svg>