<svg width="20" height="20" viewBox="0 0 24 24" fill="none" xmlns="http://www.w3.org/2000/svg">
    <path d="M16.3554 5.32593C16.3618 5.28312 16.3511 5.23602 16.3232 5.19321C16.3211 5.19107 16.319 5.18679 16.3168 5.18465C16.3147 5.18251 16.3125 5.17823 16.3104 5.17608C16.3083 5.17394 16.3061 5.16966 16.304 5.16752L16.2976 5.1611C16.2976 5.1611 16.2976 5.15896 16.2954 5.15896L15.6682 4.53176C15.1844 4.04583 14.6985 3.56205 14.2147 3.07827C13.6689 2.53241 13.1251 1.98869 12.5814 1.44283L11.4126 0.274045C11.3441 0.205545 11.2778 0.132763 11.205 0.066404C11.1215 -0.0106586 11.0295 0.00218514 10.9289 0.00218514H1.64924C1.28961 0.00218514 0.927843 -0.0299243 0.600327 0.152029C0.227858 0.361811 0.00523265 0.762108 0.00095139 1.18595V18.7134C0.00095139 18.7498 -0.00118924 18.7841 0.00095139 18.8204C0.00737328 19.4091 0.446202 19.91 1.03059 19.985C1.22753 20.0106 1.43303 19.9957 1.63211 19.9957H14.7777C15.026 19.9957 15.3 20.0192 15.5376 19.94C16.0236 19.7795 16.3511 19.3278 16.3575 18.8162V5.32593H16.3554ZM13.1273 16.2496H3.22902C2.98927 16.2496 2.8116 16.0526 2.80089 15.8214C2.79019 15.5902 3.00425 15.3933 3.22902 15.3933H3.8969V11.3946C3.8969 11.2769 3.88191 11.1335 3.93757 11.0243C4.07029 10.761 4.3978 10.8124 4.64183 10.8124H5.54732C5.63937 10.8124 5.73355 10.8145 5.8256 10.8166C5.8363 10.8166 5.84915 10.8166 5.85985 10.8188C5.86627 10.8188 5.87269 10.8209 5.87912 10.8209C5.88554 10.8209 5.89196 10.8231 5.89838 10.8231C5.90266 10.8231 5.90694 10.8252 5.91123 10.8252C5.92193 10.8273 5.93263 10.8295 5.94334 10.8338H5.94548C5.96046 10.838 5.97544 10.8445 5.99043 10.8509C6.09746 10.898 6.17238 10.99 6.20449 11.112C6.21091 11.1313 6.22162 11.1549 6.22376 11.1784C6.22376 11.1827 6.2259 11.1848 6.2259 11.187V11.1891C6.2259 11.1955 6.2259 11.202 6.22804 11.2105C6.22804 11.2127 6.2259 11.2148 6.2259 11.2169V15.3912H7.10356V15.3676C7.10356 15.3312 7.10784 15.2927 7.10784 15.2563C7.10784 15.2178 7.10998 15.1792 7.10998 15.1407C7.11212 15.0251 7.1164 14.9095 7.11854 14.7961C7.11854 14.764 7.12068 14.7297 7.12068 14.6976C7.12068 14.6698 7.12068 14.6441 7.12282 14.6163V8.83442C7.12282 8.7809 7.11854 8.72953 7.11854 8.67601C7.11854 8.65675 7.12068 8.63534 7.12282 8.61607C7.12496 8.60323 7.1271 8.59253 7.12924 8.58182L7.14209 8.53687C7.14423 8.53259 7.14637 8.52617 7.14851 8.52189L7.15493 8.50904L7.1742 8.47051C7.17634 8.46837 7.17634 8.46409 7.17848 8.46195C7.18276 8.45553 7.18704 8.44697 7.19346 8.44054C7.25126 8.3592 7.34117 8.30354 7.45248 8.28856C7.46318 8.28642 7.47603 8.28642 7.48887 8.28428C7.5274 8.28214 7.56807 8.28 7.6066 8.28H7.63443C7.85064 8.27571 8.06684 8.28214 8.28304 8.28642H8.97018C9.00229 8.28642 9.03226 8.28214 9.06437 8.28428C9.10504 8.28642 9.14358 8.29284 9.17783 8.30568C9.17997 8.30568 9.18425 8.30782 9.18639 8.30782C9.21422 8.31639 9.23776 8.32923 9.26131 8.34421C9.26987 8.35064 9.27843 8.35492 9.28486 8.36134C9.29342 8.36776 9.29984 8.37418 9.3084 8.38061L9.31911 8.39131L9.32981 8.40201C9.34265 8.417 9.3555 8.43198 9.3662 8.44911C9.36834 8.45339 9.37262 8.45767 9.37476 8.46195C9.38333 8.47479 9.38975 8.48764 9.39617 8.50262C9.39831 8.5069 9.40045 8.51118 9.40259 8.51761C9.41115 8.53687 9.41757 8.55614 9.42186 8.57754C9.424 8.58397 9.42614 8.59253 9.42828 8.59895C9.43042 8.60323 9.43042 8.60965 9.43256 8.61393C9.4347 8.62678 9.43684 8.63962 9.43684 8.65461V15.3933H10.3445C10.3445 15.1193 10.3573 14.8453 10.3573 14.5713V9.8084C10.3573 9.75489 10.353 9.70351 10.368 9.65C10.4258 9.44022 10.612 9.37814 10.8047 9.37814H12.2453C12.3738 9.37814 12.4851 9.41667 12.5622 9.49373C12.5729 9.50444 12.5836 9.51728 12.5943 9.53012C12.6093 9.54939 12.6221 9.57079 12.6328 9.59434C12.6435 9.61789 12.6521 9.64358 12.6606 9.66926C12.667 9.68639 12.6692 9.70351 12.6713 9.72278V15.3933H13.1251C13.3649 15.3933 13.5426 15.5902 13.5533 15.8214C13.564 16.0526 13.3499 16.2496 13.1273 16.2496V16.2496ZM12.0634 5.09688H11.7808C11.7637 5.09688 11.7444 5.09474 11.7273 5.09474C11.7016 5.08832 11.6759 5.08404 11.6503 5.07762C11.6288 5.07119 11.5347 5.05193 11.5946 5.06049C11.601 5.06049 11.6074 5.06263 11.6117 5.06263C11.6032 5.06049 11.5903 5.05621 11.5818 5.05193C11.5603 5.04122 11.5411 5.03052 11.5197 5.01768L11.4876 4.99627C11.4833 4.98985 11.4298 4.94704 11.4191 4.93847C11.4148 4.93419 11.3955 4.91707 11.3784 4.89994C11.3763 4.89566 11.3741 4.89138 11.3698 4.8871L11.3634 4.87426C11.3548 4.86355 11.3484 4.85071 11.3399 4.84001C11.3356 4.83358 11.3185 4.80576 11.3056 4.78221C11.3035 4.77793 11.3013 4.77151 11.2992 4.76294C11.297 4.75224 11.2928 4.74368 11.2885 4.73297C11.2863 4.72869 11.2863 4.72655 11.2842 4.72227C11.2756 4.69658 11.2842 4.6709 11.2628 4.64521V4.61738C11.2607 4.60668 11.2585 4.60026 11.2585 4.59597C11.2585 4.59811 11.2607 4.60668 11.2628 4.6131C11.2628 4.59811 11.2607 4.58527 11.2607 4.57671C11.2607 4.54032 11.2607 4.50607 11.2628 4.46968V2.33547C11.2628 2.04649 11.2671 1.7575 11.2692 1.46852L12.2625 2.46177L14.8976 5.09688H12.0634Z" fill="white" />
</svg>