<svg width="24" height="24" viewBox="0 0 24 24" fill="none" xmlns="http://www.w3.org/2000/svg">
<path d="M11.9332 11.5333C13.7332 11.5333 15.1332 10.0667 15.1332 8.26667C15.1332 6.46667 13.6665 5.06667 11.8665 5.06667C10.0665 5.06667 8.6665 6.53333 8.6665 8.26667C8.6665 10.0667 10.1332 11.5333 11.9332 11.5333ZM11.8665 6.4C11.9332 6.4 11.9332 6.4 11.8665 6.4C12.9332 6.4 13.7998 7.26667 13.7998 8.33333C13.7998 9.4 12.9332 10.2 11.8665 10.2C10.7998 10.2 9.99984 9.33333 9.99984 8.33333C9.99984 7.26667 10.8665 6.4 11.8665 6.4V6.4Z" fill="white"/>
<path d="M21.8 11.1333C20.5333 10 18.8667 9.4 17.1333 9.46667H16.6C16.4667 10 16.2667 10.4667 16 10.8667C16.4 10.8 16.7333 10.8 17.1333 10.8C18.4 10.7333 19.6667 11.1333 20.6667 11.8667V16.6667H22V11.3333L21.8 11.1333Z" fill="white"/>
<path d="M15.5998 5.2C15.9332 4.4 16.8665 4 17.7332 4.33333C18.5332 4.66667 18.9332 5.6 18.5998 6.46667C18.3332 7.06667 17.7332 7.46667 17.1332 7.46667C16.9998 7.46667 16.7998 7.46667 16.6665 7.4C16.7332 7.73333 16.7332 8.06667 16.7332 8.33333V8.73333C16.8665 8.73333 16.9998 8.8 17.1332 8.8C18.7998 8.8 20.1332 7.46667 20.1332 5.86667C20.1332 4.2 18.7998 2.86667 17.1998 2.86667C16.1332 2.86667 15.1998 3.4 14.6665 4.33333C14.9998 4.53333 15.3332 4.8 15.5998 5.2V5.2Z" fill="white"/>
<path d="M8 10.9333C7.73333 10.5333 7.53333 10.0667 7.4 9.53333H6.86667C5.13333 9.46667 3.46667 10.0667 2.2 11.1333L2 11.3333V16.6667H3.33333V11.8667C4.4 11.1333 5.6 10.7333 6.86667 10.8C7.26667 10.8 7.66667 10.8667 8 10.9333Z" fill="white"/>
<path d="M6.86668 8.73333C7.00001 8.73333 7.13334 8.73333 7.26668 8.66667V8.26667C7.26668 7.93333 7.26668 7.6 7.33334 7.33333C7.20001 7.4 7.00001 7.4 6.86668 7.4C6.00001 7.4 5.26668 6.66667 5.26668 5.8C5.26668 4.93333 6.00001 4.2 6.86668 4.2C7.53334 4.2 8.13334 4.6 8.40001 5.2C8.66668 4.86667 9.06668 4.53333 9.40001 4.26667C8.53334 2.86667 6.73334 2.4 5.33334 3.26667C3.93334 4.13333 3.46668 5.93333 4.33334 7.33333C4.86668 8.2 5.80001 8.73333 6.86668 8.73333V8.73333Z" fill="white"/>
<path d="M17.3998 15.1333L17.2665 14.9333C15.9332 13.4667 14.0665 12.6 12.0665 12.6667C10.0665 12.6 8.13317 13.4667 6.79984 14.9333L6.6665 15.1333V20.2C6.6665 20.8 7.13317 21.3333 7.79984 21.3333H16.3332C16.9332 21.3333 17.4665 20.8 17.4665 20.2V15.1333H17.3998ZM16.0665 20H7.99984V15.6C9.0665 14.5333 10.5332 14 12.0665 14C13.5332 13.9333 14.9998 14.5333 16.0665 15.6V20Z" fill="white"/>
</svg>
