<svg width="575" height="400" viewBox="0 0 575 586" fill="none" xmlns="http://www.w3.org/2000/svg">
<g clip-path="url(#clip0_32_6)">
<path d="M465.142 49.4772C572.837 83.9792 612.2 253.174 533.838 344.233C455.476 435.293 354.693 424.897 295.746 464.035C222.33 512.782 149.081 524.132 91.0616 426.246C10.8735 290.907 288.666 -7.0802 465.142 49.4772Z" fill="#E5F6FF"/>
<path d="M44.4491 239.435C53.8334 238.48 63.4706 239.716 72.3211 243.031C73.754 243.565 75.1869 244.183 76.2827 245.251C78.39 247.33 78.6429 250.673 77.9685 253.539C76.3108 260.563 69.68 265.873 62.5153 266.716C55.3506 267.559 48.0174 264.187 43.3533 258.709C40.7965 255.702 38.886 251.853 39.2512 247.892C39.5884 243.958 42.7352 240.109 46.6968 239.969C47.5397 240.896 46.9216 242.694 45.6573 242.891L44.5053 239.435H44.4491Z" fill="#E5F6FF"/>
<path d="M468.598 45.0942C477.982 44.1389 487.619 45.3752 496.47 48.6905C497.902 49.2243 499.335 49.8425 500.431 50.9101C502.538 52.9892 502.791 56.3326 502.117 59.1984C500.459 66.2225 493.828 71.5326 486.664 72.3755C479.499 73.1903 472.166 69.8469 467.502 64.3681C464.945 61.3618 463.034 57.5127 463.4 53.5511C463.737 49.6177 466.884 45.7685 470.845 45.628C471.688 46.5552 471.07 48.3534 469.806 48.55L468.654 45.0942H468.598Z" fill="#E5F6FF"/>
<path d="M66.0553 258.962C68.865 256.292 73.1076 255.253 76.8445 256.292C77.7436 260.057 77.2659 264.356 74.6529 267.194C72.0399 270.031 66.9825 270.621 64.3695 267.784C61.7565 264.946 63.7514 259.158 67.6007 259.243L66.0834 258.962H66.0553Z" fill="#E5F6FF"/>
<path d="M100.53 262.614C100.895 260.844 102.104 259.299 103.733 258.512C104.126 259.214 104.548 259.945 104.66 260.732C104.773 261.518 104.464 262.445 103.761 262.811C102.778 263.345 101.626 262.698 100.727 262.08L100.895 262.979L100.558 262.614H100.53Z" fill="#E5F6FF"/>
<path d="M93.7306 260.479C93.1968 260.338 92.6349 260.366 92.1291 260.563C92.8315 261.771 94.4049 262.108 95.8098 262.249C96.5965 262.333 97.5518 262.277 97.889 261.575C98.1418 261.097 97.9451 260.507 98.0013 259.973C98.1137 258.877 99.1533 257.725 98.479 256.882C98.0856 256.405 97.327 256.405 96.7932 256.714C96.2593 257.023 95.9222 257.557 95.585 258.091C94.8545 259.214 94.1521 260.366 93.4216 261.49L93.7306 260.479Z" fill="#E5F6FF"/>
<path opacity="0.5" d="M182.629 279.837C183.584 279.247 184.736 280.736 184.315 281.776C183.893 282.815 182.713 283.293 181.645 283.686C180.915 282.309 181.168 280.483 182.207 279.331L182.657 279.865L182.629 279.837Z" fill="#E5F6FF"/>
<path d="M178.695 319.958C178.274 320.295 178.33 320.998 178.695 321.391C179.061 321.784 179.623 321.925 180.156 321.925C180.465 321.925 180.774 321.869 181.055 321.728C181.674 321.363 181.842 320.436 181.421 319.846C180.999 319.256 180.072 319.143 179.482 319.593C178.892 320.042 178.752 320.913 179.089 321.532L178.695 319.986V319.958Z" fill="#E5F6FF"/>
<path d="M108.847 277.308C107.863 276.774 107.976 275.004 109.043 274.611C109.549 274.92 109.999 275.342 110.223 275.904C110.448 276.465 110.308 277.168 109.802 277.477C109.296 277.786 108.481 277.477 108.453 276.887L108.875 277.336L108.847 277.308Z" fill="#E5F6FF"/>
<path d="M88.4766 262.193C88.3081 260.844 88.8138 259.439 89.7691 258.484C90.4715 259.355 91.1739 260.198 91.8764 261.069C92.2135 261.462 92.5507 261.912 92.635 262.417C92.8036 263.429 91.764 264.384 90.7525 264.3C89.741 264.216 88.8981 263.345 88.6452 262.361L88.4766 262.221V262.193Z" fill="#E5F6FF"/>
<path opacity="0.5" d="M167.766 308.973C168.018 309.254 168.271 309.535 168.524 309.787C168.299 310.377 167.653 310.771 167.063 310.658C166.445 310.546 165.995 309.844 166.192 309.254C166.389 308.664 167.232 308.411 167.681 308.832L167.737 308.944L167.766 308.973Z" fill="#E5F6FF"/>
<path d="M103.284 271.296C103.115 271.998 102.047 272.054 101.457 271.605C100.867 271.155 100.586 270.425 100.052 269.919C99.5186 269.385 98.7319 269.132 97.9733 269.189C97.5237 269.245 97.0742 269.441 96.9056 269.835C96.7932 270.116 96.8213 270.425 96.8775 270.706C97.1023 272.139 97.5518 273.6 98.479 274.667C99.4343 275.763 101.008 276.409 102.384 275.904C103.34 275.566 104.07 274.667 104.239 273.684C104.407 272.701 103.986 271.633 103.199 270.987L103.312 271.24L103.284 271.296Z" fill="#E5F6FF"/>
<path d="M102.693 251.713C102.637 250.786 103.536 249.999 104.436 249.971C105.335 249.943 106.206 250.589 106.627 251.376C106.824 251.741 106.908 252.247 106.599 252.471C106.374 252.64 106.065 252.584 105.812 252.556C104.716 252.359 103.593 252.134 102.497 251.938L102.722 251.685L102.693 251.713Z" fill="#E5F6FF"/>
<path d="M143.602 265.143C142.759 266.8 144.08 269.132 145.963 269.273C146.412 267.896 146.89 266.435 146.496 265.03C146.103 263.626 144.53 262.474 143.237 263.092L142.226 265.396L143.63 265.115L143.602 265.143Z" fill="#E5F6FF"/>
<path d="M1.03946 239.154C0.674203 238.957 0.196541 239.266 0.0560567 239.66C-0.0844271 240.053 0.0560653 240.502 0.196549 240.896C0.337033 241.205 0.505605 241.542 0.758476 241.739C1.26422 242.188 2.10711 242.132 2.64095 241.711C3.17479 241.289 3.37149 240.531 3.231 239.884C3.17481 239.547 3.00625 239.238 2.72528 239.07C2.44431 238.901 2.02284 238.929 1.82617 239.21L1.03946 239.154Z" fill="#E5F6FF"/>
<path d="M118.371 273.347L119.242 272.532C119.72 272.925 120.198 273.375 120.282 273.965C120.366 274.555 119.72 275.229 119.186 274.92C118.99 274.808 118.877 274.583 118.765 274.386C118.428 273.74 118.091 273.094 117.753 272.448L118.371 273.319V273.347Z" fill="#E5F6FF"/>
<path d="M137.702 281.354C138.545 280.877 139.416 280.399 140.371 280.315C141.327 280.23 142.394 280.596 142.816 281.467C143.012 281.888 143.04 282.394 142.956 282.871C142.647 284.276 141.017 285.231 139.613 284.838C138.236 284.445 137.365 282.759 137.814 281.41H137.674L137.702 281.354Z" fill="#E5F6FF"/>
<path d="M146.721 276.69C147.367 276.746 148.013 276.774 148.688 276.831C148.772 277.336 148.744 277.842 148.632 278.32C147.704 278.601 146.609 277.983 146.384 277.055L146.749 276.69H146.721Z" fill="#E5F6FF"/>
<path d="M116.208 222.352C119.776 223.589 123.064 225.64 125.733 228.337C126.154 228.758 126.576 229.236 126.8 229.798C127.222 230.894 126.744 232.158 126.014 233.085C124.244 235.361 120.928 236.176 118.203 235.277C115.449 234.378 113.37 231.933 112.584 229.152C112.162 227.634 112.106 225.921 112.893 224.544C113.679 223.167 115.449 222.296 116.939 222.914C117.107 223.392 116.545 223.954 116.068 223.785L116.236 222.324L116.208 222.352Z" fill="#E5F6FF"/>
<path d="M72.4052 287.058C73.7539 285.85 75.6645 285.344 77.4346 285.709C77.3503 286.496 77.2379 287.339 76.8445 288.041C76.4512 288.743 75.6645 289.277 74.8778 289.165C73.782 288.996 73.2481 287.788 72.8829 286.749L72.4895 287.563L72.4334 287.058H72.4052Z" fill="#E5F6FF"/>
<path d="M83.1382 294.363C83.6159 294.222 84.1497 294.11 84.6274 294.278C85.0769 294.475 85.3579 294.896 85.6108 295.318C86.3413 296.442 87.1561 297.481 88.0552 298.465L81.4524 297.678C81.2838 297.678 81.0872 297.65 80.9186 297.678C80.3285 297.847 80.2724 298.661 79.879 299.139C79.289 299.813 78.1932 299.56 77.4065 299.139C71.8152 296.048 80.4691 295.093 83.1382 294.363Z" fill="#E5F6FF"/>
<path d="M62.9927 279.5C63.6671 278.32 64.9033 277.477 66.2519 277.308C66.3081 278.404 66.3643 279.528 66.3924 280.624C66.3924 281.157 66.4205 281.691 66.1958 282.169C65.7181 283.068 64.3133 283.208 63.5547 282.534C62.768 281.86 62.6275 280.652 63.0208 279.696L62.9646 279.472L62.9927 279.5Z" fill="#E5F6FF"/>
<path d="M80.6656 279.64C81.1713 278.882 82.3514 278.769 83.11 279.303C83.8686 279.837 84.1496 280.848 84.0091 281.747C83.9529 282.141 83.7281 282.618 83.3067 282.618C83.0257 282.618 82.8009 282.394 82.6323 282.197L80.3565 279.696L80.6937 279.64H80.6656Z" fill="#E5F6FF"/>
<path d="M78.8393 263.85C79.6822 263.373 80.5532 262.895 81.5085 262.811C82.4638 262.726 83.5314 263.092 83.9529 263.963C84.1496 264.384 84.1777 264.89 84.0934 265.367C83.7843 266.772 82.1547 267.728 80.7499 267.334C79.3731 266.941 78.5021 265.255 78.9517 263.906H78.8112L78.8393 263.85Z" fill="#E5F6FF"/>
<path d="M126.969 256.489C127.756 257.079 127.615 258.259 127.306 259.214C127.025 260.142 126.716 261.265 127.334 262.024C127.503 262.221 127.756 262.389 128.037 262.361C128.711 262.305 128.767 261.322 128.992 260.704C129.189 260.198 129.61 259.804 129.919 259.355C130.65 258.259 130.622 256.742 129.835 255.674C129.217 255.365 128.402 255.45 127.868 255.927C127.334 256.377 127.11 257.163 127.306 257.838L126.941 256.545L126.969 256.489Z" fill="#E5F6FF"/>
<path d="M141.748 275.623C142.535 276.213 142.394 277.393 142.085 278.348C141.804 279.275 141.495 280.399 142.113 281.157C142.282 281.354 142.535 281.523 142.816 281.495C143.49 281.438 143.546 280.455 143.771 279.837C143.968 279.331 144.389 278.938 144.698 278.488C145.429 277.393 145.401 275.875 144.614 274.808C143.996 274.499 143.181 274.583 142.647 275.061C142.113 275.51 141.889 276.297 142.085 276.971L141.72 275.679L141.748 275.623Z" fill="#E5F6FF"/>
<path d="M159.758 276.69C160.545 276.634 161.36 276.774 162.09 277.055C162.202 277.112 162.315 277.168 162.427 277.252C162.596 277.421 162.624 277.702 162.54 277.955C162.371 278.545 161.809 278.966 161.219 279.022C160.601 279.078 160.011 278.769 159.618 278.292C159.421 278.039 159.252 277.702 159.309 277.365C159.337 277.027 159.618 276.718 159.955 276.718C160.011 276.803 159.955 276.943 159.87 276.971L159.786 276.69H159.758Z" fill="#E5F6FF"/>
<path d="M46.3877 257.416C47.7363 256.208 49.6469 255.702 51.417 256.068C51.3327 256.854 51.2203 257.697 50.827 258.4C50.4336 259.102 49.6469 259.636 48.8602 259.524C47.7644 259.355 47.2306 258.147 46.8653 257.107L46.472 257.922L46.4158 257.416H46.3877Z" fill="#E5F6FF"/>
<path d="M44.2523 274.162C43.7746 273.122 44.9265 271.801 46.0223 272.111C46.219 272.672 46.3595 273.262 46.1909 273.824C46.0223 274.386 45.4885 274.864 44.8985 274.836C44.3084 274.808 43.8589 274.049 44.168 273.572L44.2241 274.162H44.2523Z" fill="#E5F6FF"/>
<path d="M73.3323 266.772C72.8546 265.733 74.0066 264.412 75.1024 264.721C75.2991 265.283 75.4396 265.873 75.271 266.435C75.1024 266.997 74.5685 267.475 73.9785 267.447C73.3885 267.419 72.9389 266.66 73.248 266.182L73.3042 266.772H73.3323Z" fill="#E5F6FF"/>
<path d="M43.4095 266.014C42.8476 266.491 41.9485 265.873 41.7518 265.171C41.5551 264.468 41.7518 263.71 41.6394 262.979C41.527 262.221 41.0494 261.546 40.4031 261.153C40.0379 260.928 39.5322 260.816 39.1388 261.013C38.8859 261.153 38.7173 261.434 38.605 261.687C37.9306 262.979 37.3968 264.384 37.5092 265.845C37.6216 267.278 38.4926 268.739 39.8693 269.189C40.8246 269.47 41.9485 269.189 42.679 268.514C43.4095 267.812 43.7186 266.716 43.4657 265.733L43.4095 266.014Z" fill="#E5F6FF"/>
<path d="M128.852 266.238C128.29 266.716 127.391 266.098 127.194 265.396C126.997 264.693 127.194 263.935 127.082 263.204C126.969 262.445 126.492 261.771 125.845 261.378C125.48 261.153 124.974 261.041 124.581 261.237C124.328 261.378 124.16 261.659 124.047 261.912C123.373 263.204 122.839 264.609 122.951 266.07C123.064 267.503 123.935 268.964 125.311 269.413C126.267 269.694 127.391 269.413 128.121 268.739C128.852 268.037 129.161 266.941 128.908 265.958L128.852 266.238Z" fill="#E5F6FF"/>
<path d="M130.369 256.854C129.807 257.332 128.908 256.714 128.711 256.012C128.515 255.309 128.711 254.55 128.599 253.82C128.486 253.061 128.009 252.387 127.363 251.994C126.997 251.769 126.492 251.657 126.098 251.853C125.845 251.994 125.677 252.275 125.564 252.528C124.89 253.82 124.356 255.225 124.469 256.686C124.581 258.119 125.452 259.58 126.829 260.029C127.784 260.31 128.908 260.029 129.638 259.355C130.369 258.653 130.678 257.557 130.425 256.573L130.369 256.854Z" fill="#E5F6FF"/>
<path d="M115.702 257.585C115.141 258.062 114.241 257.444 114.045 256.742C113.848 256.04 114.045 255.281 113.932 254.55C113.82 253.792 113.342 253.118 112.696 252.724C112.331 252.499 111.825 252.387 111.432 252.584C111.179 252.724 111.01 253.005 110.898 253.258C110.224 254.55 109.69 255.955 109.802 257.416C109.915 258.849 110.786 260.31 112.162 260.76C113.118 261.041 114.241 260.76 114.972 260.085C115.702 259.383 116.012 258.287 115.759 257.304L115.702 257.585Z" fill="#E5F6FF"/>
<path d="M141.86 356.961C141.299 357.438 140.399 356.82 140.203 356.118C140.006 355.415 140.203 354.657 140.09 353.926C139.978 353.168 139.5 352.493 138.854 352.1C138.489 351.875 137.983 351.763 137.59 351.96C137.337 352.1 137.168 352.381 137.056 352.634C136.382 353.926 135.848 355.331 135.96 356.792C136.073 358.225 136.944 359.686 138.32 360.136C139.276 360.417 140.399 360.136 141.13 359.461C141.86 358.787 142.17 357.663 141.917 356.68L141.86 356.961Z" fill="#E5F6FF"/>
<path d="M54.2549 276.69L55.435 276.55C55.5754 277.14 55.7159 277.786 55.435 278.32C55.1259 278.854 54.2268 278.994 53.9739 278.432C53.8896 278.235 53.9177 277.983 53.9739 277.758C54.0863 277.027 54.1987 276.325 54.3111 275.594V276.662L54.2549 276.69Z" fill="#E5F6FF"/>
<path d="M122.165 313.468C123.007 312.99 123.878 312.513 124.834 312.428C125.789 312.344 126.857 312.709 127.278 313.58C127.475 314.002 127.503 314.508 127.419 314.985C127.11 316.39 125.48 317.345 124.075 316.952C122.67 316.559 121.827 314.873 122.277 313.524H122.136L122.165 313.468Z" fill="#E5F6FF"/>
<path d="M70.27 251.685C68.9213 251.404 67.6289 253.118 68.2751 254.326C68.9494 254.691 69.708 254.888 70.4666 254.944C70.7476 254.157 70.7195 253.258 70.3823 252.471L70.2981 251.685H70.27Z" fill="#E5F6FF"/>
<path opacity="0.5" d="M133.572 308.944C134.106 308.776 134.64 308.607 135.202 308.635C135.764 308.692 136.325 309.029 136.466 309.563C136.691 310.434 135.735 311.192 135.539 312.063C135.342 312.962 135.932 313.974 135.426 314.76C134.949 315.519 133.713 315.407 133.094 314.76C132.476 314.114 132.364 313.131 132.308 312.232C132.251 311.417 132.28 310.574 132.673 309.872C133.066 309.169 133.937 308.664 134.696 308.944H133.6H133.572Z" fill="#E5F6FF"/>
<path d="M108.088 266.351C108.734 262.53 111.516 259.158 115.112 257.753C118.063 260.226 120.282 263.963 119.889 267.812C119.495 271.661 115.787 275.173 111.994 274.443C108.201 273.712 106.318 267.924 109.465 265.677L108.06 266.351H108.088Z" fill="#E5F6FF"/>
<path d="M71.2253 242.834C71.0848 243.34 71.5343 243.874 72.0682 243.986C72.602 244.099 73.1358 243.874 73.5573 243.537C73.8102 243.34 74.035 243.115 74.1473 242.834C74.4283 242.16 74.0069 241.317 73.3044 241.121C72.602 240.924 71.8153 241.373 71.5905 242.076C71.3939 242.778 71.7872 243.565 72.4334 243.874L71.1972 242.863L71.2253 242.834Z" fill="#E5F6FF"/>
<path d="M89.0103 254.438C89.5723 255.253 89.0103 256.321 88.4484 257.107C87.8584 257.894 87.2121 258.849 87.5493 259.748C87.6336 260.001 87.8303 260.226 88.0831 260.31C88.7574 260.479 89.0946 259.58 89.5442 259.046C89.9094 258.624 90.4152 258.4 90.8647 258.091C91.9043 257.304 92.382 255.843 92.0167 254.607C91.5391 254.101 90.7242 253.932 90.078 254.185C89.4318 254.438 88.9541 255.084 88.926 255.787L89.0103 254.438Z" fill="#E5F6FF"/>
<path d="M106.824 279.949L107.92 280.146C108.088 280.736 107.835 281.438 107.273 281.719C106.712 282 105.953 281.719 105.756 281.129C105.56 280.539 106.093 279.837 106.712 279.893L106.824 279.949Z" fill="#E5F6FF"/>
<path d="M89.3476 267.531C88.9262 267.615 88.7295 268.149 88.87 268.542C89.0105 268.936 89.3757 269.217 89.7129 269.441C89.9939 269.61 90.331 269.779 90.6682 269.779C91.3425 269.835 91.9887 269.301 92.1573 268.627C92.3259 267.98 92.0449 267.25 91.5392 266.8C91.2863 266.576 90.9772 266.407 90.6401 266.435C90.3029 266.463 89.9939 266.744 90.022 267.081L89.3476 267.531Z" fill="#E5F6FF"/>
<path d="M76.6479 297.313C74.653 293.997 74.5406 289.614 76.3388 286.215C80.1881 286.159 84.3183 287.535 86.5098 290.71C88.7295 293.885 88.2237 298.942 84.8802 300.881C81.5367 302.82 76.3388 299.645 77.2379 295.908L76.6198 297.341L76.6479 297.313Z" fill="#E5F6FF"/>
<path d="M257.647 503.875C255.652 500.56 255.54 496.177 257.338 492.777C261.187 492.721 265.318 494.098 267.509 497.273C269.729 500.447 269.223 505.505 265.88 507.443C262.536 509.382 257.338 506.207 258.237 502.47L257.619 503.903L257.647 503.875Z" fill="#E5F6FF"/>
<path d="M58.7222 272.841C59.6775 272.251 60.8295 273.74 60.4081 274.78C59.9866 275.819 58.8065 276.297 57.7388 276.69C57.0083 275.314 57.2612 273.487 58.3008 272.335L58.7503 272.869L58.7222 272.841Z" fill="#E5F6FF"/>
<path d="M83.6159 240.137L84.7117 240.334C84.8803 240.924 84.6274 241.626 84.0655 241.907C83.5035 242.188 82.7449 241.907 82.5482 241.317C82.3515 240.727 82.8854 240.025 83.5035 240.081L83.6159 240.137Z" fill="#E5F6FF"/>
<path d="M83.4472 260.647C87.5212 260.114 91.7076 260.535 95.585 261.855C96.2031 262.08 96.8493 262.305 97.327 262.755C98.2542 263.626 98.4227 265.087 98.1699 266.323C97.5517 269.385 94.7421 271.773 91.6514 272.223C88.5608 272.672 85.3296 271.324 83.2505 268.992C82.0985 267.728 81.2275 266.07 81.3399 264.356C81.4523 262.642 82.7448 260.928 84.4587 260.816C84.852 261.209 84.5991 261.996 84.0372 262.08L83.5034 260.591L83.4472 260.647Z" fill="#E5F6FF"/>
<path d="M96.0065 327.066C98.8162 324.397 103.059 323.358 106.796 324.397C107.695 328.162 107.217 332.461 104.604 335.299C101.991 338.136 96.9337 338.726 94.3207 335.889C91.7077 333.051 93.7026 327.263 97.5518 327.347L96.0346 327.066H96.0065Z" fill="#E5F6FF"/>
<path d="M153.155 281.551C154.504 280.343 156.414 279.837 158.185 280.202C158.1 280.989 157.988 281.832 157.595 282.534C157.201 283.237 156.415 283.799 155.628 283.658C154.532 283.489 153.998 282.281 153.633 281.242L153.24 282.057L153.183 281.551H153.155Z" fill="#E5F6FF"/>
<path d="M163.888 288.856C164.366 288.715 164.9 288.603 165.377 288.772C165.827 288.968 166.108 289.39 166.361 289.811C167.091 290.935 167.906 291.974 168.805 292.958C166.614 292.705 164.394 292.452 162.202 292.171C162.034 292.171 161.837 292.143 161.669 292.171C161.079 292.34 161.022 293.155 160.629 293.632C160.039 294.306 158.943 294.054 158.157 293.632C152.565 290.542 161.219 289.586 163.888 288.856Z" fill="#E5F6FF"/>
<path d="M93.3936 253.932C94.0398 253.989 94.6861 254.017 95.3323 254.073C95.1637 255.365 94.2927 256.658 93.0002 256.854C91.7078 257.051 90.3591 255.59 90.9773 254.438C91.3425 253.736 92.2135 252.752 91.5111 252.415L93.3936 253.96V253.932Z" fill="#E5F6FF"/>
<path d="M134.106 292.255C133.572 292.115 133.01 292.143 132.504 292.34C133.206 293.548 134.78 293.885 136.185 294.025C136.971 294.11 137.927 294.054 138.264 293.351C138.517 292.874 138.32 292.284 138.376 291.75C138.489 290.654 139.528 289.502 138.854 288.659C138.461 288.182 137.702 288.182 137.168 288.491C136.634 288.8 136.297 289.333 135.96 289.867C135.229 290.991 134.527 292.143 133.797 293.267L134.106 292.255Z" fill="#E5F6FF"/>
<path d="M129.442 312.99C130.397 312.4 131.549 313.889 131.128 314.929C130.706 315.969 129.526 316.446 128.458 316.839C127.728 315.463 127.981 313.637 129.02 312.485L129.47 313.018L129.442 312.99Z" fill="#E5F6FF"/>
<path opacity="0.5" d="M152.341 305.32C151.919 305.657 151.975 306.36 152.341 306.753C152.706 307.146 153.268 307.287 153.802 307.287C154.111 307.287 154.42 307.231 154.701 307.09C155.319 306.725 155.487 305.798 155.066 305.208C154.644 304.618 153.717 304.505 153.127 304.955C152.537 305.404 152.397 306.275 152.734 306.893L152.341 305.348V305.32Z" fill="#E5F6FF"/>
<path d="M151.02 298.296C150.542 297.257 151.694 295.936 152.79 296.245C152.987 296.807 153.127 297.397 152.958 297.959C152.79 298.521 152.256 298.999 151.666 298.97C151.076 298.942 150.626 298.184 150.936 297.706L150.992 298.296H151.02Z" fill="#E5F6FF"/>
<path d="M143.771 273.993C144.445 272.813 145.682 271.97 147.03 271.801C147.086 272.897 147.143 274.021 147.171 275.117C147.171 275.651 147.199 276.184 146.974 276.662C146.496 277.561 145.092 277.702 144.333 277.027C143.546 276.353 143.406 275.145 143.799 274.19L143.743 273.965L143.771 273.993Z" fill="#E5F6FF"/>
<path opacity="0.5" d="M142.619 317.823C142.029 318.329 141.804 319.228 142.029 319.958C142.282 320.689 142.984 321.279 143.771 321.335C144.305 321.391 144.951 321.054 144.923 320.52C144.923 320.295 144.754 320.099 144.642 319.93L142.872 317.542L142.507 317.907L142.619 317.823Z" fill="#E5F6FF"/>
<path opacity="0.5" d="M146.805 332.686C147.592 333.276 147.452 334.456 147.143 335.411C146.862 336.338 146.553 337.462 147.171 338.221C147.339 338.417 147.592 338.586 147.873 338.558C148.547 338.502 148.604 337.518 148.828 336.9C149.025 336.394 149.447 336.001 149.756 335.551C150.486 334.456 150.458 332.939 149.671 331.871C149.053 331.562 148.238 331.646 147.705 332.124C147.171 332.573 146.946 333.36 147.143 334.034L146.777 332.742L146.805 332.686Z" fill="#E5F6FF"/>
<path opacity="0.5" d="M125.761 246.543C126.548 247.133 126.407 248.313 126.098 249.268C125.817 250.196 125.508 251.319 126.126 252.078C126.295 252.275 126.548 252.443 126.829 252.415C127.503 252.359 127.559 251.376 127.784 250.758C127.981 250.252 128.402 249.858 128.711 249.409C129.442 248.313 129.414 246.796 128.627 245.728C128.009 245.419 127.194 245.504 126.66 245.981C126.126 246.431 125.901 247.217 126.098 247.892L125.733 246.599L125.761 246.543Z" fill="#E5F6FF"/>
<path opacity="0.5" d="M156.162 329.848L157.286 329.679C157.651 330.185 157.623 330.944 157.201 331.393C156.78 331.843 155.937 331.815 155.572 331.337C155.207 330.859 155.459 329.988 156.049 329.848H156.19H156.162Z" fill="#E5F6FF"/>
<path d="M150.149 290.148C149.587 290.626 148.688 290.008 148.491 289.305C148.295 288.603 148.491 287.844 148.379 287.114C148.267 286.355 147.789 285.681 147.143 285.288C146.777 285.063 146.272 284.95 145.878 285.147C145.625 285.288 145.457 285.569 145.344 285.821C144.67 287.114 144.136 288.519 144.249 289.98C144.361 291.413 145.232 292.874 146.609 293.323C147.564 293.604 148.688 293.323 149.419 292.649C150.149 291.946 150.458 290.851 150.205 289.867L150.149 290.148Z" fill="#E5F6FF"/>
<path d="M161.416 274.133C161.921 273.375 163.101 273.262 163.86 273.796C164.591 274.33 164.9 275.342 164.759 276.241C164.703 276.634 164.478 277.112 164.057 277.112C163.776 277.112 163.551 276.887 163.382 276.69C162.624 275.847 161.865 275.033 161.107 274.19L161.444 274.133H161.416Z" fill="#E5F6FF"/>
<path d="M118.737 301.218C117.894 302.876 119.215 305.208 121.097 305.348C121.547 303.971 122.024 302.51 121.631 301.106C121.238 299.701 119.664 298.549 118.372 299.167C118.034 299.926 117.697 300.712 117.36 301.471L118.765 301.19L118.737 301.218Z" fill="#E5F6FF"/>
<path opacity="0.5" d="M161.022 300.853L162.203 300.74C162.343 301.33 162.483 301.977 162.203 302.511C161.922 303.044 160.994 303.185 160.741 302.623C160.657 302.426 160.685 302.173 160.741 301.949C160.854 301.218 160.966 300.516 161.079 299.785V300.853H161.022Z" fill="#E5F6FF"/>
<path d="M66.0554 259.72C66.8983 259.243 67.7693 258.765 68.7246 258.681C69.6798 258.568 70.7475 258.962 71.169 259.833C71.3656 260.254 71.3937 260.76 71.3094 261.237C71.0004 262.642 69.3708 263.597 67.9659 263.204C66.5892 262.811 65.7182 261.125 66.1677 259.776H66.0273L66.0554 259.72Z" fill="#E5F6FF"/>
<path d="M93.534 309.815C94.1802 309.872 94.8265 309.9 95.5008 309.956C95.5851 310.462 95.557 310.967 95.4446 311.445C94.5174 311.726 93.4216 311.108 93.1969 310.181L93.5621 309.815H93.534Z" fill="#E5F6FF"/>
<path d="M15.7341 252.949C15.3127 253.286 15.3689 253.989 15.7341 254.382C16.0994 254.775 16.6613 254.916 17.1952 254.916C17.5042 254.916 17.8133 254.86 18.0942 254.719C18.7124 254.354 18.881 253.427 18.4595 252.837C18.0381 252.247 17.1109 252.134 16.5208 252.584C15.9308 253.033 15.7903 253.904 16.1275 254.522L15.7341 252.977V252.949Z" fill="#E5F6FF"/>
<path d="M107.161 301.078C107.807 301.134 108.453 301.162 109.128 301.218C109.212 301.724 109.184 302.23 109.072 302.707C108.144 302.988 107.049 302.37 106.824 301.443L107.189 301.078H107.161Z" fill="#E5F6FF"/>
<path d="M112.949 247.695C113.342 247.077 114.382 247.386 114.775 248.004C115.169 248.622 115.197 249.409 115.534 250.055C115.871 250.729 116.517 251.263 117.248 251.432C117.669 251.544 118.175 251.516 118.484 251.179C118.681 250.954 118.765 250.645 118.793 250.364C119.046 248.931 119.13 247.414 118.624 246.065C118.091 244.717 116.826 243.565 115.365 243.593C114.354 243.593 113.37 244.183 112.893 245.054C112.415 245.925 112.443 247.077 112.977 247.948V247.667L112.949 247.695Z" fill="#E5F6FF"/>
<path d="M81.0872 270.228C80.6376 270.537 80.1599 270.874 79.6261 270.987C79.0923 271.099 78.446 270.959 78.1651 270.481C77.6874 269.694 78.3899 268.711 78.3056 267.812C78.2213 266.913 77.3784 266.098 77.6031 265.199C77.8279 264.328 79.0642 264.075 79.8509 264.525C80.6376 264.974 81.031 265.873 81.34 266.716C81.621 267.475 81.8457 268.289 81.7052 269.076C81.5367 269.863 80.8624 270.593 80.0475 270.537L81.0872 270.228Z" fill="#E5F6FF"/>
<path d="M123.232 273.403C119.945 272.813 116.798 271.464 114.129 269.47C113.708 269.16 113.258 268.795 113.005 268.346C112.499 267.447 112.724 266.267 113.23 265.367C114.466 263.148 117.248 261.968 119.748 262.389C122.249 262.811 124.412 264.637 125.48 266.969C126.07 268.233 126.323 269.722 125.817 271.043C125.311 272.335 123.879 273.347 122.53 273.01C122.333 272.616 122.727 272.054 123.176 272.111L123.232 273.403Z" fill="#E5F6FF"/>
<path d="M119.776 249.437C119.889 248.959 120.057 248.426 120.451 248.116C120.844 247.807 121.35 247.807 121.855 247.779C123.176 247.695 124.497 247.526 125.817 247.217L121.855 252.556C121.743 252.696 121.631 252.837 121.603 253.005C121.462 253.595 122.136 254.045 122.361 254.635C122.67 255.478 121.884 256.321 121.125 256.77C115.646 260.085 119.13 252.078 119.833 249.437H119.776Z" fill="#E5F6FF"/>
<path d="M123.626 272.672L124.721 272.42C125.115 272.897 125.143 273.656 124.721 274.133C124.328 274.611 123.485 274.639 123.092 274.19C122.67 273.74 122.867 272.869 123.457 272.672H123.598H123.626Z" fill="#E5F6FF"/>
<path d="M128.515 255.337C128.093 254.522 128.599 253.427 129.442 253.061C130.285 252.696 131.296 252.921 132.027 253.483C132.336 253.736 132.617 254.157 132.42 254.522C132.279 254.775 131.97 254.86 131.718 254.916C130.622 255.169 129.526 255.421 128.43 255.674L128.543 255.365L128.515 255.337Z" fill="#E5F6FF"/>
<path d="M128.009 267.447C127.643 265.677 128.149 263.766 129.329 262.417C129.976 262.895 130.65 263.401 131.043 264.103C131.465 264.806 131.549 265.733 131.043 266.379C130.369 267.25 129.048 267.109 127.953 266.913L128.458 267.671L128.009 267.447Z" fill="#E5F6FF"/>
<path d="M131.718 274.695C131.324 275.089 131.071 275.594 130.987 276.128C132.392 276.128 133.46 274.92 134.274 273.768C134.724 273.122 135.173 272.279 134.724 271.633C134.415 271.183 133.825 271.043 133.375 270.734C132.504 270.088 131.999 268.627 130.931 268.767C130.313 268.851 129.948 269.526 129.948 270.144C129.948 270.762 130.257 271.324 130.538 271.886C131.156 273.066 131.774 274.274 132.42 275.454L131.689 274.695H131.718Z" fill="#E5F6FF"/>
<path d="M120.676 257.248C120.001 256.068 119.889 254.579 120.395 253.342C121.378 253.848 122.361 254.354 123.345 254.86C123.822 255.112 124.3 255.365 124.581 255.787C125.143 256.658 124.581 257.922 123.598 258.259C122.642 258.596 121.518 258.119 120.9 257.304L120.676 257.22V257.248Z" fill="#E5F6FF"/>
<path d="M137.871 259.748C138.011 260.479 137.028 260.956 136.325 260.76C135.623 260.563 135.061 260.029 134.359 259.776C133.656 259.523 132.813 259.58 132.167 259.945C131.774 260.17 131.436 260.535 131.436 260.956C131.436 261.265 131.605 261.518 131.746 261.771C132.532 262.979 133.488 264.159 134.808 264.777C136.101 265.396 137.814 265.367 138.882 264.384C139.613 263.682 139.95 262.586 139.697 261.631C139.444 260.675 138.657 259.833 137.674 259.58L137.871 259.776V259.748Z" fill="#E5F6FF"/>
<path d="M95.9785 281.972C95.9785 281.017 95.9786 280.006 96.4 279.135C96.7934 278.264 97.6644 277.505 98.6197 277.589C99.0973 277.617 99.5468 277.842 99.884 278.179C100.952 279.163 100.98 281.045 99.9402 282.057C98.9006 283.068 97.0181 282.984 96.0628 281.888L95.9505 281.972H95.9785Z" fill="#E5F6FF"/>
<path d="M93.2531 260.675C92.8879 258.905 93.3936 256.995 94.5737 255.646C95.2199 256.124 95.8942 256.63 96.2876 257.332C96.709 258.034 96.7933 258.962 96.2876 259.608C95.6133 260.479 94.2927 260.338 93.197 260.142L93.7027 260.9L93.2531 260.675Z" fill="#E5F6FF"/>
<path d="M134.415 276.803C135.23 277.336 135.173 278.545 134.949 279.5C134.724 280.455 134.499 281.579 135.173 282.281C135.37 282.478 135.623 282.618 135.876 282.562C136.55 282.45 136.522 281.495 136.719 280.82C136.887 280.286 137.281 279.893 137.562 279.416C138.208 278.292 138.067 276.746 137.225 275.763C136.578 275.51 135.792 275.651 135.286 276.128C134.78 276.606 134.612 277.421 134.864 278.067L134.415 276.803Z" fill="#E5F6FF"/>
<path d="M59.7335 285.765L60.7731 286.215C60.8012 286.833 60.3797 287.451 59.7616 287.591C59.1716 287.732 58.4692 287.282 58.413 286.664C58.3568 286.046 59.0311 285.484 59.6212 285.681L59.7335 285.765Z" fill="#E5F6FF"/>
<path d="M113.904 263.429L114.382 262.361C114.972 262.53 115.59 262.755 115.899 263.26C116.208 263.766 115.899 264.665 115.281 264.581C115.056 264.581 114.859 264.412 114.691 264.272C114.129 263.822 113.567 263.345 113.005 262.895L113.932 263.429H113.904Z" fill="#E5F6FF"/>
<path d="M471.014 401.072C465.029 403.46 458.483 404.443 452.077 403.937C451.037 403.853 449.969 403.713 449.07 403.235C447.3 402.28 446.514 400.116 446.429 398.121C446.204 393.205 449.548 388.485 454.072 386.574C458.623 384.692 464.046 385.506 468.148 388.232C470.396 389.721 472.363 391.884 472.868 394.553C473.374 397.194 472.053 400.313 469.469 401.156C468.738 400.706 468.822 399.414 469.609 399.049L471.014 401.1V401.072Z" fill="white"/>
<path d="M453.2 392.334C451.852 394.609 449.267 396.099 446.626 396.099C445.333 393.795 444.828 390.901 446.036 388.541C447.244 386.181 450.419 384.832 452.667 386.209C454.914 387.585 454.69 391.744 452.161 392.418L453.229 392.334H453.2Z" fill="white"/>
<path d="M429.908 396.408C429.993 397.616 429.487 398.88 428.56 399.695C428.166 399.302 427.773 398.908 427.548 398.402C427.323 397.897 427.352 397.251 427.745 396.857C428.279 396.323 429.178 396.52 429.88 396.773L429.599 396.211L429.88 396.408H429.908Z" fill="white"/>
<path d="M434.769 396.548C435.134 396.548 435.5 396.408 435.809 396.183C435.134 395.509 434.039 395.593 433.083 395.761C432.549 395.846 431.931 396.07 431.847 396.604C431.791 396.97 432.016 397.307 432.072 397.672C432.212 398.402 431.735 399.358 432.325 399.779C432.662 400.032 433.167 399.892 433.448 399.582C433.729 399.273 433.87 398.852 433.982 398.459L434.769 395.818V396.52V396.548Z" fill="white"/>
<path opacity="0.5" d="M372.844 400.538C372.338 401.1 371.299 400.341 371.383 399.582C371.467 398.824 372.141 398.29 372.788 397.841C373.518 398.599 373.715 399.863 373.237 400.819L372.844 400.566V400.538Z" fill="white"/>
<path d="M367.899 373.481C368.095 373.172 367.955 372.751 367.646 372.554C367.337 372.357 366.943 372.385 366.606 372.47C366.41 372.526 366.213 372.61 366.044 372.779C365.707 373.144 365.763 373.79 366.157 374.071C366.55 374.38 367.168 374.268 367.477 373.875C367.786 373.481 367.73 372.863 367.365 372.526L367.899 373.453V373.481Z" fill="white"/>
<path d="M421.704 388.344C422.463 388.513 422.715 389.693 422.097 390.142C421.704 390.03 421.339 389.833 421.086 389.524C420.861 389.215 420.805 388.709 421.086 388.4C421.339 388.091 421.929 388.147 422.069 388.541L421.732 388.344H421.704Z" fill="white"/>
<path d="M437.888 394.441C438.253 395.284 438.197 396.323 437.719 397.11C437.101 396.689 436.483 396.239 435.837 395.818C435.556 395.621 435.247 395.396 435.078 395.087C434.769 394.441 435.275 393.654 435.977 393.486C436.652 393.345 437.382 393.767 437.719 394.357L437.86 394.413L437.888 394.441Z" fill="white"/>
<path opacity="0.5" d="M377.114 378.651L376.468 378.258C376.496 377.836 376.833 377.443 377.255 377.415C377.676 377.387 378.098 377.752 378.07 378.173C378.042 378.595 377.536 378.932 377.171 378.735L377.114 378.679V378.651Z" fill="white"/>
<path d="M426.48 391.238C426.48 390.732 427.155 390.507 427.604 390.676C428.082 390.873 428.391 391.266 428.841 391.519C429.29 391.772 429.852 391.8 430.33 391.603C430.611 391.491 430.892 391.266 430.92 390.985C430.92 390.788 430.863 390.592 430.779 390.395C430.358 389.496 429.796 388.625 428.981 388.091C428.166 387.557 426.986 387.417 426.199 388.007C425.637 388.4 425.328 389.131 425.413 389.805C425.497 390.479 425.975 391.097 426.593 391.378L426.48 391.238Z" fill="white"/>
<path d="M430.527 403.965C430.723 404.555 430.302 405.23 429.712 405.426C429.122 405.623 428.447 405.37 427.998 404.921C427.801 404.724 427.661 404.415 427.829 404.19C427.942 404.05 428.138 404.022 428.335 403.994C429.094 403.909 429.852 403.853 430.639 403.769L430.527 403.965Z" fill="white"/>
<path d="M401.193 402.842C401.418 401.577 400.126 400.313 398.89 400.594C398.833 401.577 398.805 402.617 399.339 403.46C399.845 404.303 401.109 404.752 401.84 404.106C401.924 403.544 402.008 402.954 402.064 402.392L401.193 402.842Z" fill="white"/>
<path d="M499.56 393.12C499.841 393.177 500.094 392.896 500.122 392.587C500.122 392.306 499.982 392.025 499.785 391.8C499.644 391.603 499.476 391.435 499.251 391.35C498.83 391.154 498.296 391.35 498.043 391.716C497.79 392.081 497.79 392.615 497.987 393.036C498.099 393.233 498.268 393.429 498.464 393.486C498.689 393.542 498.942 393.429 499.026 393.233L499.56 393.12Z" fill="white"/>
<path d="M416.197 392.727L415.776 393.401C415.41 393.233 414.989 393.036 414.82 392.671C414.652 392.306 414.961 391.716 415.354 391.828C415.495 391.856 415.607 391.997 415.719 392.109L416.759 393.177L416.197 392.727Z" fill="white"/>
<path d="M402.008 391.097C401.559 391.575 401.053 392.053 400.463 392.277C399.845 392.53 399.086 392.474 398.637 391.997C398.412 391.744 398.3 391.435 398.3 391.097C398.243 390.114 399.114 389.187 400.126 389.187C401.109 389.187 402.008 390.114 401.952 391.097H402.036H402.008Z" fill="white"/>
<path d="M397.007 395.874C396.557 395.958 396.136 396.07 395.686 396.155C395.546 395.846 395.462 395.509 395.434 395.171C395.995 394.806 396.81 395.003 397.147 395.565L396.979 395.874H397.007Z" fill="white"/>
<path d="M427.211 425.768C424.626 425.628 422.097 424.897 419.85 423.633C419.484 423.436 419.119 423.211 418.866 422.874C418.389 422.228 418.473 421.301 418.754 420.57C419.484 418.744 421.507 417.592 423.474 417.676C425.441 417.761 427.267 418.969 428.307 420.626C428.869 421.554 429.234 422.677 428.953 423.717C428.7 424.757 427.689 425.656 426.621 425.543C426.424 425.262 426.677 424.785 427.014 424.813L427.183 425.796L427.211 425.768Z" fill="white"/>
<path d="M443.76 375.111C443.114 376.15 441.934 376.853 440.726 376.937C440.641 376.403 440.557 375.841 440.669 375.307C440.81 374.774 441.203 374.268 441.737 374.184C442.496 374.071 443.058 374.774 443.507 375.392L443.62 374.774L443.732 375.083L443.76 375.111Z" fill="white"/>
<path d="M435.359 372.329C435.078 372.498 434.741 372.695 434.404 372.666C434.067 372.638 433.814 372.386 433.561 372.161C432.887 371.571 432.128 371.037 431.369 370.559C432.858 370.306 434.348 370.082 435.837 369.829C435.949 369.829 436.09 369.801 436.174 369.716C436.539 369.492 436.399 368.958 436.595 368.564C436.848 368.002 437.635 367.974 438.225 368.115C442.468 369.098 436.961 371.346 435.359 372.329Z" fill="white"/>
<path d="M451.346 378.314C451.121 379.213 450.475 380 449.632 380.365C449.379 379.634 449.155 378.932 448.902 378.201C448.789 377.864 448.677 377.499 448.733 377.162C448.874 376.488 449.773 376.122 450.391 376.431C451.037 376.712 451.346 377.499 451.262 378.173L451.346 378.314Z" fill="white"/>
<path d="M496.638 378.342L495.992 377.949C496.02 377.527 496.357 377.134 496.779 377.106C497.2 377.078 497.621 377.443 497.593 377.864C497.565 378.286 497.06 378.623 496.694 378.426L496.638 378.37V378.342Z" fill="white"/>
<path d="M439.742 381.545C439.545 382.135 438.787 382.444 438.197 382.219C437.607 382.022 437.213 381.404 437.157 380.786C437.129 380.505 437.185 380.168 437.438 380.084C437.607 380.028 437.803 380.14 437.972 380.224C438.618 380.618 439.292 381.011 439.939 381.432L439.742 381.545Z" fill="white"/>
<path d="M443.9 391.547C443.451 392.025 442.945 392.502 442.355 392.727C441.737 392.98 440.978 392.924 440.529 392.446C440.304 392.193 440.192 391.884 440.192 391.547C440.135 390.564 441.006 389.636 442.018 389.636C443.001 389.636 443.9 390.564 443.844 391.547H443.928H443.9Z" fill="white"/>
<path d="M413.725 405.398C413.106 405.174 412.966 404.359 412.994 403.684C412.994 403.01 412.994 402.224 412.432 401.858C412.292 401.746 412.095 401.69 411.926 401.774C411.477 401.943 411.645 402.589 411.617 403.038C411.589 403.404 411.364 403.741 411.252 404.106C410.971 404.949 411.28 405.96 411.983 406.494C412.46 406.578 412.966 406.354 413.219 405.96C413.472 405.567 413.5 405.005 413.219 404.612L413.697 405.398H413.725Z" fill="white"/>
<path d="M400.435 395.621C399.817 395.396 399.676 394.581 399.704 393.907C399.704 393.233 399.704 392.446 399.142 392.081C399.002 391.968 398.805 391.912 398.637 391.997C398.187 392.165 398.356 392.811 398.328 393.261C398.299 393.626 398.075 393.963 397.962 394.329C397.681 395.171 397.99 396.183 398.693 396.717C399.17 396.801 399.676 396.576 399.929 396.183C400.182 395.789 400.21 395.228 399.929 394.834L400.407 395.621H400.435Z" fill="white"/>
<path d="M388.438 398.318C387.932 398.515 387.37 398.571 386.836 398.515C386.752 398.515 386.667 398.515 386.583 398.459C386.443 398.374 386.386 398.178 386.386 398.009C386.386 397.588 386.667 397.194 387.061 397.054C387.454 396.913 387.904 396.998 388.241 397.222C388.438 397.363 388.578 397.531 388.634 397.756C388.662 397.981 388.55 398.234 388.325 398.29C388.269 398.262 388.269 398.15 388.325 398.121L388.438 398.29V398.318Z" fill="white"/>
<path d="M466.378 389.665C465.732 390.704 464.552 391.407 463.343 391.491C463.259 390.957 463.175 390.395 463.287 389.861C463.428 389.327 463.821 388.822 464.355 388.737C465.114 388.625 465.676 389.327 466.125 389.946L466.237 389.327L466.35 389.636L466.378 389.665Z" fill="white"/>
<path d="M464.636 378.286C465.142 378.876 464.636 379.971 463.849 379.971C463.596 379.662 463.4 379.269 463.428 378.876C463.428 378.482 463.681 378.061 464.074 377.977C464.467 377.892 464.917 378.286 464.776 378.679L464.608 378.314L464.636 378.286Z" fill="white"/>
<path d="M446.963 388.569C447.469 389.159 446.963 390.255 446.176 390.255C445.923 389.946 445.727 389.552 445.755 389.159C445.755 388.766 446.008 388.344 446.401 388.26C446.794 388.176 447.244 388.569 447.104 388.962L446.935 388.597L446.963 388.569Z" fill="white"/>
<path d="M466.743 383.455C467.024 383.034 467.726 383.259 467.979 383.708C468.232 384.13 468.26 384.663 468.485 385.113C468.71 385.591 469.131 385.928 469.637 386.068C469.918 386.153 470.283 386.124 470.48 385.928C470.62 385.787 470.677 385.563 470.705 385.366C470.901 384.411 470.986 383.371 470.649 382.444C470.311 381.517 469.468 380.73 468.457 380.702C467.783 380.702 467.08 381.067 466.743 381.657C466.406 382.247 466.406 383.034 466.743 383.624V383.427V383.455Z" fill="white"/>
<path d="M410.662 399.358C410.943 398.936 411.645 399.161 411.898 399.611C412.151 400.032 412.179 400.566 412.404 401.015C412.629 401.493 413.05 401.83 413.556 401.971C413.837 402.055 414.202 402.027 414.399 401.83C414.539 401.69 414.596 401.465 414.624 401.268C414.82 400.313 414.905 399.273 414.567 398.346C414.23 397.419 413.387 396.632 412.376 396.604C411.702 396.604 410.999 396.97 410.662 397.56C410.325 398.15 410.325 398.936 410.662 399.526V399.33V399.358Z" fill="white"/>
<path d="M411.449 405.792C411.73 405.37 412.432 405.595 412.685 406.045C412.938 406.466 412.966 407 413.163 407.449C413.387 407.927 413.809 408.264 414.315 408.405C414.596 408.489 414.961 408.461 415.157 408.264C415.298 408.124 415.354 407.899 415.382 407.702C415.579 406.747 415.663 405.707 415.326 404.78C414.989 403.853 414.146 403.066 413.134 403.038C412.46 403.038 411.758 403.404 411.421 403.994C411.083 404.584 411.083 405.37 411.421 405.96V405.764L411.449 405.792Z" fill="white"/>
<path d="M420.917 402.561C421.198 402.139 421.901 402.364 422.154 402.814C422.407 403.235 422.435 403.769 422.659 404.218C422.884 404.696 423.306 405.033 423.811 405.174C424.092 405.258 424.458 405.23 424.654 405.033C424.795 404.893 424.851 404.668 424.879 404.471C425.076 403.516 425.16 402.476 424.823 401.549C424.486 400.622 423.643 399.835 422.631 399.807C421.957 399.807 421.255 400.173 420.917 400.763C420.58 401.353 420.58 402.139 420.917 402.729V402.533V402.561Z" fill="white"/>
<path d="M385.094 342.323C385.375 341.901 386.077 342.126 386.33 342.576C386.583 342.997 386.611 343.531 386.836 343.98C387.061 344.458 387.482 344.795 387.988 344.936C388.269 345.02 388.634 344.992 388.831 344.795C388.971 344.655 389.027 344.43 389.056 344.233C389.252 343.278 389.337 342.238 388.999 341.311C388.662 340.384 387.819 339.597 386.808 339.569C386.133 339.569 385.431 339.934 385.094 340.525C384.757 341.115 384.757 341.901 385.094 342.491V342.295V342.323Z" fill="white"/>
<path d="M457.612 378.482C457.359 378.595 457.106 378.679 456.881 378.791C456.684 378.426 456.46 378.033 456.572 377.611C456.684 377.19 457.246 376.937 457.499 377.246C457.584 377.358 457.612 377.527 457.64 377.696C457.696 378.201 457.752 378.679 457.808 379.185L457.612 378.482Z" fill="white"/>
<path d="M406.166 367.132C405.717 367.609 405.211 368.087 404.621 368.312C404.003 368.564 403.244 368.508 402.795 368.031C402.57 367.778 402.458 367.469 402.458 367.132C402.402 366.148 403.273 365.221 404.284 365.221C405.267 365.221 406.166 366.148 406.11 367.132H406.195H406.166Z" fill="white"/>
<path d="M451.796 397.897C452.723 397.812 453.257 396.464 452.61 395.79C452.105 395.677 451.571 395.677 451.065 395.79C451.037 396.351 451.234 396.941 451.599 397.391L451.796 397.897Z" fill="white"/>
<path opacity="0.5" d="M399.536 372.245C399.227 372.47 398.89 372.666 398.524 372.751C398.159 372.835 397.709 372.723 397.541 372.385C397.232 371.852 397.709 371.177 397.681 370.559C397.653 369.941 397.063 369.379 397.232 368.789C397.4 368.199 398.243 368.031 398.777 368.368C399.311 368.677 399.564 369.295 399.761 369.885C399.929 370.391 400.098 370.953 399.957 371.486C399.817 372.02 399.367 372.526 398.805 372.47L399.508 372.273L399.536 372.245Z" fill="white"/>
<path d="M424.261 395.396C424.542 398.009 423.362 400.763 421.254 402.364C418.838 401.296 416.703 399.273 416.253 396.66C415.804 394.076 417.546 391.069 420.187 390.845C422.8 390.592 425.132 394.048 423.502 396.127L424.289 395.424L424.261 395.396Z" fill="white"/>
<path d="M452.835 403.881C452.835 403.516 452.442 403.263 452.077 403.291C451.711 403.319 451.402 403.572 451.177 403.853C451.037 404.022 450.953 404.218 450.925 404.415C450.868 404.893 451.29 405.398 451.796 405.398C452.301 405.398 452.723 404.949 452.723 404.471C452.723 403.965 452.301 403.516 451.824 403.46L452.835 403.881Z" fill="white"/>
<path d="M438.984 399.611C438.478 399.189 438.618 398.374 438.843 397.756C439.068 397.138 439.321 396.38 438.927 395.846C438.815 395.705 438.646 395.593 438.478 395.593C438 395.593 437.944 396.267 437.747 396.689C437.607 397.026 437.298 397.279 437.073 397.56C436.539 398.262 436.483 399.33 436.989 400.06C437.41 400.285 437.944 400.257 438.337 399.976C438.731 399.695 438.899 399.161 438.787 398.712L438.984 399.611Z" fill="white"/>
<path d="M422.519 386.237L421.76 386.321C421.535 385.956 421.592 385.45 421.901 385.169C422.21 384.888 422.772 384.916 423.024 385.282C423.249 385.619 423.024 386.209 422.631 386.265H422.547L422.519 386.237Z" fill="white"/>
<path d="M436.314 391.097C436.567 390.957 436.595 390.592 436.455 390.339C436.286 390.114 436.005 389.974 435.724 389.917C435.5 389.861 435.247 389.805 435.022 389.861C434.572 389.974 434.263 390.423 434.263 390.901C434.263 391.378 434.601 391.772 435.022 391.997C435.219 392.081 435.472 392.137 435.668 392.053C435.865 391.968 436.033 391.716 435.949 391.519L436.314 391.097Z" fill="white"/>
<path d="M439.04 369.182C440.978 370.981 441.877 373.818 441.315 376.403C438.787 377.162 435.837 377.049 433.814 375.364C431.763 373.706 431.144 370.278 432.971 368.396C434.797 366.485 438.815 367.581 438.927 370.222L439.068 369.182H439.04Z" fill="white"/>
<path d="M455.392 381.854C454.886 382.416 453.847 381.657 453.931 380.899C454.015 380.14 454.69 379.606 455.336 379.157C456.066 379.915 456.263 381.18 455.785 382.135L455.392 381.882V381.854Z" fill="white"/>
<path d="M445.221 407.983L444.463 408.068C444.238 407.702 444.294 407.197 444.603 406.916C444.912 406.635 445.474 406.663 445.727 407.028C445.952 407.365 445.727 407.955 445.334 408.011H445.249L445.221 407.983Z" fill="white"/>
<path d="M441.484 394.497C438.927 395.621 436.09 396.127 433.308 395.986C432.858 395.986 432.409 395.93 431.987 395.705C431.201 395.312 430.835 394.385 430.779 393.514C430.611 391.378 432.016 389.299 433.954 388.428C435.893 387.557 438.253 387.838 440.079 388.962C441.063 389.58 441.962 390.507 442.215 391.631C442.468 392.783 441.934 394.132 440.838 394.525C440.501 394.329 440.529 393.767 440.866 393.598L441.512 394.469L441.484 394.497Z" fill="white"/>
<path d="M420.777 353.308C419.428 355.584 416.843 357.073 414.202 357.073C412.91 354.769 412.404 351.875 413.612 349.515C414.82 347.155 417.995 345.807 420.243 347.183C422.491 348.56 422.266 352.718 419.737 353.393L420.805 353.308H420.777Z" fill="white"/>
<path d="M391.865 393.879C391.219 394.919 390.039 395.621 388.831 395.705C388.746 395.171 388.662 394.609 388.775 394.076C388.915 393.542 389.308 393.036 389.842 392.952C390.601 392.839 391.163 393.542 391.612 394.16L391.725 393.542L391.837 393.851L391.865 393.879Z" fill="white"/>
<path d="M383.436 391.097C383.155 391.266 382.818 391.463 382.481 391.435C382.144 391.407 381.891 391.154 381.638 390.929C380.964 390.339 380.205 389.805 379.447 389.327C380.936 389.075 382.425 388.85 383.914 388.597C384.026 388.597 384.167 388.569 384.251 388.485C384.616 388.26 384.476 387.726 384.673 387.333C384.925 386.771 385.712 386.743 386.302 386.883C390.545 387.866 385.038 390.114 383.436 391.097Z" fill="white"/>
<path d="M436.23 400.763L434.938 401.044C434.797 400.173 435.134 399.161 435.949 398.796C436.764 398.431 437.916 399.133 437.747 400.004C437.635 400.538 437.242 401.324 437.775 401.437L436.258 400.791L436.23 400.763Z" fill="white"/>
<path d="M402.345 383.287C402.711 383.287 403.076 383.146 403.385 382.921C402.711 382.247 401.615 382.331 400.66 382.5C400.126 382.584 399.508 382.809 399.423 383.343C399.367 383.708 399.592 384.045 399.648 384.411C399.789 385.141 399.311 386.096 399.901 386.518C400.238 386.771 400.744 386.63 401.025 386.321C401.306 386.012 401.446 385.591 401.559 385.197C401.812 384.326 402.064 383.427 402.345 382.556V383.259V383.287Z" fill="white"/>
<path d="M401.503 368.817C400.997 369.379 399.957 368.621 400.042 367.862C400.126 367.103 400.8 366.57 401.446 366.12C402.177 366.879 402.374 368.143 401.896 369.098L401.503 368.845V368.817Z" fill="white"/>
<path opacity="0.5" d="M387.932 378.145C388.128 377.836 387.988 377.415 387.679 377.218C387.37 377.021 386.976 377.049 386.639 377.134C386.443 377.19 386.246 377.274 386.077 377.443C385.74 377.808 385.796 378.454 386.19 378.735C386.583 379.044 387.201 378.932 387.51 378.538C387.819 378.145 387.763 377.527 387.398 377.19L387.932 378.117V378.145Z" fill="white"/>
<path d="M390.123 382.5C390.629 383.09 390.123 384.186 389.336 384.186C389.084 383.877 388.887 383.483 388.915 383.09C388.915 382.697 389.168 382.275 389.561 382.191C389.955 382.107 390.404 382.5 390.264 382.893L390.095 382.528L390.123 382.5Z" fill="white"/>
<path d="M399.423 397.082C399.199 397.981 398.552 398.768 397.709 399.133C397.457 398.402 397.232 397.7 396.979 396.97C396.867 396.632 396.754 396.267 396.81 395.93C396.951 395.256 397.85 394.89 398.468 395.199C399.114 395.48 399.423 396.267 399.339 396.941L399.423 397.082Z" fill="white"/>
<path opacity="0.5" d="M391.95 368.115C392.231 367.665 392.231 367.047 391.95 366.598C391.641 366.148 391.079 365.923 390.545 366.036C390.18 366.12 389.814 366.457 389.955 366.794C390.011 366.935 390.123 367.047 390.264 367.132L391.865 368.368L392.034 368.059L391.978 368.143L391.95 368.115Z" fill="white"/>
<path opacity="0.5" d="M386.415 359.152C385.796 358.927 385.656 358.113 385.684 357.438C385.684 356.764 385.684 355.977 385.122 355.612C384.982 355.5 384.785 355.444 384.616 355.528C384.167 355.696 384.335 356.343 384.307 356.792C384.279 357.157 384.054 357.495 383.942 357.86C383.661 358.703 383.97 359.714 384.673 360.248C385.15 360.332 385.656 360.107 385.909 359.714C386.162 359.321 386.19 358.759 385.909 358.366L386.386 359.152H386.415Z" fill="white"/>
<path opacity="0.5" d="M416.394 411.692C415.776 411.467 415.635 410.652 415.663 409.978C415.663 409.304 415.663 408.517 415.101 408.152C414.961 408.039 414.764 407.983 414.596 408.068C414.146 408.236 414.315 408.882 414.287 409.332C414.258 409.697 414.034 410.034 413.921 410.399C413.64 411.242 413.949 412.254 414.652 412.788C415.129 412.872 415.635 412.647 415.888 412.254C416.141 411.86 416.169 411.299 415.888 410.905L416.366 411.692H416.394Z" fill="white"/>
<path opacity="0.5" d="M380.823 362.777L380.121 363.114C379.784 362.861 379.671 362.355 379.868 361.99C380.065 361.625 380.627 361.484 380.964 361.709C381.301 361.962 381.301 362.58 380.936 362.777H380.851H380.823Z" fill="white"/>
<path d="M392.202 387.67C392.483 387.248 393.186 387.473 393.439 387.923C393.691 388.344 393.72 388.878 393.916 389.327C394.141 389.805 394.562 390.142 395.068 390.283C395.349 390.367 395.714 390.339 395.911 390.142C396.052 390.002 396.108 389.777 396.136 389.58C396.333 388.625 396.417 387.585 396.08 386.658C395.743 385.731 394.9 384.944 393.888 384.916C393.214 384.916 392.511 385.282 392.174 385.872C391.837 386.462 391.837 387.248 392.174 387.838V387.642L392.202 387.67Z" fill="white"/>
<path d="M387.819 400.313C387.623 400.903 386.864 401.212 386.274 400.987C385.684 400.791 385.291 400.173 385.235 399.554C385.206 399.273 385.263 398.936 385.516 398.852C385.684 398.796 385.881 398.908 386.049 398.992C386.696 399.386 387.37 399.779 388.016 400.201L387.819 400.313Z" fill="white"/>
<path d="M410.718 374.521C410.943 373.256 409.65 371.992 408.414 372.273C408.358 373.256 408.358 374.296 408.864 375.139C409.369 375.982 410.634 376.431 411.364 375.785C411.449 375.223 411.533 374.633 411.589 374.071L410.718 374.521Z" fill="white"/>
<path opacity="0.5" d="M383.071 382.725L382.34 383.034C382.144 382.669 381.919 382.275 382.031 381.854C382.144 381.432 382.706 381.18 382.959 381.489C383.043 381.601 383.071 381.77 383.099 381.938L383.268 383.427L383.071 382.725Z" fill="white"/>
<path d="M453.06 391.856C452.61 392.334 452.105 392.811 451.515 393.036C450.897 393.289 450.138 393.233 449.688 392.755C449.464 392.502 449.351 392.193 449.351 391.856C449.295 390.873 450.166 389.946 451.178 389.946C452.161 389.946 453.06 390.873 453.004 391.856H453.088H453.06Z" fill="white"/>
<path d="M425.638 364.153C425.188 364.238 424.767 364.35 424.317 364.434C424.177 364.125 424.092 363.788 424.092 363.451C424.654 363.086 425.469 363.282 425.806 363.844L425.638 364.153Z" fill="white"/>
<path d="M487.31 386.827C487.507 386.518 487.366 386.096 487.057 385.9C486.748 385.703 486.355 385.731 486.017 385.815C485.821 385.872 485.624 385.956 485.455 386.124C485.118 386.49 485.175 387.136 485.568 387.417C485.961 387.726 486.579 387.614 486.888 387.22C487.197 386.827 487.141 386.209 486.776 385.872L487.31 386.799V386.827Z" fill="white"/>
<path d="M418.332 372.442C417.883 372.526 417.461 372.61 417.012 372.723C416.871 372.414 416.787 372.076 416.759 371.739C417.321 371.374 418.136 371.571 418.473 372.133L418.304 372.442H418.332Z" fill="white"/>
<path d="M424.57 408.517C424.429 408.995 423.699 408.995 423.306 408.658C422.912 408.32 422.744 407.815 422.406 407.449C422.069 407.056 421.535 406.859 421.03 406.859C420.721 406.859 420.412 406.972 420.271 407.253C420.187 407.421 420.187 407.646 420.215 407.843C420.299 408.826 420.524 409.838 421.142 410.624C421.732 411.411 422.8 411.917 423.727 411.636C424.373 411.439 424.935 410.877 425.076 410.203C425.244 409.529 424.991 408.798 424.486 408.32L424.542 408.489L424.57 408.517Z" fill="white"/>
<path d="M441.231 387.782C441.456 387.501 441.709 387.192 442.046 386.995C442.383 386.799 442.833 386.799 443.114 387.052C443.563 387.473 443.31 388.26 443.535 388.822C443.76 389.412 444.462 389.777 444.49 390.395C444.49 391.013 443.732 391.406 443.142 391.266C442.552 391.126 442.102 390.62 441.737 390.114C441.4 389.665 441.119 389.187 441.063 388.625C441.006 388.091 441.344 387.473 441.877 387.361L441.259 387.754L441.231 387.782Z" fill="white"/>
<path d="M412.994 393.626C415.27 393.401 417.574 393.682 419.709 394.497C420.046 394.638 420.412 394.778 420.665 395.031C421.17 395.537 421.226 396.323 421.058 397.026C420.665 398.711 419.063 400.004 417.349 400.201C415.635 400.397 413.865 399.611 412.741 398.29C412.123 397.56 411.674 396.632 411.758 395.677C411.842 394.722 412.601 393.795 413.556 393.767C413.753 393.991 413.612 394.413 413.303 394.469L413.022 393.626H412.994Z" fill="white"/>
<path d="M419.765 408.686C419.765 409.023 419.765 409.388 419.569 409.669C419.372 409.95 419.035 410.062 418.726 410.147C417.855 410.456 417.04 410.821 416.253 411.27C416.787 409.866 417.321 408.433 417.855 407.028C417.883 406.916 417.939 406.803 417.939 406.691C417.939 406.269 417.377 406.101 417.152 405.764C416.787 405.258 417.152 404.584 417.574 404.134C420.524 400.931 419.765 406.831 419.793 408.714L419.765 408.686Z" fill="white"/>
<path d="M412.882 394.16C412.657 394.272 412.432 394.413 412.207 394.525C411.87 394.3 411.702 393.795 411.87 393.401C412.039 393.008 412.573 392.839 412.938 393.064C413.303 393.289 413.331 393.907 412.966 394.132H412.882V394.16Z" fill="white"/>
<path d="M412.938 406.438C413.359 406.887 413.247 407.702 412.769 408.096C412.292 408.489 411.589 408.545 410.999 408.292C410.746 408.18 410.465 407.955 410.55 407.702C410.606 407.506 410.775 407.421 410.943 407.309C411.617 406.944 412.292 406.578 412.966 406.185V406.41L412.938 406.438Z" fill="white"/>
<path d="M410.999 398.402C411.561 399.498 411.589 400.847 411.084 401.943C410.578 401.746 410.044 401.549 409.651 401.156C409.257 400.791 409.004 400.173 409.229 399.667C409.51 398.964 410.409 398.796 411.14 398.74L410.662 398.346L410.999 398.402Z" fill="white"/>
<path d="M407.206 394.357C407.375 394.019 407.459 393.654 407.403 393.289C406.475 393.57 405.998 394.553 405.689 395.452C405.52 395.958 405.38 396.604 405.801 396.941C406.082 397.194 406.504 397.166 406.841 397.279C407.543 397.531 408.133 398.402 408.808 398.093C409.201 397.925 409.313 397.419 409.201 396.998C409.088 396.604 408.779 396.267 408.498 395.958C407.852 395.284 407.234 394.638 406.588 393.963L407.206 394.329V394.357Z" fill="white"/>
<path d="M417.714 403.713C418.389 404.359 418.726 405.314 418.642 406.241L416.422 405.792C416.085 405.735 415.691 405.651 415.439 405.398C414.905 404.949 415.045 403.994 415.635 403.572C416.197 403.179 417.04 403.263 417.602 403.684H417.771L417.714 403.713Z" fill="white"/>
<path d="M405.97 405.314C405.745 404.865 406.307 404.359 406.785 404.359C407.29 404.359 407.768 404.584 408.246 404.64C408.752 404.668 409.285 404.499 409.651 404.106C409.875 403.881 410.016 403.572 409.932 403.291C409.875 403.094 409.707 402.954 409.566 402.814C408.836 402.167 407.965 401.577 407.01 401.409C406.026 401.24 404.93 401.577 404.425 402.448C404.059 403.038 404.059 403.825 404.425 404.415C404.79 405.005 405.436 405.398 406.139 405.37L405.97 405.286V405.314Z" fill="white"/>
<path d="M429.262 382.865C429.431 383.512 429.599 384.158 429.515 384.804C429.431 385.45 428.981 386.096 428.363 386.237C428.054 386.293 427.717 386.237 427.408 386.096C426.537 385.647 426.143 384.411 426.649 383.568C427.127 382.725 428.391 382.416 429.206 382.95L429.262 382.865Z" fill="white"/>
<path d="M435.05 396.323C435.612 397.419 435.64 398.768 435.134 399.863C434.629 399.667 434.095 399.47 433.701 399.077C433.308 398.683 433.055 398.093 433.28 397.588C433.561 396.885 434.46 396.717 435.219 396.66L434.741 396.267L435.078 396.323H435.05Z" fill="white"/>
<path d="M405.043 393.486C404.396 393.289 404.228 392.502 404.2 391.828C404.172 391.154 404.116 390.367 403.526 390.03C403.357 389.946 403.16 389.889 402.992 389.974C402.57 390.17 402.767 390.788 402.767 391.266C402.767 391.631 402.57 391.997 402.486 392.362C402.261 393.233 402.655 394.216 403.385 394.694C403.863 394.75 404.34 394.497 404.593 394.076C404.818 393.654 404.79 393.12 404.509 392.727L405.043 393.486Z" fill="white"/>
<path d="M452.33 373.594C452.077 373.566 451.824 373.537 451.571 373.481C451.43 373.088 451.571 372.582 451.964 372.385C452.33 372.189 452.863 372.357 453.032 372.751C453.201 373.144 452.835 373.65 452.414 373.622H452.33V373.594Z" fill="white"/>
<path d="M421.002 398.374L420.889 399.161C420.468 399.161 420.018 399.161 419.709 398.852C419.4 398.571 419.456 397.925 419.878 397.869C420.018 397.869 420.187 397.897 420.327 397.953L421.704 398.543L421.002 398.346V398.374Z" fill="white"/>
<path style="mix-blend-mode:multiply" opacity="0.5" d="M325.641 586.028C262.361 586.028 211.063 574.606 211.063 560.517C211.063 546.427 262.361 535.006 325.641 535.006C388.921 535.006 440.22 546.427 440.22 560.517C440.22 574.606 388.921 586.028 325.641 586.028Z" fill="url(#paint0_radial_32_6)"/>
<path d="M265.88 435.068C265.88 435.068 271.106 442.991 278.158 453.134C289.565 469.598 305.665 491.934 311.79 495.783C314.74 497.638 316.454 490.81 317.381 480.274C319.601 455.494 317.578 410.203 317.578 410.203C317.578 410.203 279.422 418.351 265.88 435.068Z" fill="url(#paint1_linear_32_6)"/>
<path style="mix-blend-mode:multiply" opacity="0.5" d="M265.88 435.068C265.88 435.068 271.106 442.991 278.158 453.134C278.158 453.134 288.497 451.476 305.974 461.928C312.604 465.917 315.892 472.998 317.381 480.274C319.601 455.494 317.578 410.203 317.578 410.203C317.578 410.203 279.422 418.351 265.88 435.068Z" fill="url(#paint2_linear_32_6)"/>
<path d="M193.84 392.221H193.952C204.994 389.187 218.789 378.398 229.354 362.664C252.225 328.696 276.472 257.669 247.364 243.115C244.498 241.682 230.674 259.046 215.924 282.197C198.532 309.45 179.763 344.739 175.886 366.794C172.008 388.653 181.084 395.649 193.84 392.221Z" fill="url(#paint3_linear_32_6)"/>
<path d="M208.956 384.354C208.956 384.354 199.009 346.116 186.956 346.818C174.902 347.52 173.132 382.641 181.027 389.693C188.923 396.773 204.544 388.765 208.956 384.354Z" fill="url(#paint4_linear_32_6)"/>
<path style="mix-blend-mode:multiply" opacity="0.3" d="M193.84 392.221H193.952C204.994 389.187 218.789 378.398 229.354 362.664C252.225 328.696 276.472 257.669 247.364 243.115C244.498 241.682 230.674 259.046 215.924 282.197C215.924 282.197 222.723 333.107 217.862 351.173C212.973 369.295 196.733 380.337 196.733 380.337L193.84 392.221Z" fill="url(#paint5_linear_32_6)"/>
<path d="M368.966 359.798C370.54 405.904 350.31 431.05 305.384 441.867C261.328 452.459 222.217 411.776 222.105 352.297C222.049 314.339 224.465 280.006 238.148 255.562V255.478C245.875 241.654 257.226 231.006 273.747 224.628C286.783 219.599 299.792 223.982 311.79 233.984C343.089 260.057 367.73 324.229 368.966 359.77V359.798Z" fill="url(#paint6_linear_32_6)"/>
<path style="mix-blend-mode:multiply" opacity="0.3" d="M324.489 283.799C324.489 283.799 337.864 316.671 343.651 339.373C350.535 366.317 340.954 396.267 340.954 396.267L366.578 388.147C366.578 388.147 373.49 351.173 364.584 330.747C357.138 313.637 354.834 305.264 354.834 305.264L324.489 283.799Z" fill="url(#paint7_linear_32_6)"/>
<path d="M221.684 360.107C221.684 360.107 223.454 324.51 255.006 316.446C292.825 306.781 328.957 342.07 333.93 371.009C338.903 399.948 337.021 428.718 301.591 438.945C301.591 438.945 234.327 454.538 221.684 360.107Z" fill="url(#paint8_linear_32_6)"/>
<path d="M222.611 363.76C222.611 363.76 224.381 328.162 255.933 320.099C293.752 310.434 329.884 345.722 334.857 374.661C339.83 403.6 337.948 432.371 302.518 442.598C302.518 442.598 235.254 458.191 222.611 363.76Z" fill="url(#paint9_radial_32_6)"/>
<path d="M351.715 315.884C350.086 316.306 347.978 315.379 345.59 313.468C334.969 304.955 318.87 276.606 314.656 259.664C313.026 253.089 313.166 248.229 316.145 246.908C320.977 244.745 335.588 259.158 346.686 281.832C353.12 295.037 358.739 314.086 351.743 315.884H351.715Z" fill="url(#paint10_linear_32_6)"/>
<path d="M345.59 313.496C334.97 304.983 318.87 276.634 314.656 259.692C321.258 264.834 330.39 276.409 337.948 291.834C341.235 298.549 344.298 306.781 345.59 313.468V313.496Z" fill="#6340A2"/>
<path style="mix-blend-mode:screen" opacity="0.72" d="M226.319 359.995C233.4 367.834 248.151 351.707 270.937 348.588C293.723 345.497 308.615 354.151 314.178 349.319C319.741 344.486 291.251 316.502 256.889 323.863C229.466 329.736 223.903 357.298 226.319 359.995Z" fill="url(#paint11_linear_32_6)"/>
<path style="mix-blend-mode:screen" opacity="0.72" d="M271.668 435.742C271.668 435.742 283.328 442.766 298.865 439.395C314.403 436.023 317.578 427.285 317.578 427.285C317.578 427.285 310.02 426.049 299.708 430.938C289.397 435.826 279.169 436.922 271.668 435.742Z" fill="url(#paint12_linear_32_6)"/>
<path d="M296.842 283.827C294.173 284.585 294.988 306.472 297.376 306.781C299.764 307.09 304.007 306.079 303.951 296.976C303.894 287.872 299.399 283.096 296.842 283.827Z" fill="white"/>
<path d="M320.247 535.905C334.829 536.27 395.546 402.195 380.964 391.631C356.155 373.622 322.242 409.669 309.626 430.151C306.732 434.871 304.934 438.748 304.653 440.968C303.192 452.74 305.637 535.539 320.247 535.905Z" fill="url(#paint13_linear_32_6)"/>
<path d="M324.489 257.585C316.313 265.817 339.83 311.248 360.257 318.806C380.683 326.364 424.795 317.092 431.819 314.198C438.843 311.305 441.484 287.732 434.882 278.657C428.279 269.582 335.644 246.318 324.461 257.557L324.489 257.585Z" fill="url(#paint14_linear_32_6)"/>
<path style="mix-blend-mode:multiply" opacity="0.5" d="M357.644 256.18C357.644 256.18 326.091 281.129 279.787 278.657C233.484 276.184 230.112 261.35 230.112 261.35C230.112 261.35 245.397 238.873 257.788 234.996C262.677 233.478 313.644 224.403 330.305 254.55C341.207 254.607 357.644 256.152 357.644 256.152V256.18Z" fill="url(#paint15_linear_32_6)"/>
<path d="M246.661 11.8846C246.661 11.8846 223.116 27.7027 212.692 64.34C202.24 100.977 257.282 57.007 257.282 57.007L246.69 11.8846H246.661Z" fill="url(#paint16_linear_32_6)"/>
<path d="M230.084 56.5012C230.084 56.5012 236.49 7.64213 252.871 1.12384C269.251 -5.39445 290.492 18.5996 290.492 18.5996L230.084 56.5012Z" fill="url(#paint17_linear_32_6)"/>
<path d="M361.156 29.4447C434.573 74.0332 430.555 185.49 402.402 225.893C369.641 272.897 197.605 243.34 173.329 166.16C148.744 88.0812 269.869 -25.9889 361.156 29.4447Z" fill="url(#paint18_linear_32_6)"/>
<path style="mix-blend-mode:multiply" opacity="0.5" d="M383.436 146.1C383.436 146.1 392.371 186.333 415.382 196.448C415.382 196.448 420.833 176.724 420.833 164.446C420.833 152.168 383.436 146.1 383.436 146.1Z" fill="url(#paint19_linear_32_6)"/>
<path d="M317.943 40.1212C374.67 68.414 383.352 182.962 345.618 221.004C307.884 259.046 179.903 218.812 170.913 150.792C162.905 90.1603 250.033 6.26542 317.943 40.1212Z" fill="url(#paint20_linear_32_6)"/>
<path style="mix-blend-mode:screen" opacity="0.5" d="M305.946 222.746C305.946 222.746 332.806 226.988 344.663 211.17C356.52 195.324 351.041 183.102 347.304 182.175C343.567 181.248 331.486 205.017 321.933 213.39C312.38 221.762 305.946 222.746 305.946 222.746Z" fill="url(#paint21_linear_32_6)"/>
<path d="M369.81 73.8084C369.81 73.8084 362.195 143.037 404.931 167.509C404.931 167.509 425.891 169.757 438.085 157.029C438.085 157.029 419.091 174.87 399.086 156.299C379.082 137.727 383.886 86.5078 399.086 69.8469C414.287 53.1578 436.23 57.5689 436.23 57.5689L427.464 49.6739C427.464 49.6739 395.125 43.0994 369.838 73.8084H369.81Z" fill="url(#paint22_linear_32_6)"/>
<path d="M427.464 49.6739C427.464 49.6739 403.694 47.4824 387.089 75.0446C369.444 104.321 382.285 154.95 403.694 162.648C425.132 170.347 446.767 88.4184 446.767 88.4184L434.32 55.8269C434.32 55.8269 431.847 51.2472 427.464 49.6458V49.6739Z" fill="url(#paint23_linear_32_6)"/>
<path d="M458.174 119.465C455.111 135.283 448.677 148.207 440.051 156.383L439.995 156.439L437.579 158.574C430.611 164.222 422.351 166.891 413.444 165.767C384.504 162.086 380.627 120.195 384.027 96.4538C387.988 69.0321 411.449 52.5678 430.105 54.984C452.33 57.8498 464.187 88.5308 458.174 119.521V119.465Z" fill="url(#paint24_linear_32_6)"/>
<path style="mix-blend-mode:screen" opacity="0.72" d="M388.718 129.86C388.718 129.86 391.781 155.568 410.662 161.103C429.543 166.666 444.884 153.011 449.717 133.737C449.717 133.737 443.788 150.37 419.203 146.128C394.619 141.885 388.69 129.888 388.69 129.888L388.718 129.86Z" fill="url(#paint25_linear_32_6)"/>
<path style="mix-blend-mode:screen" opacity="0.72" d="M392.203 81.3101C392.427 86.0864 427.071 76.1404 438.085 77.6295C449.098 79.0905 453.791 92.6047 455.533 92.2956C457.275 91.9866 452.611 60.3785 432.128 58.0465C411.645 55.7145 392.034 78.0228 392.174 81.3382L392.203 81.3101Z" fill="url(#paint26_linear_32_6)"/>
<path d="M216.12 128.09C204.348 134.608 187.153 120.083 191.451 102.663C195.75 85.2435 216.008 71.2798 226.038 76.7866C236.069 82.2934 235.704 117.245 216.12 128.09Z" fill="url(#paint27_linear_32_6)"/>
<path d="M322.41 166.975C303.838 179.815 283.777 158.715 284.002 139.947C284.227 121.207 301.478 102.775 318.645 107.468C337.414 112.609 341.488 153.77 322.438 166.947L322.41 166.975Z" fill="url(#paint28_linear_32_6)"/>
<path d="M265.767 173.465C267.509 176.584 245.06 191.756 234.299 187.345C221.683 182.147 223.65 155.456 225.982 153.629C228.314 151.831 262.845 168.211 265.767 173.465Z" fill="#2F95CD"/>
<path style="mix-blend-mode:screen" opacity="0.5" d="M357.644 138.851C347.529 152.646 318.758 105.304 287.739 89.4017C252.337 71.2517 200.892 90.4694 197.408 84.8783C193.924 79.2871 237.811 29.838 294.51 38.6321C351.209 47.4262 366.972 126.095 357.644 138.851Z" fill="url(#paint29_linear_32_6)"/>
<path d="M435.865 161.384C435.865 161.384 437.916 147.701 429.178 143.093C429.178 143.093 416.057 142.391 412.77 155.09C412.77 155.09 438.675 238.03 417.49 251.319C397.794 263.682 345.843 238.283 345.843 238.283L341.657 241.682C341.657 241.682 385.712 269.245 413.584 260.704C441.456 252.162 435.865 161.384 435.865 161.384Z" fill="url(#paint30_linear_32_6)"/>
<path d="M358.852 239.491C363.291 248.566 347.388 252.752 335.812 250.87C322.832 248.763 301.787 237.552 306.676 225.246C311.537 212.912 348.484 218.25 358.852 239.491Z" fill="url(#paint31_linear_32_6)"/>
<path d="M357.644 240.587C357.447 242.778 312.295 230.809 313.419 222.577C314.571 214.317 359.105 223.701 357.644 240.587Z" fill="url(#paint32_linear_32_6)"/>
<path d="M468.232 269.441C468.232 269.441 466.49 263.485 458.848 260.816L454.184 277.758L468.232 269.441Z" fill="url(#paint33_linear_32_6)"/>
<path d="M466.49 225.892C466.49 225.892 442.552 211.254 392.203 212.434C392.203 212.434 371.214 288.996 368.545 344.037C368.545 344.037 398.047 352.212 430.218 351.061C430.218 351.061 453.622 294.335 466.49 225.864V225.892Z" fill="url(#paint34_linear_32_6)"/>
<path d="M392.203 212.434L380.739 208.164C380.739 208.164 363.488 285.091 362.336 342.379L368.545 344.036L392.203 212.434Z" fill="url(#paint35_linear_32_6)"/>
<path style="mix-blend-mode:multiply" opacity="0.5" d="M444.744 310.321L438.647 327.291C438.647 327.291 421.817 306.781 423.643 287.254L444.716 310.321H444.744Z" fill="url(#paint36_linear_32_6)"/>
<path d="M466.49 225.892C466.49 225.892 448.902 211.507 380.739 208.164L392.203 212.434C392.203 212.434 423.193 211.844 466.49 225.892Z" fill="#FF91FF"/>
<path d="M462.585 278.713C462.585 278.713 461.18 307.933 450.222 314.198C450.222 314.198 418.81 296.498 423.193 278.235C426.284 265.367 462.585 278.713 462.585 278.713Z" fill="url(#paint37_linear_32_6)"/>
<path d="M468.232 269.441C468.232 269.441 468.232 293.435 454.437 308.27C454.437 308.27 436.09 300.937 429.908 293.492C419.99 281.523 424.092 274.639 427.408 271.858C432.746 267.418 468.232 269.47 468.232 269.47V269.441Z" fill="url(#paint38_linear_32_6)"/>
<path d="M384.279 235.024C384.279 235.024 380.795 231.933 377.283 232.551C377.283 232.551 370.54 251.544 372.001 267.081L377.283 268.542L384.279 235.024Z" fill="url(#paint39_linear_32_6)"/>
<path d="M384.279 235.024C384.279 235.024 376.075 253.539 374.67 267.84L370.006 266.098C370.006 266.098 373.434 241.598 377.283 232.579C377.283 232.579 381.947 232.495 384.279 235.052V235.024Z" fill="url(#paint40_linear_32_6)"/>
<path d="M416.113 245.813C414.736 252.752 417.771 259.186 422.884 260.198C427.998 261.209 433.28 256.405 434.629 249.493C436.005 242.553 432.971 236.119 427.857 235.108C422.744 234.097 417.462 238.901 416.113 245.813Z" fill="url(#paint41_linear_32_6)"/>
<path d="M416.956 246.234C415.888 251.628 418.248 256.658 422.238 257.444C426.228 258.231 430.33 254.494 431.398 249.1C432.465 243.705 430.105 238.676 426.115 237.89C422.126 237.103 418.024 240.84 416.956 246.234Z" fill="url(#paint42_radial_32_6)"/>
<path d="M421.817 343.727V337.687L387.707 333.051L385.235 338.417C385.235 338.417 404.453 342.379 421.789 343.727H421.817Z" fill="url(#paint43_linear_32_6)"/>
<path style="mix-blend-mode:color-dodge" opacity="0.5" d="M390.461 222.015L437.916 330.522L433.589 342.379C433.589 342.379 395.097 318.16 378.772 288.828C378.772 288.828 388.719 231.624 390.461 222.015Z" fill="url(#paint44_linear_32_6)"/>
<path style="mix-blend-mode:screen" opacity="0.5" d="M265.88 222.549C265.88 222.549 242.054 217.351 225.842 196.448C209.63 175.544 187.574 178.972 187.574 178.972C187.574 178.972 218.34 222.521 265.88 222.549Z" fill="url(#paint45_linear_32_6)"/>
<path d="M368.517 52.3992C368.601 57.0069 340.533 34.221 344.045 32.3386C347.557 30.4562 368.433 47.1452 368.517 52.3992Z" fill="white"/>
<path style="mix-blend-mode:multiply" opacity="0.3" d="M317.578 377.302L318.308 375.926C318.168 376.15 317.915 376.628 317.578 377.302Z" fill="url(#paint46_linear_32_6)"/>
<path style="mix-blend-mode:multiply" opacity="0.3" d="M320.247 535.905C334.829 536.27 395.546 402.195 380.964 391.631C380.964 391.631 362.842 475.779 340.729 497.554C318.645 519.328 304.344 462.265 308.25 437.428C308.643 434.927 309.092 432.483 309.626 430.151C306.732 434.871 304.934 438.748 304.653 440.968C303.192 452.74 305.637 535.539 320.247 535.905Z" fill="url(#paint47_linear_32_6)"/>
<path d="M354.946 414.642C357.166 418.266 351.519 440.35 348.428 439.9C345.365 439.451 344.691 427.819 346.236 424.11C347.782 420.374 354.441 413.855 354.946 414.67V414.642Z" fill="white"/>
<path d="M347.782 443.581C350.367 444.873 347.276 451.532 345.45 451.307C343.623 451.083 345.45 442.373 347.782 443.581Z" fill="white"/>
<path d="M274.842 11.8846C273.1 15.5371 261.412 7.895 263.126 4.72014C264.868 1.54528 276.584 8.23215 274.842 11.8846Z" fill="white"/>
<path d="M465.029 275.229C465.029 277.449 453.313 274.92 454.212 273.066C455.083 271.211 465.029 271.549 465.029 275.229Z" fill="white"/>
<path d="M432.184 154.219C435.247 153.208 436.624 195.886 434.151 196.476C431.679 197.066 427.436 155.793 432.184 154.219Z" fill="url(#paint48_linear_32_6)"/>
<path d="M154.813 372.189C154.813 372.189 164.703 359.517 178.161 358.394C191.62 357.27 196.256 361.231 198.363 370.728C200.47 380.252 179.847 413.546 155.038 438.215C144.811 438.58 142.338 425.937 141.27 417.817C141.608 410.793 144.698 388.119 154.813 372.161V372.189Z" fill="url(#paint49_linear_32_6)"/>
<path d="M188.052 358.787C188.052 358.787 161.247 392.446 152.341 412.169C147.536 422.79 144.726 429.786 144.726 429.786C144.726 429.786 150.458 446.615 161.95 433.298C178.218 414.445 200.189 385.956 197.127 371.599C194.542 359.433 192.547 357.073 188.08 358.787H188.052Z" fill="url(#paint50_linear_32_6)"/>
<path style="mix-blend-mode:multiply" opacity="0.5" d="M165.349 389.889C165.349 389.889 167.962 408.658 179.089 411.973L182.994 367.412C182.994 367.412 168.974 384.326 165.349 389.917V389.889Z" fill="url(#paint51_linear_32_6)"/>
<path d="M176.953 377.752C175.071 381.966 176.953 410.259 179.876 413.574C182.798 416.918 190.131 411.86 192.351 406.241C194.598 400.65 204.91 370.025 194.036 359.517C194.036 359.517 184.821 360.079 176.953 377.724V377.752Z" fill="url(#paint52_linear_32_6)"/>
<path d="M181.898 381.77C180.634 381.938 178.78 391.519 179.735 393.289C180.69 395.059 182.769 394.975 183.865 392.839C184.961 390.704 183.809 381.517 181.898 381.77Z" fill="white"/>
</g>
<defs>
<radialGradient id="paint0_radial_32_6" cx="0" cy="0" r="1" gradientUnits="userSpaceOnUse" gradientTransform="translate(325.641 561.098) rotate(180) scale(114.607 25.2129)">
<stop stop-color="#BE9DEA"/>
<stop offset="0.39" stop-color="#E0BFF5"/>
<stop offset="1" stop-color="white"/>
</radialGradient>
<linearGradient id="paint1_linear_32_6" x1="312.914" y1="496.064" x2="290.325" y2="417.788" gradientUnits="userSpaceOnUse">
<stop stop-color="#CBC1F7"/>
<stop offset="1" stop-color="#D4BEF1"/>
</linearGradient>
<linearGradient id="paint2_linear_32_6" x1="292.15" y1="480.274" x2="292.15" y2="410.203" gradientUnits="userSpaceOnUse">
<stop stop-color="#8DA4E5"/>
<stop offset="1" stop-color="#755CBB"/>
</linearGradient>
<linearGradient id="paint3_linear_32_6" x1="226.038" y1="388.428" x2="208.394" y2="247.864" gradientUnits="userSpaceOnUse">
<stop stop-color="#CBC1F7"/>
<stop offset="1" stop-color="#D4BEF1"/>
</linearGradient>
<linearGradient id="paint4_linear_32_6" x1="186.517" y1="392.373" x2="200.105" y2="350.673" gradientUnits="userSpaceOnUse">
<stop stop-color="#BE9DEA"/>
<stop offset="1" stop-color="#9E8CEF"/>
</linearGradient>
<linearGradient id="paint5_linear_32_6" x1="227.303" y1="392.221" x2="227.303" y2="243.031" gradientUnits="userSpaceOnUse">
<stop stop-color="#9D68C2"/>
<stop offset="1" stop-color="#CCEDFF"/>
</linearGradient>
<linearGradient id="paint6_linear_32_6" x1="306.005" y1="442.183" x2="278.474" y2="223.121" gradientUnits="userSpaceOnUse">
<stop stop-color="#CBC1F7"/>
<stop offset="1" stop-color="#E8DCF7"/>
</linearGradient>
<linearGradient id="paint7_linear_32_6" x1="360.113" y1="391.4" x2="332.15" y2="281.854" gradientUnits="userSpaceOnUse">
<stop stop-color="#9D68C2"/>
<stop offset="1" stop-color="#CCEDFF"/>
</linearGradient>
<linearGradient id="paint8_linear_32_6" x1="228.145" y1="390.493" x2="332.248" y2="363.918" gradientUnits="userSpaceOnUse">
<stop stop-color="#BE9DEA"/>
<stop offset="1" stop-color="#9E8CEF"/>
</linearGradient>
<radialGradient id="paint9_radial_32_6" cx="0" cy="0" r="1" gradientUnits="userSpaceOnUse" gradientTransform="translate(293.982 423.939) rotate(-14.3197) scale(81.1995 81.1978)">
<stop stop-color="#45FFCD"/>
<stop offset="1" stop-color="#22E0FF"/>
</radialGradient>
<linearGradient id="paint10_linear_32_6" x1="320.987" y1="284.703" x2="347.802" y2="277.858" gradientUnits="userSpaceOnUse">
<stop stop-color="#8879EA"/>
<stop offset="1" stop-color="#9E8CEF"/>
</linearGradient>
<linearGradient id="paint11_linear_32_6" x1="224.229" y1="352.549" x2="310.61" y2="330.498" gradientUnits="userSpaceOnUse">
<stop/>
<stop offset="1" stop-color="#D4E2FF"/>
</linearGradient>
<linearGradient id="paint12_linear_32_6" x1="296.74" y1="439.966" x2="294.196" y2="430.003" gradientUnits="userSpaceOnUse">
<stop stop-color="#D4E2FF"/>
<stop offset="1"/>
</linearGradient>
<linearGradient id="paint13_linear_32_6" x1="362.615" y1="526.185" x2="332.053" y2="393.804" gradientUnits="userSpaceOnUse">
<stop stop-color="#CBC1F7"/>
<stop offset="1" stop-color="#E8DCF7"/>
</linearGradient>
<linearGradient id="paint14_linear_32_6" x1="386.33" y1="322.29" x2="377.143" y2="249.24" gradientUnits="userSpaceOnUse">
<stop stop-color="#CBC1F7"/>
<stop offset="1" stop-color="#E8DCF7"/>
</linearGradient>
<linearGradient id="paint15_linear_32_6" x1="299.146" y1="279.472" x2="285.941" y2="227.803" gradientUnits="userSpaceOnUse">
<stop stop-color="#8DA4E5"/>
<stop offset="1" stop-color="#755CBB"/>
</linearGradient>
<linearGradient id="paint16_linear_32_6" x1="230.125" y1="82.0075" x2="245.882" y2="11.7423" gradientUnits="userSpaceOnUse">
<stop stop-color="#45FFCD"/>
<stop offset="1" stop-color="#22E0FF"/>
</linearGradient>
<linearGradient id="paint17_linear_32_6" x1="254.45" y1="62.0085" x2="268.006" y2="1.55799" gradientUnits="userSpaceOnUse">
<stop stop-color="#B9ACF4"/>
<stop offset="1" stop-color="#E1D1F5"/>
</linearGradient>
<linearGradient id="paint18_linear_32_6" x1="309.289" y1="253.146" x2="279.705" y2="17.588" gradientUnits="userSpaceOnUse">
<stop stop-color="#CBC1F7"/>
<stop offset="1" stop-color="#E8DCF7"/>
</linearGradient>
<linearGradient id="paint19_linear_32_6" x1="402.149" y1="196.448" x2="402.149" y2="146.1" gradientUnits="userSpaceOnUse">
<stop stop-color="#8DA4E5"/>
<stop offset="1" stop-color="#755CBB"/>
</linearGradient>
<linearGradient id="paint20_linear_32_6" x1="269.476" y1="235.698" x2="269.476" y2="32.3386" gradientUnits="userSpaceOnUse">
<stop stop-color="#0665BD"/>
<stop offset="1" stop-color="#1A1F77"/>
</linearGradient>
<linearGradient id="paint21_linear_32_6" x1="330.755" y1="221.678" x2="326.119" y2="184.76" gradientUnits="userSpaceOnUse">
<stop/>
<stop offset="1" stop-color="#6A9BFF"/>
</linearGradient>
<linearGradient id="paint22_linear_32_6" x1="403.694" y1="167.677" x2="403.694" y2="49.0838" gradientUnits="userSpaceOnUse">
<stop stop-color="#B9ACF4"/>
<stop offset="1" stop-color="#E1D1F5"/>
</linearGradient>
<linearGradient id="paint23_linear_32_6" x1="412.798" y1="163.154" x2="412.798" y2="49.6177" gradientUnits="userSpaceOnUse">
<stop stop-color="#BE9DEA"/>
<stop offset="1" stop-color="#9E8CEF"/>
</linearGradient>
<linearGradient id="paint24_linear_32_6" x1="421.367" y1="165.992" x2="421.367" y2="54.7031" gradientUnits="userSpaceOnUse">
<stop stop-color="#45FFCD"/>
<stop offset="1" stop-color="#22E0FF"/>
</linearGradient>
<linearGradient id="paint25_linear_32_6" x1="419.232" y1="162.339" x2="419.232" y2="129.86" gradientUnits="userSpaceOnUse">
<stop stop-color="#D4E2FF"/>
<stop offset="1"/>
</linearGradient>
<linearGradient id="paint26_linear_32_6" x1="392.203" y1="75.0446" x2="455.898" y2="75.0446" gradientUnits="userSpaceOnUse">
<stop/>
<stop offset="1" stop-color="#D4E2FF"/>
</linearGradient>
<linearGradient id="paint27_linear_32_6" x1="198.184" y1="125.085" x2="228.611" y2="78.4793" gradientUnits="userSpaceOnUse">
<stop stop-color="#45FFCD"/>
<stop offset="1" stop-color="#22E0FF"/>
</linearGradient>
<linearGradient id="paint28_linear_32_6" x1="296.696" y1="166.42" x2="324.285" y2="109.979" gradientUnits="userSpaceOnUse">
<stop stop-color="#45FFCD"/>
<stop offset="1" stop-color="#22E0FF"/>
</linearGradient>
<linearGradient id="paint29_linear_32_6" x1="360.144" y1="89.4579" x2="197.211" y2="89.4579" gradientUnits="userSpaceOnUse">
<stop/>
<stop offset="1" stop-color="#6A9BFF"/>
</linearGradient>
<linearGradient id="paint30_linear_32_6" x1="404.451" y1="262.948" x2="378.382" y2="154.701" gradientUnits="userSpaceOnUse">
<stop stop-color="#BE9DEA"/>
<stop offset="1" stop-color="#9E8CEF"/>
</linearGradient>
<linearGradient id="paint31_linear_32_6" x1="332.222" y1="250.973" x2="333.456" y2="219.136" gradientUnits="userSpaceOnUse">
<stop stop-color="#DD1A8F"/>
<stop offset="1" stop-color="#FE117E"/>
</linearGradient>
<linearGradient id="paint32_linear_32_6" x1="334.41" y1="235.584" x2="338.02" y2="222.532" gradientUnits="userSpaceOnUse">
<stop stop-color="#D93DE3"/>
<stop offset="1" stop-color="#FF6DBA"/>
</linearGradient>
<linearGradient id="paint33_linear_32_6" x1="460.731" y1="278.404" x2="462.473" y2="261.181" gradientUnits="userSpaceOnUse">
<stop stop-color="#BE9DEA"/>
<stop offset="1" stop-color="#9E8CEF"/>
</linearGradient>
<linearGradient id="paint34_linear_32_6" x1="430.639" y1="350.976" x2="402.656" y2="210.355" gradientUnits="userSpaceOnUse">
<stop stop-color="#D93DE3"/>
<stop offset="1" stop-color="#FF6DBA"/>
</linearGradient>
<linearGradient id="paint35_linear_32_6" x1="381.919" y1="343.081" x2="372.395" y2="208.754" gradientUnits="userSpaceOnUse">
<stop stop-color="#A242EA"/>
<stop offset="1" stop-color="#FE117E"/>
</linearGradient>
<linearGradient id="paint36_linear_32_6" x1="444.744" y1="307.287" x2="423.531" y2="307.287" gradientUnits="userSpaceOnUse">
<stop stop-color="#8DA4E5"/>
<stop offset="1" stop-color="#755CBB"/>
</linearGradient>
<linearGradient id="paint37_linear_32_6" x1="447.281" y1="314.62" x2="441.39" y2="271.444" gradientUnits="userSpaceOnUse">
<stop stop-color="#BE9DEA"/>
<stop offset="1" stop-color="#9E8CEF"/>
</linearGradient>
<linearGradient id="paint38_linear_32_6" x1="457.761" y1="307.03" x2="442.217" y2="266.012" gradientUnits="userSpaceOnUse">
<stop stop-color="#CBC1F7"/>
<stop offset="1" stop-color="#E8DCF7"/>
</linearGradient>
<linearGradient id="paint39_linear_32_6" x1="381.442" y1="267.728" x2="374.558" y2="233.113" gradientUnits="userSpaceOnUse">
<stop stop-color="#D93DE3"/>
<stop offset="1" stop-color="#FF6DBA"/>
</linearGradient>
<linearGradient id="paint40_linear_32_6" x1="378.323" y1="267.587" x2="375.85" y2="232.664" gradientUnits="userSpaceOnUse">
<stop stop-color="#B31A8F"/>
<stop offset="1" stop-color="#92117E"/>
</linearGradient>
<linearGradient id="paint41_linear_32_6" x1="423.79" y1="260.33" x2="426.957" y2="234.979" gradientUnits="userSpaceOnUse">
<stop stop-color="#B31A8F"/>
<stop offset="1" stop-color="#FE117E"/>
</linearGradient>
<radialGradient id="paint42_radial_32_6" cx="0" cy="0" r="1" gradientUnits="userSpaceOnUse" gradientTransform="translate(424.183 247.662) rotate(-168.78) scale(8.76618 8.76598)">
<stop stop-color="#45FFCD"/>
<stop offset="1" stop-color="#22E0FF"/>
</radialGradient>
<linearGradient id="paint43_linear_32_6" x1="421.817" y1="338.389" x2="385.235" y2="338.389" gradientUnits="userSpaceOnUse">
<stop stop-color="#B31A8F"/>
<stop offset="1" stop-color="#92117E"/>
</linearGradient>
<linearGradient id="paint44_linear_32_6" x1="408.358" y1="342.379" x2="408.358" y2="222.015" gradientUnits="userSpaceOnUse">
<stop/>
<stop offset="1" stop-color="#6A9BFF"/>
</linearGradient>
<linearGradient id="paint45_linear_32_6" x1="230.028" y1="227.044" x2="223.426" y2="174.477" gradientUnits="userSpaceOnUse">
<stop/>
<stop offset="1" stop-color="#6A9BFF"/>
</linearGradient>
<linearGradient id="paint46_linear_32_6" x1="317.943" y1="377.302" x2="317.943" y2="375.954" gradientUnits="userSpaceOnUse">
<stop stop-color="#9D68C2"/>
<stop offset="1" stop-color="#CCEDFF"/>
</linearGradient>
<linearGradient id="paint47_linear_32_6" x1="337.558" y1="536.843" x2="345.527" y2="389.694" gradientUnits="userSpaceOnUse">
<stop stop-color="#9D68C2"/>
<stop offset="1" stop-color="#CCEDFF"/>
</linearGradient>
<linearGradient id="paint48_linear_32_6" x1="432.718" y1="196.476" x2="432.718" y2="154.191" gradientUnits="userSpaceOnUse">
<stop stop-color="#CBC1F7"/>
<stop offset="1" stop-color="#E8DCF7"/>
</linearGradient>
<linearGradient id="paint49_linear_32_6" x1="161.89" y1="439.655" x2="176.38" y2="356.695" gradientUnits="userSpaceOnUse">
<stop stop-color="#CBC1F7"/>
<stop offset="1" stop-color="#E8DCF7"/>
</linearGradient>
<linearGradient id="paint50_linear_32_6" x1="172.941" y1="437.371" x2="168.739" y2="359.423" gradientUnits="userSpaceOnUse">
<stop stop-color="#BE9DEA"/>
<stop offset="1" stop-color="#9E8CEF"/>
</linearGradient>
<linearGradient id="paint51_linear_32_6" x1="175.95" y1="412.115" x2="173.566" y2="367.896" gradientUnits="userSpaceOnUse">
<stop stop-color="#8DA4E5"/>
<stop offset="1" stop-color="#755CBB"/>
</linearGradient>
<linearGradient id="paint52_linear_32_6" x1="181.628" y1="414.552" x2="191.315" y2="359.069" gradientUnits="userSpaceOnUse">
<stop stop-color="#CBC1F7"/>
<stop offset="1" stop-color="#E8DCF7"/>
</linearGradient>
<clipPath id="clip0_32_6">
<rect width="575" height="586" fill="white" transform="matrix(-1 0 0 1 575 0)"/>
</clipPath>
</defs>
</svg>
