<svg width="14" height="14" viewBox="0 0 14 14" fill="none" xmlns="http://www.w3.org/2000/svg">
<path d="M13.0002 8.33337C12.8234 8.33337 12.6538 8.40361 12.5288 8.52864C12.4037 8.65366 12.3335 8.82323 12.3335 9.00004V11.6667C12.3335 11.8435 12.2633 12.0131 12.1382 12.1381C12.0132 12.2631 11.8436 12.3334 11.6668 12.3334H2.3335C2.15668 12.3334 1.98712 12.2631 1.86209 12.1381C1.73707 12.0131 1.66683 11.8435 1.66683 11.6667V9.00004C1.66683 8.82323 1.59659 8.65366 1.47157 8.52864C1.34654 8.40361 1.17697 8.33337 1.00016 8.33337C0.823352 8.33337 0.653782 8.40361 0.528758 8.52864C0.403734 8.65366 0.333496 8.82323 0.333496 9.00004V11.6667C0.333496 12.1971 0.54421 12.7058 0.919283 13.0809C1.29436 13.456 1.80306 13.6667 2.3335 13.6667H11.6668C12.1973 13.6667 12.706 13.456 13.081 13.0809C13.4561 12.7058 13.6668 12.1971 13.6668 11.6667V9.00004C13.6668 8.82323 13.5966 8.65366 13.4716 8.52864C13.3465 8.40361 13.177 8.33337 13.0002 8.33337ZM6.52683 9.47337C6.59023 9.53407 6.66499 9.58164 6.74683 9.61337C6.82663 9.64864 6.91292 9.66686 7.00016 9.66686C7.08741 9.66686 7.1737 9.64864 7.2535 9.61337C7.33533 9.58164 7.41009 9.53407 7.4735 9.47337L10.1402 6.80671C10.2657 6.68117 10.3362 6.51091 10.3362 6.33337C10.3362 6.15584 10.2657 5.98558 10.1402 5.86004C10.0146 5.7345 9.84436 5.66398 9.66683 5.66398C9.48929 5.66398 9.31903 5.7345 9.1935 5.86004L7.66683 7.39337V1.00004C7.66683 0.82323 7.59659 0.65366 7.47157 0.528636C7.34654 0.403612 7.17697 0.333374 7.00016 0.333374C6.82335 0.333374 6.65378 0.403612 6.52876 0.528636C6.40373 0.65366 6.3335 0.82323 6.3335 1.00004V7.39337L4.80683 5.86004C4.74467 5.79788 4.67088 5.74857 4.58966 5.71493C4.50845 5.68129 4.4214 5.66398 4.3335 5.66398C4.24559 5.66398 4.15854 5.68129 4.07733 5.71493C3.99611 5.74857 3.92232 5.79788 3.86016 5.86004C3.798 5.9222 3.7487 5.99599 3.71506 6.07721C3.68142 6.15842 3.6641 6.24547 3.6641 6.33337C3.6641 6.42128 3.68142 6.50833 3.71506 6.58954C3.7487 6.67075 3.798 6.74455 3.86016 6.80671L6.52683 9.47337Z" fill="#444444"/>
</svg>
