<svg width="34" height="34" viewBox="0 0 34 34" fill="none" xmlns="http://www.w3.org/2000/svg">
<path d="M19.5925 26.9167C19.3809 26.9174 19.1718 26.8707 18.9806 26.78C18.7893 26.6892 18.6209 26.5568 18.4875 26.3925L11.645 17.8925C11.4367 17.639 11.3228 17.321 11.3228 16.9929C11.3228 16.6648 11.4367 16.3468 11.645 16.0933L18.7284 7.59332C18.9688 7.30401 19.3144 7.12208 19.689 7.08754C20.0636 7.053 20.4366 7.16869 20.7259 7.40915C21.0152 7.64961 21.1971 7.99515 21.2316 8.36976C21.2662 8.74436 21.1505 9.11734 20.91 9.40665L14.5775 17L20.6975 24.5933C20.8708 24.8013 20.9808 25.0545 21.0146 25.323C21.0485 25.5915 21.0047 25.8641 20.8884 26.1085C20.7722 26.353 20.5883 26.559 20.3587 26.7022C20.129 26.8454 19.8632 26.9198 19.5925 26.9167Z" fill="#A64EED"/>
</svg>
