<svg  height="20" viewBox="0 0 48 48" fill="none" xmlns="http://www.w3.org/2000/svg">
<circle cx="24" cy="24" r="24" fill="#A64EED"/>
<path d="M24 9C22.5166 9 21.0666 9.43987 19.8332 10.264C18.5999 11.0881 17.6386 12.2594 17.0709 13.6299C16.5032 15.0003 16.3547 16.5083 16.6441 17.9632C16.9335 19.418 17.6478 20.7544 18.6967 21.8033C19.7456 22.8522 21.082 23.5665 22.5368 23.8559C23.9917 24.1453 25.4997 23.9968 26.8701 23.4291C28.2406 22.8614 29.4119 21.9001 30.236 20.6668C31.0601 19.4334 31.5 17.9834 31.5 16.5C31.5 14.5109 30.7098 12.6032 29.3033 11.1967C27.8968 9.79018 25.9891 9 24 9V9ZM24 21C23.11 21 22.24 20.7361 21.4999 20.2416C20.7599 19.7471 20.1831 19.0443 19.8425 18.2221C19.5019 17.3998 19.4128 16.495 19.5865 15.6221C19.7601 14.7492 20.1887 13.9474 20.818 13.318C21.4474 12.6887 22.2492 12.2601 23.1221 12.0865C23.995 11.9128 24.8998 12.0019 25.7221 12.3425C26.5443 12.6831 27.2471 13.2599 27.7416 13.9999C28.2361 14.74 28.5 15.61 28.5 16.5C28.5 17.6935 28.0259 18.8381 27.182 19.682C26.3381 20.5259 25.1935 21 24 21V21ZM37.5 37.5V36C37.5 33.2152 36.3938 30.5445 34.4246 28.5754C32.4555 26.6062 29.7848 25.5 27 25.5H21C18.2152 25.5 15.5445 26.6062 13.5754 28.5754C11.6062 30.5445 10.5 33.2152 10.5 36V37.5H13.5V36C13.5 34.0109 14.2902 32.1032 15.6967 30.6967C17.1032 29.2902 19.0109 28.5 21 28.5H27C28.9891 28.5 30.8968 29.2902 32.3033 30.6967C33.7098 32.1032 34.5 34.0109 34.5 36V37.5H37.5Z" fill="white"/>
</svg>
