<svg width="15" height="15" viewBox="0 0 15 15" fill="none" xmlns="http://www.w3.org/2000/svg">
<g clip-path="url(#clip0_1197_212)">
<path fill-rule="evenodd" clip-rule="evenodd" d="M14.7298 12.996C14.2668 14.403 12.4528 15.105 11.1568 14.988C9.38681 14.828 7.46081 13.889 5.99881 12.855C3.84981 11.335 1.83681 8.98396 0.663808 6.48896C-0.165192 4.72596 -0.351192 2.55796 0.881808 0.950958C1.33781 0.356958 1.83181 0.0399578 2.57181 0.00295779C3.59981 -0.0470422 3.74381 0.540958 4.09681 1.45696C4.35981 2.14196 4.71081 2.84096 4.90681 3.55096C5.27381 4.87596 3.99081 4.93096 3.82881 6.01396C3.72881 6.69696 4.55581 7.61296 4.92981 8.09996C5.65069 9.04843 6.53362 9.86196 7.53781 10.503C8.10781 10.862 9.02581 11.509 9.67781 11.152C10.6818 10.602 10.5878 8.90896 11.9908 9.48196C12.7178 9.77796 13.4218 10.205 14.1158 10.579C15.1888 11.156 15.1388 11.754 14.7298 12.996C15.0358 12.068 14.4238 13.924 14.7298 12.996Z" fill="white"/>
</g>
<defs>
<clipPath id="clip0_1197_212">
<rect width="15" height="15" fill="white"/>
</clipPath>
</defs>
</svg>
