<svg width="24" height="24" viewBox="0 0 24 24" fill="none" xmlns="http://www.w3.org/2000/svg">
<path d="M21.3615 3.95079C21.5133 4.31686 21.4508 4.62936 21.174 4.88829L14.5713 11.491V21.4285C14.5713 21.8035 14.3972 22.0669 14.049 22.2186C13.9329 22.2633 13.8213 22.2856 13.7141 22.2856C13.4731 22.2856 13.2722 22.2008 13.1115 22.0311L9.6829 18.6026C9.51325 18.4329 9.42843 18.232 9.42843 17.9999V11.491L2.82575 4.88829C2.54897 4.62936 2.48647 4.31686 2.63825 3.95079C2.79004 3.60257 3.05343 3.42847 3.42843 3.42847H20.5713C20.9463 3.42847 21.2097 3.60257 21.3615 3.95079Z" fill="#D9D9D9"/>
</svg>
