<svg width="24" height="24" viewBox="0 0 24 24" fill="none" xmlns="http://www.w3.org/2000/svg">
<path d="M12 21C16.411 21 20 17.411 20 13C20 9.65 17.928 6.779 15 5.589V7.812C15.9109 8.33792 16.6676 9.09406 17.1941 10.0046C17.7207 10.9152 17.9986 11.9482 18 13C18 16.309 15.309 19 12 19C8.691 19 6 16.309 6 13C6.00133 11.9481 6.2792 10.9151 6.80575 10.0045C7.3323 9.09397 8.08901 8.33784 9 7.812V5.589C6.072 6.779 4 9.65 4 13C4 17.411 7.589 21 12 21Z" fill="#A64EED"/>
<path d="M11 2H13V12H11V2Z" fill="#A64EED"/>
</svg>
