<svg width="20" height="20" viewBox="0 0 32 32" fill="none" xmlns="http://www.w3.org/2000/svg">
<path d="M17.2078 0.398716C16.8417 0.598396 16.5838 0.856316 16.4091 1.19744C16.2593 1.49696 16.251 1.77152 16.251 7.47839V13.4602L16.4423 13.8262C16.6836 14.3171 17.1662 14.6499 17.7236 14.7165C18.5057 14.8077 19.2708 14.2752 19.4955 13.4848C19.5454 13.3184 19.5787 10.9226 19.5787 7.41983V1.63775L19.379 1.20512C19.0961 0.614396 18.6551 0.323196 17.9646 0.289916C17.6155 0.273916 17.3825 0.307196 17.2078 0.398716Z" fill="#A64EED"/>
<path d="M22.1161 0.415366C21.7001 0.606726 21.359 0.997766 21.2425 1.41377C21.1759 1.62177 21.1593 3.60193 21.1759 7.68673L21.2009 13.6432L21.4505 14.001C21.8748 14.6 22.1743 14.6998 23.4886 14.6915C26.3004 14.6666 28.7964 13.6182 30.2354 11.8714C31.8246 9.93281 32.1487 6.70497 30.9759 4.30081C29.8028 1.88833 27.1241 0.415687 23.655 0.299207C22.5903 0.265607 22.4073 0.273926 22.1161 0.415366ZM25.2524 3.83457C26.0761 4.05089 26.8246 4.43361 27.3238 4.89953C28.605 6.09761 28.7049 8.46849 27.5484 9.86625C27.0409 10.4819 25.893 11.0643 24.7615 11.2723L24.487 11.3306V7.50369C24.487 5.39905 24.5202 3.67681 24.5535 3.67681C24.5951 3.67649 24.9113 3.75137 25.2524 3.83457Z" fill="#A64EED"/>
<path d="M4.38745 5.16576C4.09625 5.34048 2.84825 6.67168 2.34905 7.33696C-0.396235 10.9974 -0.354635 16.0557 2.46553 19.816C3.05625 20.5981 11.6418 29.1421 12.4073 29.7078C15.5436 32.0038 19.7116 32.3616 23.1558 30.6314C24.2207 30.0906 24.9945 29.5331 25.9926 28.5766C26.8911 27.7114 27.0991 27.4202 27.0242 27.1123C26.991 27.0042 25.8428 25.7894 24.462 24.4086C21.8831 21.8381 21.7417 21.7299 21.1177 21.7299C20.5353 21.7299 20.3023 21.8963 18.7468 23.4355C17.8982 24.2675 17.0911 25.0163 16.9414 25.0912C16.6169 25.2576 15.8431 25.2659 15.477 25.1078C15.3273 25.0413 13.439 23.2109 11.0761 20.8483C6.79161 16.5382 6.76665 16.5133 6.76665 15.8643C6.76665 15.2819 6.94137 15.049 8.48889 13.4768C9.37081 12.5782 10.0697 11.7965 10.1359 11.6301C10.294 11.2557 10.294 10.5734 10.1442 10.224C10.0777 10.0742 8.91289 8.84288 7.54041 7.47872C4.87832 4.83296 4.90329 4.8496 4.38745 5.16576Z" fill="#A64EED"/>
</svg>
