<svg width="20" height="20" viewBox="0 0 32 31" fill="none" xmlns="http://www.w3.org/2000/svg">
<path d="M18.1667 1.0491C18.1667 0.472868 18.7396 0 19.4557 0C20.1719 0 20.7448 0.4677 20.7448 1.0491V5.63307C20.7448 6.2093 20.1719 6.68217 19.4557 6.68217C18.7396 6.68217 18.1667 6.21447 18.1667 5.63307V1.0491ZM3.74219 20.168H6.69531C6.88281 20.168 7.03646 20.3204 7.03646 20.5065V22.6718C7.03646 22.8579 6.88281 23.0103 6.69531 23.0103H3.74219C3.55469 23.0103 3.40104 22.8579 3.40104 22.6718V20.5065C3.40104 20.3178 3.55469 20.168 3.74219 20.168ZM15.0495 13.9974H18.0026C18.0938 13.9974 18.1745 14.0336 18.237 14.0904C17.0781 14.8088 16.0729 15.7442 15.276 16.8424H15.0495C14.862 16.8424 14.7083 16.6899 14.7083 16.5039V14.3385C14.7083 14.1499 14.862 13.9974 15.0495 13.9974ZM9.39583 13.9974H12.349C12.5365 13.9974 12.6901 14.1499 12.6901 14.3359V16.5013C12.6901 16.6873 12.5365 16.8398 12.349 16.8398H9.39583C9.20833 16.8398 9.05469 16.6873 9.05469 16.5013V14.3359C9.05469 14.1499 9.20833 13.9974 9.39583 13.9974ZM3.74219 13.9974H6.69531C6.88281 13.9974 7.03646 14.1499 7.03646 14.3359V16.5013C7.03646 16.6873 6.88281 16.8398 6.69531 16.8398H3.74219C3.55469 16.8398 3.40104 16.6873 3.40104 16.5013V14.3359C3.40104 14.1499 3.55469 13.9974 3.74219 13.9974ZM9.39583 20.168H12.349C12.5365 20.168 12.6901 20.3204 12.6901 20.5065V22.6718C12.6901 22.8579 12.5365 23.0103 12.349 23.0103H9.39583C9.20833 23.0103 9.05469 22.8579 9.05469 22.6718V20.5065C9.05469 20.3178 9.20833 20.168 9.39583 20.168ZM26.9505 15.385C30 16.6382 32 19.5917 32 22.8837C32 25.124 31.0833 27.155 29.6042 28.6227C28.125 30.0904 26.0807 31 23.8203 31C21.5625 31 19.5182 30.0904 18.0365 28.6227C16.5573 27.1525 15.6406 25.124 15.6406 22.8837C15.6406 19.6176 17.6875 16.5711 20.7318 15.3308C22.6198 14.5659 25.0755 14.6124 26.9505 15.385ZM22.5625 22.6667C22.6641 22.5556 22.7891 22.4599 22.9245 22.3876V18.8579C22.9245 18.4987 23.2188 18.2067 23.5807 18.2067C23.9427 18.2067 24.2396 18.4987 24.2396 18.8579V22.3876C24.4792 22.5168 24.6771 22.7106 24.8047 22.9483H27.3464C27.7109 22.9483 28.0026 23.2403 28.0026 23.5995C28.0026 23.9587 27.7083 24.2506 27.3464 24.2506H24.8047C24.5703 24.6848 24.112 24.9793 23.5807 24.9793C23.1641 24.9793 22.7917 24.7959 22.5365 24.509C22.0651 23.9742 22.0885 23.1757 22.5625 22.6667ZM28.6771 18.1938C25.2891 14.832 19.5755 15.7829 17.5938 20.0155C17.1875 20.8863 16.9583 21.8579 16.9583 22.8811C16.9583 24.7623 17.7266 26.4651 18.9688 27.6977C20.2109 28.9302 21.9271 29.6925 23.8229 29.6925C25.7188 29.6925 27.4349 28.9276 28.6771 27.6977C29.9193 26.4651 30.6875 24.7623 30.6875 22.8811C30.6875 21.814 30.4401 20.8036 30 19.9044C29.6641 19.2248 29.2161 18.7287 28.6771 18.1938ZM6.59635 1.0491C6.59635 0.472868 7.16927 0 7.88542 0C8.59896 0 9.17448 0.4677 9.17448 1.0491V5.63307C9.17448 6.2093 8.59896 6.68217 7.88542 6.68217C7.17188 6.68217 6.59635 6.21447 6.59635 5.63307V1.0491ZM1.41927 10.0233H25.9531V4.74677C25.9531 4.56589 25.8802 4.40827 25.763 4.29199C25.6458 4.17571 25.4792 4.10336 25.3047 4.10336H22.9531C22.5599 4.10336 22.2396 3.78553 22.2396 3.39535C22.2396 3.00517 22.5599 2.68734 22.9531 2.68734H25.3047C25.8802 2.68734 26.3984 2.91731 26.776 3.29199C27.1536 3.66667 27.3854 4.18088 27.3854 4.75194V13.1318C26.9167 12.9716 26.4349 12.8424 25.9375 12.7468V11.4367H25.9531H1.41927V25.1085C1.41927 25.2894 1.49219 25.447 1.60938 25.5633C1.72656 25.6796 1.89323 25.7519 2.06771 25.7519H13.7266C13.8594 26.2429 14.026 26.7235 14.2266 27.1835H2.08073C1.50781 27.1835 0.986979 26.9535 0.609375 26.5788C0.231771 26.2016 0 25.6899 0 25.1189V4.75194C0 4.18346 0.231771 3.66925 0.609375 3.29199C0.986979 2.91731 1.50521 2.68734 2.08073 2.68734H4.59115C4.98438 2.68734 5.30469 3.00517 5.30469 3.39535C5.30469 3.78553 4.98438 4.10336 4.59115 4.10336H2.08073C1.89844 4.10336 1.73958 4.17571 1.6224 4.29199C1.50521 4.40827 1.43229 4.57364 1.43229 4.74677V10.0258H1.41927V10.0233ZM11.2318 4.10078C10.8385 4.10078 10.5182 3.78295 10.5182 3.39276C10.5182 3.00258 10.8385 2.68475 11.2318 2.68475H16.0208C16.4141 2.68475 16.7344 3.00258 16.7344 3.39276C16.7344 3.78295 16.4141 4.10078 16.0208 4.10078H11.2318Z" fill="#A64EED"/>
</svg>
