<svg width="20" height="20" viewBox="0 0 30 30" fill="none" xmlns="http://www.w3.org/2000/svg">
<path d="M8.8125 23.25C8.97353 23.3741 9.17173 23.4401 9.375 23.4375C9.52054 23.4375 9.66409 23.4036 9.79426 23.3385C9.92444 23.2734 10.0377 23.1789 10.125 23.0625C10.6926 22.3057 11.4286 21.6914 12.2748 21.2683C13.1209 20.8453 14.054 20.625 15 20.625C15.946 20.625 16.8791 20.8453 17.7252 21.2683C18.5714 21.6914 19.3074 22.3057 19.875 23.0625C20.026 23.2588 20.2479 23.3883 20.4931 23.4234C20.7383 23.4584 20.9875 23.3962 21.1875 23.25C21.286 23.1761 21.369 23.0836 21.4317 22.9776C21.4944 22.8717 21.5357 22.7545 21.5531 22.6326C21.5705 22.5107 21.5637 22.3866 21.5332 22.2673C21.5026 22.1481 21.4489 22.036 21.375 21.9375C20.5453 20.8238 19.4382 19.947 18.1641 19.3945C18.8612 18.7568 19.3493 17.9232 19.5644 17.0032C19.7795 16.0831 19.7116 15.1196 19.3695 14.2388C19.0274 13.3581 18.4271 12.6013 17.6474 12.0677C16.8676 11.534 15.9448 11.2485 15 11.2485C14.0552 11.2485 13.1324 11.534 12.3526 12.0677C11.5729 12.6013 10.9726 13.3581 10.6305 14.2388C10.2884 15.1196 10.2205 16.0831 10.4356 17.0032C10.6507 17.9232 11.1388 18.7568 11.8359 19.3945C10.5618 19.947 9.45467 20.8238 8.625 21.9375C8.47582 22.1364 8.41176 22.3864 8.44692 22.6326C8.48209 22.8787 8.61359 23.1008 8.8125 23.25ZM15 13.125C15.5563 13.125 16.1 13.29 16.5625 13.599C17.0251 13.908 17.3855 14.3473 17.5984 14.8612C17.8113 15.3751 17.867 15.9406 17.7585 16.4862C17.6499 17.0318 17.3821 17.5329 16.9887 17.9262C16.5954 18.3196 16.0943 18.5874 15.5487 18.696C15.0031 18.8045 14.4376 18.7488 13.9237 18.5359C13.4098 18.323 12.9705 17.9626 12.6615 17.5C12.3525 17.0375 12.1875 16.4938 12.1875 15.9375C12.1906 15.1925 12.4879 14.4789 13.0147 13.9522C13.5414 13.4254 14.255 13.1281 15 13.125ZM23.4375 2.8125H6.5625C6.06522 2.8125 5.58831 3.01004 5.23667 3.36167C4.88504 3.71331 4.6875 4.19022 4.6875 4.6875V25.3125C4.6875 25.8098 4.88504 26.2867 5.23667 26.6383C5.58831 26.99 6.06522 27.1875 6.5625 27.1875H23.4375C23.9348 27.1875 24.4117 26.99 24.7633 26.6383C25.115 26.2867 25.3125 25.8098 25.3125 25.3125V4.6875C25.3125 4.19022 25.115 3.71331 24.7633 3.36167C24.4117 3.01004 23.9348 2.8125 23.4375 2.8125ZM23.4375 25.3125H6.5625V4.6875H23.4375V25.3125ZM10.3125 7.5C10.3125 7.25136 10.4113 7.0129 10.5871 6.83709C10.7629 6.66127 11.0014 6.5625 11.25 6.5625H18.75C18.9986 6.5625 19.2371 6.66127 19.4129 6.83709C19.5887 7.0129 19.6875 7.25136 19.6875 7.5C19.6875 7.74864 19.5887 7.9871 19.4129 8.16291C19.2371 8.33873 18.9986 8.4375 18.75 8.4375H11.25C11.0014 8.4375 10.7629 8.33873 10.5871 8.16291C10.4113 7.9871 10.3125 7.74864 10.3125 7.5Z" fill="#A64EED"/>
</svg>
