<svg version="1.0" xmlns="http://www.w3.org/2000/svg"
 width="18" height="18" viewBox="0 0 128.000000 128.000000"
 preserveAspectRatio="xMidYMid meet">

<g transform="translate(0.000000,128.000000) scale(0.100000,-0.100000)"
fill="#A64EED" stroke="none">
<path d="M39 1241 l-29 -29 0 -572 0 -572 29 -29 30 -29 258 2 258 3 0 25 0
25 -255 5 -255 5 0 565 0 565 328 3 327 2 0 -91 c0 -87 1 -92 29 -120 28 -28
33 -29 120 -29 l91 0 2 -197 3 -198 25 0 25 0 3 220 2 219 -127 128 -128 128
-353 0 -354 0 -29 -29z m830 -209 c-76 -5 -79 -2 -79 70 l0 62 65 -64 66 -65
-52 -3z"/>
<path d="M174 1135 c-4 -8 -4 -22 0 -30 5 -13 30 -15 168 -13 l163 3 0 25 0
25 -163 3 c-138 2 -163 0 -168 -13z"/>
<path d="M174 1015 c-4 -8 -4 -22 0 -30 5 -13 30 -15 168 -13 l163 3 0 25 0
25 -163 3 c-138 2 -163 0 -168 -13z"/>
<path d="M174 835 c-4 -8 -4 -22 0 -30 5 -13 50 -15 348 -13 l343 3 0 25 0 25
-343 3 c-298 2 -343 0 -348 -13z"/>
<path d="M174 695 c-4 -8 -4 -22 0 -30 5 -13 50 -15 348 -13 l343 3 0 25 0 25
-343 3 c-298 2 -343 0 -348 -13z"/>
<path d="M667 572 c-15 -16 -17 -50 -17 -274 0 -234 1 -256 18 -271 16 -15 52
-17 294 -17 254 0 276 1 291 18 15 16 17 48 17 234 0 195 -2 216 -18 231 -15
14 -42 17 -147 17 l-128 0 -43 40 -44 40 -103 0 c-88 0 -106 -3 -120 -18z
m478 -332 c0 -25 -1 -25 -103 -28 -85 -2 -103 0 -108 13 -3 8 -3 22 0 30 5 13
23 15 108 13 102 -3 103 -3 103 -28z m0 -100 c0 -25 -1 -25 -103 -28 -85 -2
-103 0 -108 13 -3 8 -3 22 0 30 5 13 23 15 108 13 102 -3 103 -3 103 -28z"/>
<path d="M174 455 c-4 -8 -4 -22 0 -30 5 -13 32 -15 188 -13 l183 3 0 25 0 25
-183 3 c-156 2 -183 0 -188 -13z"/>
<path d="M174 315 c-4 -8 -4 -22 0 -30 5 -13 32 -15 188 -13 l183 3 0 25 0 25
-183 3 c-156 2 -183 0 -188 -13z"/>
</g>
</svg>