<svg width="15" height="15" viewBox="0 0 26 32" fill="none" xmlns="http://www.w3.org/2000/svg">
<path d="M25 13C25 22.3333 13 30.3333 13 30.3333C13 30.3333 1 22.3333 1 13C1 9.8174 2.26428 6.76516 4.51472 4.51472C6.76516 2.26428 9.8174 1 13 1C16.1826 1 19.2348 2.26428 21.4853 4.51472C23.7357 6.76516 25 9.8174 25 13Z" stroke="#A64EED" stroke-width="2" stroke-linecap="round" stroke-linejoin="round"/>
<path d="M13 17C15.2091 17 17 15.2091 17 13C17 10.7909 15.2091 9 13 9C10.7909 9 9 10.7909 9 13C9 15.2091 10.7909 17 13 17Z" stroke="#A64EED" stroke-width="2" stroke-linecap="round" stroke-linejoin="round"/>
</svg>
