<svg width="20" height="20" viewBox="0 0 22 24" fill="none" xmlns="http://www.w3.org/2000/svg">
<g clip-path="url(#clip0_95_3)">
<path d="M18.2204 9H16.702H13.6653H12.1469H10.6286H9.1102H7.59184H4.5551H3.03673C1.36046 9 0 10.344 0 12V13.5C0 14.6074 0.613136 15.564 1.51837 16.084V21H7.59184V24H13.6653V21H19.7388V16.084C20.6433 15.564 21.2571 14.6089 21.2571 13.5V12C21.2571 10.344 19.896 9 18.2204 9ZM6.07347 19.5H3.03673V13.5H1.51837V12C1.51837 11.1724 2.19898 10.5 3.03673 10.5H4.97548C4.71451 10.9424 4.5551 11.4507 4.5551 12V15C4.5551 16.1074 5.16824 17.064 6.07347 17.584V19.5ZM13.6653 16.5V13.5H12.1469V22.5H9.1102V13.5H7.59184V16.5C6.75408 16.5 6.07347 15.8291 6.07347 15V12C6.07347 11.1724 6.75408 10.5 7.59184 10.5H13.6653C14.5046 10.5 15.1837 11.1724 15.1837 12V15C15.1837 15.8291 14.5046 16.5 13.6653 16.5ZM19.7388 13.5H18.2204V19.5H15.1837V17.584C16.0882 17.064 16.702 16.1089 16.702 15V12C16.702 11.4507 16.5419 10.9424 16.2809 10.5H18.2204C19.0597 10.5 19.7388 11.1724 19.7388 12V13.5ZM7.20484 7.43848C8.03964 8.3877 9.25625 9 10.6286 9C12.0016 9 13.2175 8.3877 14.0523 7.43848C14.5698 8.36573 15.5559 9 16.702 9C18.3776 9 19.7388 7.656 19.7388 6C19.7388 4.344 18.3776 3 16.702 3C16.0941 3 15.5306 3.18019 15.0562 3.48488C14.5876 1.48973 12.789 0 10.6286 0C8.46817 0 6.66881 1.48973 6.20099 3.48488C5.72576 3.18019 5.16231 3 4.5551 3C2.87882 3 1.51837 4.344 1.51837 6C1.51837 7.656 2.87882 9 4.5551 9C5.70128 9 6.68661 8.36573 7.20484 7.43848ZM16.702 4.5C17.5413 4.5 18.2204 5.17017 18.2204 6C18.2204 6.82983 17.5413 7.5 16.702 7.5C15.8643 7.5 15.1837 6.82983 15.1837 6C15.1837 5.17017 15.8643 4.5 16.702 4.5ZM10.6286 1.5C12.3041 1.5 13.6653 2.844 13.6653 4.5C13.6653 6.156 12.3041 7.5 10.6286 7.5C8.95229 7.5 7.59184 6.156 7.59184 4.5C7.59184 2.844 8.95229 1.5 10.6286 1.5ZM4.5551 7.5C3.71734 7.5 3.03673 6.82983 3.03673 6C3.03673 5.17017 3.71734 4.5 4.5551 4.5C5.39509 4.5 6.07347 5.17017 6.07347 6C6.07347 6.82983 5.39509 7.5 4.5551 7.5Z" fill="#A64EED"/>
</g>
<defs>
<clipPath id="clip0_95_3">
<rect width="21.2571" height="24" fill="white"/>
</clipPath>
</defs>
</svg>
