<svg height="20" viewBox="0 0 40 40" fill="none" xmlns="http://www.w3.org/2000/svg">
<g clip-path="url(#clip0_65_351)">
<path d="M29.1666 28.0333L33.2333 30.3833L31.9833 32.55L26.6666 29.4833V23.3333H29.1666V28.0333ZM40 28.3333C40 34.7833 34.7833 40 28.3333 40C21.8833 40 16.6666 34.7833 16.6666 28.3333C16.6666 27.7667 16.7166 27.2167 16.8 26.6667H3.33331V6.66667H33.3333V17.8C37.2666 19.6833 40 23.6833 40 28.3333ZM17.8 23.3333C18.1 22.7333 18.4166 22.1667 18.8 21.6167C18.65 21.6667 18.5 21.6667 18.3333 21.6667C15.5666 21.6667 13.3333 19.4333 13.3333 16.6667C13.3333 13.9 15.5666 11.6667 18.3333 11.6667C21.1 11.6667 23.3333 13.9 23.3333 16.6667C23.3333 17.0833 23.2666 17.5 23.1666 17.8833C24.7333 17.1167 26.4833 16.6667 28.3333 16.6667C28.9 16.6667 29.45 16.7167 30 16.8V13.3333C29.1159 13.3333 28.2681 12.9821 27.643 12.357C27.0178 11.7319 26.6666 10.8841 26.6666 10H9.99998C9.99998 11.85 8.51665 13.3333 6.66665 13.3333V20C7.5507 20 8.39855 20.3512 9.02367 20.9763C9.64879 21.6014 9.99998 22.4493 9.99998 23.3333H17.8ZM36.6666 28.3333C36.6666 23.7333 32.9333 20 28.3333 20C23.7333 20 20 23.7333 20 28.3333C20 32.9333 23.7333 36.6667 28.3333 36.6667C32.9333 36.6667 36.6666 32.9333 36.6666 28.3333Z" fill="#A64EED"/>
</g>
<defs>
<clipPath id="clip0_65_351">
<rect width="40" height="40" fill="white"/>
</clipPath>
</defs>
</svg>
