<svg  height="20" viewBox="0 0 48 48" fill="none" xmlns="http://www.w3.org/2000/svg">
<circle cx="24" cy="24" r="23" stroke="#A64EED" stroke-width="2"/>
<g clip-path="url(#clip0_389_39)">
<path d="M23 16H16C15.4696 16 14.9609 16.2107 14.5858 16.5858C14.2107 16.9609 14 17.4696 14 18V32C14 32.5304 14.2107 33.0391 14.5858 33.4142C14.9609 33.7893 15.4696 34 16 34H30C30.5304 34 31.0391 33.7893 31.4142 33.4142C31.7893 33.0391 32 32.5304 32 32V25" stroke="#A64EED" stroke-width="2" stroke-linecap="round" stroke-linejoin="round"/>
<path d="M28.5 12.6213C28.8978 12.2235 29.4374 12 30 12C30.5626 12 31.1022 12.2235 31.5 12.6213C31.8978 13.0191 32.1213 13.5587 32.1213 14.1213C32.1213 14.6839 31.8978 15.2235 31.5 15.6213L22 25.1213L18 26.1213L19 22.1213L28.5 12.6213Z" stroke="#A64EED" stroke-width="2" stroke-linecap="round" stroke-linejoin="round"/>
</g>
<defs>
<clipPath id="clip0_389_39">
<rect width="24" height="24" fill="white" transform="translate(12 12)"/>
</clipPath>
</defs>
</svg>
