<svg  height="30" viewBox="0 0 48 48" fill="none" xmlns="http://www.w3.org/2000/svg">
<circle cx="24" cy="24" r="23" stroke="#A64EED" stroke-width="2"/>
<path d="M25.5 26.25H34.5V27.75H25.5V26.25ZM25.5 29.25H34.5V30.75H25.5V29.25ZM25.5 32.25H31.5V33.75H25.5V32.25Z" fill="#A64EED"/>
<path d="M30 15C29.3367 15.002 28.6928 15.2239 28.1692 15.6311C27.6456 16.0383 27.2718 16.6076 27.1065 17.25H21V15H15V21H21V18.75H27.1065C27.1764 19.0184 27.2837 19.2757 27.4253 19.5143L19.5143 27.4253C19.057 27.1497 18.5338 27.0028 18 27C17.4384 26.9979 16.8875 27.1535 16.41 27.449C15.9325 27.7445 15.5475 28.1682 15.2989 28.6717C15.0502 29.1752 14.9479 29.7384 15.0035 30.2972C15.0592 30.8561 15.2706 31.388 15.6136 31.8326C15.9567 32.2773 16.4177 32.6166 16.9441 32.8122C17.4705 33.0078 18.0413 33.0516 18.5914 32.9388C19.1415 32.826 19.6489 32.5611 20.0559 32.1741C20.4629 31.7872 20.7531 31.2937 20.8935 30.75H24V29.25H20.8935C20.8236 28.9816 20.7163 28.7243 20.5748 28.4858L28.4858 20.5748C28.943 20.8503 29.4662 20.9972 30 21C30.7957 21 31.5587 20.6839 32.1213 20.1213C32.6839 19.5587 33 18.7956 33 18C33 17.2044 32.6839 16.4413 32.1213 15.8787C31.5587 15.3161 30.7957 15 30 15ZM19.5 19.5H16.5V16.5H19.5V19.5ZM18 31.5C17.7033 31.5 17.4133 31.412 17.1666 31.2472C16.92 31.0824 16.7277 30.8481 16.6142 30.574C16.5007 30.2999 16.4709 29.9983 16.5288 29.7074C16.5867 29.4164 16.7296 29.1491 16.9393 28.9393C17.1491 28.7296 17.4164 28.5867 17.7074 28.5288C17.9983 28.4709 18.2999 28.5007 18.574 28.6142C18.8481 28.7277 19.0824 28.92 19.2472 29.1666C19.412 29.4133 19.5 29.7033 19.5 30C19.4996 30.3977 19.3414 30.779 19.0602 31.0602C18.779 31.3414 18.3977 31.4996 18 31.5V31.5ZM30 19.5C29.7033 19.5 29.4133 19.412 29.1666 19.2472C28.92 19.0824 28.7277 18.8481 28.6142 18.574C28.5007 18.2999 28.4709 17.9983 28.5288 17.7074C28.5867 17.4164 28.7296 17.1491 28.9393 16.9393C29.1491 16.7296 29.4164 16.5867 29.7074 16.5288C29.9983 16.4709 30.2999 16.5006 30.574 16.6142C30.8481 16.7277 31.0824 16.92 31.2472 17.1666C31.412 17.4133 31.5 17.7033 31.5 18C31.4996 18.3977 31.3414 18.779 31.0602 19.0602C30.779 19.3414 30.3977 19.4996 30 19.5V19.5Z" fill="#A64EED"/>
</svg>
