<svg height="30" viewBox="0 0 48 48" fill="none" xmlns="http://www.w3.org/2000/svg">
<circle cx="24" cy="24" r="23" stroke="#A64EED" stroke-width="2"/>
<path d="M20 26H28M20 22H22M20 30H24M22 15H18C17.4696 15 16.9609 15.2107 16.5858 15.5858C16.2107 15.9609 16 16.4696 16 17V32C16 32.5304 16.2107 33.0391 16.5858 33.4142C16.9609 33.7893 17.4696 34 18 34H30C30.5304 34 31.0391 33.7893 31.4142 33.4142C31.7893 33.0391 32 32.5304 32 32V17C32 16.4696 31.7893 15.9609 31.4142 15.5858C31.0391 15.2107 30.5304 15 30 15H26.5M22 15V13M22 15V17" stroke="#A64EED" stroke-width="1.5" stroke-linecap="round" stroke-linejoin="round"/>
</svg>
