<svg height="30" viewBox="0 0 48 48" fill="none" xmlns="http://www.w3.org/2000/svg">
<circle cx="24" cy="24" r="23" stroke="#A64EED" stroke-width="2"/>
<path d="M23.2248 21.4248C23.3375 21.3121 23.4008 21.1593 23.4008 21C23.4008 20.8407 23.3375 20.6879 23.2248 20.5752C23.1122 20.4625 22.9594 20.3992 22.8 20.3992C22.6407 20.3992 22.4879 20.4625 22.3752 20.5752L20.6808 22.2696L20.2044 21.8352C20.0861 21.734 19.933 21.6828 19.7776 21.6924C19.6222 21.702 19.4766 21.7717 19.3716 21.8867C19.2666 22.0017 19.2104 22.153 19.2149 22.3086C19.2194 22.4643 19.2842 22.6121 19.3956 22.7208L20.2956 23.5428C20.4097 23.6466 20.5593 23.7026 20.7135 23.699C20.8677 23.6954 21.0145 23.6326 21.1236 23.5236L23.2236 21.4236L23.2248 21.4248ZM23.2248 26.5752C23.2807 26.6309 23.3251 26.6971 23.3553 26.77C23.3856 26.8429 23.4011 26.9211 23.4011 27C23.4011 27.0789 23.3856 27.1571 23.3553 27.23C23.3251 27.3029 23.2807 27.3691 23.2248 27.4248L21.1248 29.5248C21.0155 29.634 20.8683 29.6968 20.7139 29.7001C20.5594 29.7035 20.4096 29.6471 20.2956 29.5428L19.3956 28.7208C19.2842 28.6121 19.2194 28.4643 19.2149 28.3086C19.2104 28.153 19.2666 28.0017 19.3716 27.8867C19.4766 27.7717 19.6222 27.702 19.7776 27.6924C19.933 27.6828 20.0861 27.734 20.2044 27.8352L20.6808 28.2708L22.3752 26.5752C22.431 26.5193 22.4972 26.475 22.5701 26.4447C22.643 26.4145 22.7211 26.3989 22.8 26.3989C22.879 26.3989 22.9571 26.4145 23.03 26.4447C23.1029 26.475 23.1691 26.5193 23.2248 26.5752V26.5752ZM25.2 27.3C25.0409 27.3 24.8883 27.3632 24.7758 27.4757C24.6633 27.5883 24.6 27.7409 24.6 27.9C24.6 28.0591 24.6633 28.2117 24.7758 28.3243C24.8883 28.4368 25.0409 28.5 25.2 28.5H28.2C28.3592 28.5 28.5118 28.4368 28.6243 28.3243C28.7368 28.2117 28.8 28.0591 28.8 27.9C28.8 27.7409 28.7368 27.5883 28.6243 27.4757C28.5118 27.3632 28.3592 27.3 28.2 27.3H25.2ZM24.6 21.9C24.6 21.7409 24.6633 21.5883 24.7758 21.4757C24.8883 21.3632 25.0409 21.3 25.2 21.3H28.2C28.3592 21.3 28.5118 21.3632 28.6243 21.4757C28.7368 21.5883 28.8 21.7409 28.8 21.9C28.8 22.0591 28.7368 22.2117 28.6243 22.3243C28.5118 22.4368 28.3592 22.5 28.2 22.5H25.2C25.0409 22.5 24.8883 22.4368 24.7758 22.3243C24.6633 22.2117 24.6 22.0591 24.6 21.9ZM22.2 14.4C21.8277 14.3998 21.4644 14.5151 21.1603 14.73C20.8561 14.945 20.6262 15.2489 20.502 15.6H18.6C18.1227 15.6 17.6648 15.7896 17.3273 16.1272C16.9897 16.4648 16.8 16.9226 16.8 17.4V31.8C16.8 32.2774 16.9897 32.7352 17.3273 33.0728C17.6648 33.4104 18.1227 33.6 18.6 33.6H29.4C29.8774 33.6 30.3353 33.4104 30.6728 33.0728C31.0104 32.7352 31.2 32.2774 31.2 31.8V17.4C31.2 16.9226 31.0104 16.4648 30.6728 16.1272C30.3353 15.7896 29.8774 15.6 29.4 15.6H27.498C27.3739 15.2489 27.144 14.945 26.8398 14.73C26.5357 14.5151 26.1724 14.3998 25.8 14.4H22.2ZM21.6 16.2C21.6 16.0409 21.6633 15.8883 21.7758 15.7757C21.8883 15.6632 22.0409 15.6 22.2 15.6H25.8C25.9592 15.6 26.1118 15.6632 26.2243 15.7757C26.3368 15.8883 26.4 16.0409 26.4 16.2C26.4 16.3591 26.3368 16.5117 26.2243 16.6243C26.1118 16.7368 25.9592 16.8 25.8 16.8H22.2C22.0409 16.8 21.8883 16.7368 21.7758 16.6243C21.6633 16.5117 21.6 16.3591 21.6 16.2ZM18.6 16.8H20.502C20.6262 17.1511 20.8561 17.455 21.1603 17.67C21.4644 17.8849 21.8277 18.0002 22.2 18H25.8C26.1724 18.0002 26.5357 17.8849 26.8398 17.67C27.144 17.455 27.3739 17.1511 27.498 16.8H29.4C29.5592 16.8 29.7118 16.8632 29.8243 16.9757C29.9368 17.0883 30 17.2409 30 17.4V31.8C30 31.9591 29.9368 32.1117 29.8243 32.2243C29.7118 32.3368 29.5592 32.4 29.4 32.4H18.6C18.4409 32.4 18.2883 32.3368 18.1758 32.2243C18.0633 32.1117 18 31.9591 18 31.8V17.4C18 17.2409 18.0633 17.0883 18.1758 16.9757C18.2883 16.8632 18.4409 16.8 18.6 16.8V16.8Z" fill="#A64EED"/>
</svg>
