<svg width="20" height="20" viewBox="0 0 24 24" fill="#FFF" xmlns="http://www.w3.org/2000/svg">
<path d="M5.4564 4.47C5.69466 4.47 5.93059 4.42306 6.15071 4.33185C6.37083 4.24065 6.57082 4.10697 6.73927 3.93846C6.90771 3.76995 7.0413 3.5699 7.13242 3.34974C7.22353 3.12959 7.27037 2.89364 7.27027 2.65537C7.27027 2.41717 7.22336 2.1813 7.1322 1.96123C7.04105 1.74116 6.90744 1.5412 6.739 1.37277C6.57057 1.20434 6.37061 1.07073 6.15054 0.979571C5.93047 0.888416 5.6946 0.841498 5.4564 0.841498C5.2182 0.841498 4.98233 0.888416 4.76226 0.979571C4.54219 1.07073 4.34223 1.20434 4.1738 1.37277C4.00536 1.5412 3.87175 1.74116 3.7806 1.96123C3.68944 2.1813 3.64252 2.41717 3.64252 2.65537C3.64262 3.13648 3.83373 3.59787 4.17386 3.93813C4.51398 4.2784 4.97529 4.4697 5.4564 4.47ZM19.0696 4.4445C19.5584 4.4444 20.0271 4.25023 20.3727 3.90468C20.7183 3.55913 20.9126 3.09048 20.9128 2.60175C20.9128 2.11307 20.7186 1.64441 20.3731 1.29886C20.0276 0.953312 19.5589 0.759186 19.0702 0.759186C18.5815 0.759186 18.1129 0.953312 17.7673 1.29886C17.4218 1.64441 17.2276 2.11307 17.2276 2.60175C17.2276 2.84371 17.2751 3.08331 17.3676 3.30688C17.4602 3.53045 17.5958 3.7336 17.7669 3.90472C17.9379 4.07585 18.141 4.2116 18.3646 4.30421C18.5881 4.39683 18.8277 4.4445 19.0696 4.4445ZM4.78627 14.7967C2.40127 14.7967 0.467773 16.7299 0.467773 19.1149C0.467773 21.4999 2.40127 23.4334 4.78627 23.4334C7.17127 23.4334 9.10477 21.4999 9.10477 19.1149C9.10477 16.7302 7.17127 14.7967 4.78627 14.7967ZM5.29815 21.8561V22.5461H4.26577V21.8561C3.16477 21.7301 2.4624 20.682 2.4624 19.9969H3.56302C3.56302 20.3047 3.8004 20.7139 4.2759 20.8117V19.518C4.03852 19.4722 3.90577 19.4347 3.65115 19.365C3.00052 19.1854 2.55015 18.6375 2.55015 17.9392C2.55015 17.2474 3.22552 16.4711 4.26615 16.3335V15.6889H5.29852V16.3335C6.40215 16.4756 7.0809 17.2909 7.0809 18.1057L6.00277 18.1054C6.00202 17.7491 5.70577 17.4255 5.29852 17.3857V18.5992C5.59815 18.6652 5.59815 18.6577 5.8734 18.7327C6.90015 19.0121 7.13152 19.6841 7.13152 20.2477C7.13115 21.1132 6.43927 21.7072 5.29815 21.8565V21.8561Z" fill="#A64EED"/>
<path d="M4.26587 18.4095C3.80462 18.3274 3.67675 18.1301 3.67675 17.9171C3.67675 17.6685 3.9895 17.4289 4.26587 17.3966V18.4095ZM5.31062 20.8069V19.7134C5.76625 19.7786 6.055 19.9747 6.055 20.2564C6.055 20.5054 5.78612 20.7889 5.31062 20.8069ZM3.08912 7.6125H3.80425L2.97775 10.6886H7.93487L7.10837 7.6125H7.8235L8.67062 10.6886H10.2655L9.24212 6.95737C8.96912 6.05512 8.07625 5.09775 6.90625 5.09775H4.00525C2.83412 5.09775 1.94162 6.05475 1.66825 6.95737L0.645996 10.6886H2.24087L3.08875 7.6125H3.08912Z" fill="#A64EED"/>
<path d="M21.039 5.07938C21.4737 5.07928 21.8907 5.25181 22.1982 5.55904C22.5057 5.86628 22.6786 6.28306 22.6789 6.71775L22.6763 11.748H23.7319V13.8101L21.5959 13.8113V22.3515C21.5959 22.9485 21.1062 23.4326 20.5088 23.4326C20.2222 23.4323 19.9475 23.3183 19.7449 23.1156C19.5423 22.9129 19.4285 22.6381 19.4284 22.3515V13.812H18.7395V22.3515C18.7393 22.6384 18.6252 22.9134 18.4223 23.1161C18.2193 23.3189 17.9442 23.4327 17.6573 23.4326C17.3701 23.4327 17.0946 23.319 16.8911 23.1164C16.6876 22.9137 16.5728 22.6387 16.5717 22.3515V13.8128L0.467285 13.8176V11.748H16.5717V6.90488L13.1314 10.9781C12.4077 11.814 11.1188 10.77 11.8452 9.876L15.4099 5.59313C15.6405 5.36363 15.8472 5.07938 16.6984 5.07938H21.0383H21.039Z" fill="#A64EED"/>
</svg>
