<svg width="20" height="20" viewBox="0 0 24 24" fill="none" xmlns="http://www.w3.org/2000/svg">
<path d="M18.0002 2.25C18.0002 2.05109 18.0792 1.86032 18.2199 1.71967C18.3605 1.57902 18.5513 1.5 18.7502 1.5C18.9491 1.5 19.1399 1.57902 19.2805 1.71967C19.4212 1.86032 19.5002 2.05109 19.5002 2.25V6H23.2502C23.4491 6 23.6399 6.07902 23.7805 6.21967C23.9212 6.36032 24.0002 6.55109 24.0002 6.75C24.0002 6.94891 23.9212 7.13968 23.7805 7.28033C23.6399 7.42098 23.4491 7.5 23.2502 7.5H19.5002V11.25C19.5002 11.4489 19.4212 11.6397 19.2805 11.7803C19.1399 11.921 18.9491 12 18.7502 12C18.5513 12 18.3605 11.921 18.2199 11.7803C18.0792 11.6397 18.0002 11.4489 18.0002 11.25V7.5H14.2502C14.0513 7.5 13.8605 7.42098 13.7199 7.28033C13.5792 7.13968 13.5002 6.94891 13.5002 6.75C13.5002 6.55109 13.5792 6.36032 13.7199 6.21967C13.8605 6.07902 14.0513 6 14.2502 6H18.0002V2.25ZM7.14771 3.684C5.11521 4.305 3.78471 6.003 4.07121 7.887C4.42741 10.2066 5.21825 12.4382 6.40221 14.4645C7.57664 16.4923 9.11425 18.2867 10.9382 19.758C12.4262 20.9535 14.5652 20.658 16.1207 19.206C16.3944 18.9508 16.5605 18.6008 16.5853 18.2274C16.6101 17.854 16.4917 17.4852 16.2542 17.196L15.0662 15.753C14.8762 15.5224 14.6216 15.3537 14.3351 15.2687C14.0486 15.1838 13.7433 15.1863 13.4582 15.276L10.9487 16.065C10.8251 16.1039 10.6936 16.1101 10.5669 16.083C10.4401 16.056 10.3226 15.9965 10.2257 15.9105L10.1657 15.8565C9.94694 15.6492 9.73676 15.433 9.53571 15.2085C9.03734 14.6582 8.59702 14.0581 8.22171 13.4175C7.7044 12.5092 7.32047 11.5312 7.08171 10.5135L7.06371 10.4355C7.03757 10.3083 7.04483 10.1765 7.08479 10.0529C7.12475 9.92939 7.19604 9.8183 7.29171 9.7305L9.22971 7.953C9.44996 7.75081 9.60477 7.48742 9.67426 7.19663C9.74375 6.90584 9.72475 6.60092 9.61971 6.321L8.96871 4.581C8.83631 4.22784 8.57424 3.93844 8.2359 3.77178C7.89756 3.60511 7.5084 3.57372 7.14771 3.684ZM10.2452 9.0585L8.63721 10.5345C8.84824 11.2775 9.14525 11.9933 9.52221 12.6675C9.91312 13.3339 10.3847 13.9495 10.9262 14.5005L13.0097 13.845C13.5798 13.6656 14.1905 13.6605 14.7635 13.8305C15.3365 14.0005 15.8457 14.3377 16.2257 14.799L17.4137 16.242C17.8944 16.8261 18.1342 17.5714 18.0843 18.3262C18.0344 19.081 17.6986 19.7883 17.1452 20.304C15.2102 22.107 12.2312 22.719 9.99921 20.9265C8.03185 19.3403 6.37322 17.4056 5.10621 15.219C3.82749 13.0295 2.97354 10.6183 2.58921 8.112C2.15871 5.2845 4.18521 3.021 6.70971 2.25C7.43546 2.02797 8.21856 2.09103 8.89944 2.42631C9.58031 2.76159 10.1077 3.34387 10.3742 4.0545L11.0252 5.7945C11.2353 6.35434 11.2733 6.96419 11.1343 7.54577C10.9953 8.12735 10.6857 8.65413 10.2452 9.0585Z" fill="#A64EED"/>
</svg>
