<svg width="15" height="9" viewBox="0 0 15 9" fill="none" xmlns="http://www.w3.org/2000/svg">
<path d="M13.2587 0.280712L7.47671 6.06271L1.69471 0.280712C1.50611 0.0985537 1.25351 -0.00224062 0.991311 3.78026e-05C0.729114 0.00231622 0.478301 0.107485 0.292893 0.292893C0.107485 0.478301 0.00231622 0.729114 3.78026e-05 0.991311C-0.00224062 1.25351 0.0985537 1.50611 0.280712 1.69471L6.76671 8.18071C6.85972 8.27411 6.97041 8.34804 7.09232 8.39818C7.21423 8.44831 7.3449 8.47365 7.47671 8.47271C7.60848 8.47338 7.73908 8.44791 7.86094 8.39779C7.98281 8.34767 8.09353 8.27389 8.18671 8.18071L14.6727 1.69471C14.8549 1.50611 14.9557 1.25351 14.9534 0.991311C14.9511 0.729114 14.8459 0.478301 14.6605 0.292893C14.4751 0.107485 14.2243 0.00231622 13.9621 3.78026e-05C13.6999 -0.00224062 13.4473 0.0985537 13.2587 0.280712Z" fill="#a64eed"/>
</svg>
