<svg width="15" height="15" viewBox="0 0 24 24" fill="none" xmlns="http://www.w3.org/2000/svg">
<path d="M10.9658 21.1034C5.94644 21.1034 1.8623 17.0192 1.8623 11.9999C1.8623 6.98062 5.94644 2.89648 10.9658 2.89648C15.9851 2.89648 20.0692 6.98062 20.0692 11.9999C20.0692 12.2194 19.982 12.4299 19.8268 12.5851C19.6716 12.7403 19.4611 12.8275 19.2416 12.8275C19.0221 12.8275 18.8116 12.7403 18.6564 12.5851C18.5012 12.4299 18.414 12.2194 18.414 11.9999C18.414 7.89262 15.0731 4.55166 10.9658 4.55166C6.85844 4.55166 3.51748 7.89262 3.51748 11.9999C3.51748 16.1072 6.85844 19.4482 10.9658 19.4482C12.94 19.4422 14.8323 18.6584 16.2325 17.2667C16.3877 17.1115 16.5982 17.0243 16.8176 17.0243C17.0371 17.0243 17.2475 17.1115 17.4027 17.2667C17.5579 17.4219 17.6451 17.6323 17.6451 17.8518C17.6451 18.0712 17.5579 18.2817 17.4027 18.4369C15.6916 20.1382 13.3787 21.0963 10.9658 21.1034V21.1034Z" fill="#a64eed"/>
<path d="M17.5125 10.2083H20.9693C21.0294 10.208 21.0886 10.2238 21.1406 10.254C21.1927 10.2841 21.2358 10.3276 21.2655 10.3799C21.2952 10.4322 21.3105 10.4914 21.3098 10.5516C21.3091 10.6117 21.2924 10.6706 21.2614 10.7222L19.5326 13.6262C19.5026 13.677 19.4599 13.7191 19.4086 13.7483C19.3574 13.7775 19.2994 13.7929 19.2405 13.7929C19.1815 13.7929 19.1235 13.7775 19.0723 13.7483C19.021 13.7191 18.9783 13.677 18.9483 13.6262L17.2195 10.7222C17.189 10.6705 17.1728 10.6116 17.1724 10.5516C17.172 10.4916 17.1874 10.4325 17.2171 10.3804C17.2468 10.3282 17.2898 10.2848 17.3417 10.2546C17.3935 10.2244 17.4524 10.2084 17.5125 10.2083V10.2083Z" fill="#a64eed"/>
</svg>
