<svg width="15" height="15" viewBox="0 0 15 15" fill="none" xmlns="http://www.w3.org/2000/svg">
<path fill-rule="evenodd" clip-rule="evenodd" d="M14.7303 12.996C14.2673 14.403 12.4533 15.105 11.1573 14.988C9.3873 14.828 7.4613 13.889 5.9993 12.855C3.8503 11.335 1.8373 8.98396 0.664297 6.48896C-0.164703 4.72596 -0.350703 2.55796 0.882297 0.950958C1.3383 0.356958 1.8323 0.0399578 2.5723 0.00295779C3.6003 -0.0470422 3.7443 0.540958 4.0973 1.45696C4.3603 2.14196 4.7113 2.84096 4.9073 3.55096C5.2743 4.87596 3.9913 4.93096 3.8293 6.01396C3.7293 6.69696 4.5563 7.61296 4.9303 8.09996C5.65118 9.04843 6.53411 9.86196 7.5383 10.503C8.1083 10.862 9.0263 11.509 9.6783 11.152C10.6823 10.602 10.5883 8.90896 11.9913 9.48196C12.7183 9.77796 13.4223 10.205 14.1163 10.579C15.1893 11.156 15.1393 11.754 14.7303 12.996C14.4243 13.924 15.0363 12.068 14.7303 12.996" fill="#a64eed"/>
</svg>
