<svg width="24" height="24" viewBox="0 0 24 24" fill="none" xmlns="http://www.w3.org/2000/svg">
<path fill-rule="evenodd" clip-rule="evenodd" d="M13.6661 6.99456C13.3387 7.22155 12.9694 7.38106 12.5797 7.46378C12.19 7.5465 11.7877 7.55078 11.3964 7.47636C11.005 7.40195 10.6324 7.25033 10.3002 7.03036C9.96811 6.81039 9.68311 6.52647 9.46187 6.19517C9.24064 5.86387 9.08761 5.49182 9.01171 5.10075C8.93581 4.70967 8.93856 4.30739 9.0198 3.91738C9.10104 3.52738 9.25914 3.15746 9.48488 2.82922C9.71062 2.50097 9.99947 2.22097 10.3346 2.00556C10.9962 1.56855 11.8039 1.41125 12.5812 1.56803C13.3585 1.72482 14.0421 2.18295 14.4825 2.84228C14.923 3.5016 15.0846 4.3085 14.9318 5.08658C14.7791 5.86466 14.3246 6.55063 13.6676 6.99456H13.6661ZM12.8336 3.25356C12.6702 3.13604 12.4849 3.0526 12.2886 3.00819C12.0924 2.96378 11.8892 2.95933 11.6911 2.99508C11.4931 3.03083 11.3043 3.10606 11.1359 3.2163C10.9676 3.32654 10.8231 3.46952 10.7112 3.63674C10.5992 3.80396 10.5221 3.992 10.4843 4.18965C10.4465 4.38731 10.4489 4.59055 10.4913 4.78726C10.5337 4.98398 10.6152 5.17016 10.7311 5.3347C10.8469 5.49925 10.9947 5.63881 11.1656 5.74506C11.4958 5.94563 11.8906 6.01108 12.2678 5.92778C12.645 5.84447 12.9756 5.61884 13.1906 5.29788C13.4056 4.97693 13.4885 4.58539 13.422 4.20484C13.3555 3.8243 13.1447 3.48408 12.8336 3.25506V3.25356ZM16.7486 3.29856C17.1812 3.00756 17.7018 2.87652 18.2206 2.92799C18.7394 2.97946 19.2241 3.21023 19.5911 3.58056C19.8526 3.84418 20.0455 4.16795 20.1527 4.52346C20.2599 4.87898 20.2783 5.25537 20.2062 5.61964C20.1341 5.98391 19.9737 6.32491 19.7391 6.61275C19.5045 6.90059 19.2028 7.12646 18.8606 7.27056C18.4496 7.44242 17.9966 7.48769 17.5597 7.40057C17.1228 7.31346 16.7218 7.09792 16.4081 6.78156C16.1723 6.54459 15.9919 6.25843 15.8796 5.94356C15.7674 5.62869 15.7261 5.29291 15.7588 4.96023C15.7915 4.62755 15.8973 4.30621 16.0686 4.01921C16.24 3.7322 16.4727 3.48663 16.7501 3.30006L16.7486 3.29856ZM17.4686 5.71356C17.6094 5.85379 17.8002 5.93234 17.9989 5.93192C18.0973 5.93171 18.1947 5.91212 18.2856 5.87427C18.3764 5.83642 18.4589 5.78104 18.5283 5.71131C18.5978 5.64158 18.6528 5.55885 18.6903 5.46786C18.7277 5.37686 18.7469 5.27938 18.7467 5.18097C18.7465 5.08256 18.7269 4.98516 18.689 4.89433C18.6512 4.80349 18.5958 4.721 18.5261 4.65156C18.3864 4.5111 18.1976 4.43043 17.9996 4.42656C17.9007 4.42636 17.8027 4.44577 17.7113 4.48367C17.6199 4.52157 17.537 4.57721 17.4672 4.64738C17.3975 4.71754 17.3423 4.80083 17.305 4.89243C17.2676 4.98404 17.2488 5.08214 17.2496 5.18106C17.2501 5.38083 17.3287 5.57248 17.4686 5.71506V5.71356ZM4.78459 18.7306H7.49959V20.2381H4.78459C4.3093 20.2338 3.85512 20.0412 3.52159 19.7026C3.18678 19.3627 2.99925 18.9046 2.99959 18.4276V15.7126C2.79763 15.7058 2.59914 15.6582 2.4161 15.5726C2.23305 15.487 2.06925 15.3652 1.93459 15.2146C1.79149 15.0696 1.67919 14.8972 1.60444 14.7078C1.52968 14.5183 1.49402 14.3157 1.49959 14.1121V10.8391C1.50409 10.1311 1.78459 9.45456 2.27959 8.95206C2.77309 8.45556 3.44059 8.17206 4.13959 8.16756H6.89959C6.5273 8.61092 6.24687 9.12386 6.07459 9.67656H4.13959C3.83515 9.68529 3.54548 9.80974 3.32959 10.0246C3.11752 10.2426 2.99909 10.5349 2.99959 10.8391V14.1871H4.49959V18.4261C4.49611 18.4669 4.50096 18.5081 4.51386 18.547C4.52675 18.5859 4.54741 18.6218 4.57459 18.6526C4.63489 18.6992 4.70841 18.7254 4.78459 18.7276V18.7306ZM15.7346 8.95356C15.4891 8.70573 15.1971 8.50884 14.8754 8.37421C14.5536 8.23958 14.2084 8.16986 13.8596 8.16906H10.1396C9.44031 8.17465 8.77165 8.45668 8.27959 8.95356C7.78459 9.45606 7.50409 10.1326 7.49959 10.8406V15.6076C7.49747 16.0169 7.65328 16.4112 7.93459 16.7086C8.06942 16.859 8.23326 16.9807 8.41627 17.0663C8.59927 17.1518 8.79768 17.1996 8.99959 17.2066V20.6911C8.99818 20.9289 9.04385 21.1647 9.13395 21.3848C9.22405 21.6049 9.35682 21.805 9.52459 21.9736C9.79459 22.2256 10.1351 22.3891 10.4996 22.4416H13.4996C13.9215 22.3862 14.308 22.1768 14.5849 21.8537C14.8618 21.5305 15.0095 21.1165 14.9996 20.6911V17.2051C15.2015 17.1983 15.4 17.1507 15.5831 17.0651C15.7661 16.9795 15.9299 16.8577 16.0646 16.7071C16.2076 16.5623 16.3198 16.3902 16.3946 16.201C16.4693 16.0118 16.505 15.8094 16.4996 15.6061V10.8391C16.5006 10.1343 16.2261 9.45712 15.7346 8.95206V8.95356ZM14.9996 15.6811H13.4996V20.6911C13.4981 20.7701 13.4658 20.8455 13.4096 20.9011C13.384 20.9314 13.3517 20.9553 13.3152 20.9709C13.2788 20.9865 13.2392 20.9934 13.1996 20.9911H10.7846C10.7062 20.9874 10.632 20.9546 10.5765 20.8991C10.521 20.8437 10.4882 20.7694 10.4846 20.6911V15.6811H8.99959V10.8391C8.99959 10.5346 9.11809 10.2421 9.32959 10.0246C9.54548 9.80974 9.83515 9.68529 10.1396 9.67656H13.8596C14.0868 9.68057 14.3079 9.75084 14.4958 9.87874C14.6836 10.0066 14.8301 10.1866 14.9171 10.3966C14.9742 10.537 15.0023 10.6875 14.9996 10.8391V15.6811V15.6811ZM19.2146 20.2366H16.4996V18.7291H19.1996C19.2758 18.7269 19.3493 18.7007 19.4096 18.6541C19.4398 18.6245 19.4634 18.589 19.4789 18.5497C19.4944 18.5104 19.5015 18.4683 19.4996 18.4261V14.1871H20.9996V10.8391C21.0001 10.5349 20.8817 10.2426 20.6696 10.0246C20.4537 9.80974 20.164 9.68529 19.8596 9.67656H17.9246C17.7524 9.12383 17.4719 8.61087 17.0996 8.16756H19.8596C20.5587 8.17397 21.2271 8.45587 21.7196 8.95206C22.2146 9.45456 22.4951 10.1311 22.4996 10.8391V14.1121C22.4996 14.5216 22.3451 14.9146 22.0661 15.2116C21.7871 15.5101 21.4061 15.6886 20.9996 15.7111V18.4261C20.9996 18.9046 20.8121 19.3621 20.4776 19.7011C20.1441 20.0397 19.6899 20.2323 19.2146 20.2366V20.2366ZM5.99959 2.91756C5.55323 2.91704 5.11689 3.04983 4.74648 3.2989C4.37608 3.54798 4.0885 3.90199 3.92059 4.31556C3.75113 4.72899 3.70714 5.18316 3.7941 5.62142C3.88106 6.05969 4.09512 6.46265 4.40959 6.78006C4.72394 7.09711 5.12566 7.31325 5.56344 7.40087C6.00123 7.4885 6.45519 7.44363 6.86735 7.27201C7.27952 7.10038 7.63116 6.80978 7.87737 6.43734C8.12357 6.0649 8.25316 5.62751 8.24959 5.18106C8.24959 4.58106 8.01259 4.00506 7.58959 3.58056C7.3813 3.37076 7.13361 3.20419 6.86074 3.09041C6.58788 2.97663 6.29522 2.91789 5.99959 2.91756V2.91756ZM5.99959 5.93556C5.90066 5.93576 5.80267 5.91635 5.7113 5.87845C5.61992 5.84055 5.53696 5.78491 5.46721 5.71475C5.39747 5.64459 5.34233 5.5613 5.30497 5.46969C5.26762 5.37809 5.2488 5.27999 5.24959 5.18106C5.24998 4.98185 5.32898 4.79085 5.46942 4.64957C5.60986 4.50828 5.80039 4.42814 5.99959 4.42656C6.19818 4.43006 6.3876 4.51081 6.52763 4.65168C6.66766 4.79255 6.74728 4.98245 6.74959 5.18106C6.7492 5.38027 6.6702 5.57127 6.52976 5.71256C6.38932 5.85384 6.19879 5.93398 5.99959 5.93556V5.93556Z" fill="#B8B8B8"/>
</svg>
