<svg width="24" height="24" viewBox="0 0 24 24" fill="none" xmlns="http://www.w3.org/2000/svg">
<path d="M11.9991 13.1429C9.40423 13.1429 7.19959 13.8974 5.75959 15.0801V17.28H18.2396V15.0801C16.7996 13.8974 14.5945 13.1429 11.9991 13.1429V13.1429ZM23.4572 12.0139L11.9689 6.71997L0.485352 12.0139L2.39959 12.8899V14.2373C1.91959 14.3366 1.91815 14.5881 1.91815 14.8872C1.91815 15.0638 1.97671 15.2707 2.08807 15.3945L1.43143 16.8H3.77383L3.12295 15.3936C3.23239 15.2697 3.32215 15.0873 3.32215 14.9107C3.32215 14.6121 2.87959 14.3361 2.87959 14.2368V13.115L5.27959 14.1931V14.0976C6.71959 12.8453 9.24967 12.0504 11.9986 12.0504C14.7486 12.0504 17.2796 12.8453 18.7196 14.0976V14.1931L23.4572 12.0139V12.0139Z" fill="#B8B8B8"/>
</svg>
