<svg width="24" height="24" viewBox="0 0 24 24" fill="none" xmlns="http://www.w3.org/2000/svg">
<circle cx="12" cy="12" r="12" fill="#EA5D55"/>
<path d="M12.9403 12L17.1403 7.80667C17.2658 7.68113 17.3363 7.51087 17.3363 7.33333C17.3363 7.1558 17.2658 6.98554 17.1403 6.86C17.0148 6.73447 16.8445 6.66394 16.667 6.66394C16.4894 6.66394 16.3192 6.73447 16.1936 6.86L12.0003 11.06L7.80695 6.86C7.68142 6.73447 7.51115 6.66394 7.33362 6.66394C7.15608 6.66394 6.98582 6.73447 6.86028 6.86C6.73475 6.98554 6.66422 7.1558 6.66422 7.33333C6.66422 7.51087 6.73475 7.68113 6.86028 7.80667L11.0603 12L6.86028 16.1933C6.7978 16.2553 6.7482 16.329 6.71436 16.4103C6.68051 16.4915 6.66309 16.5787 6.66309 16.6667C6.66309 16.7547 6.68051 16.8418 6.71436 16.9231C6.7482 17.0043 6.7978 17.078 6.86028 17.14C6.92226 17.2025 6.99599 17.2521 7.07723 17.2859C7.15847 17.3198 7.24561 17.3372 7.33362 17.3372C7.42163 17.3372 7.50876 17.3198 7.59 17.2859C7.67124 17.2521 7.74498 17.2025 7.80695 17.14L12.0003 12.94L16.1936 17.14C16.2556 17.2025 16.3293 17.2521 16.4106 17.2859C16.4918 17.3198 16.5789 17.3372 16.667 17.3372C16.755 17.3372 16.8421 17.3198 16.9233 17.2859C17.0046 17.2521 17.0783 17.2025 17.1403 17.14C17.2028 17.078 17.2524 17.0043 17.2862 16.9231C17.3201 16.8418 17.3375 16.7547 17.3375 16.6667C17.3375 16.5787 17.3201 16.4915 17.2862 16.4103C17.2524 16.329 17.2028 16.2553 17.1403 16.1933L12.9403 12Z" fill="white"/>
</svg>
