<svg width="24" height="24" viewBox="0 0 24 24" fill="none" xmlns="http://www.w3.org/2000/svg">
<circle cx="12" cy="12" r="12" fill="#3F77B3"/>
<path d="M17.6569 6.34311C18.4379 7.12416 18.4379 8.39049 17.6569 9.17154L10.2704 16.558C9.95004 16.8784 9.54859 17.1057 9.10901 17.2156L6.81801 17.7883C6.45182 17.8799 6.12013 17.5482 6.21167 17.182L6.78442 14.891C6.89432 14.4514 7.12161 14.05 7.44201 13.7296L14.8285 6.34311C15.6095 5.56206 16.8759 5.56206 17.6569 6.34311ZM14.1213 8.46432L8.14912 14.4367C7.95688 14.6289 7.8205 14.8698 7.75457 15.1335L7.38393 16.6161L8.86648 16.2454C9.13022 16.1795 9.37109 16.0431 9.56333 15.8509L15.5353 9.87832L14.1213 8.46432ZM15.5356 7.05022L14.8283 7.75732L16.2423 9.17132L16.9498 8.46443C17.3403 8.07391 17.3403 7.44074 16.9498 7.05022C16.5593 6.65969 15.9261 6.65969 15.5356 7.05022Z" fill="white"/>
</svg>
