<svg width="24" height="24" viewBox="0 0 24 24" fill="none" xmlns="http://www.w3.org/2000/svg">
<circle cx="12" cy="12" r="12" fill="#D9D9D9"/>
<path d="M11.3103 18.0691C7.96414 18.0691 5.24138 15.3463 5.24138 12.0001C5.24138 8.65391 7.96414 5.93115 11.3103 5.93115C14.6566 5.93115 17.3793 8.65391 17.3793 12.0001C17.3793 12.1464 17.3212 12.2868 17.2177 12.3902C17.1142 12.4937 16.9739 12.5518 16.8276 12.5518C16.6813 12.5518 16.5409 12.4937 16.4375 12.3902C16.334 12.2868 16.2759 12.1464 16.2759 12.0001C16.2759 9.26191 14.0486 7.0346 11.3103 7.0346C8.57214 7.0346 6.34483 9.26191 6.34483 12.0001C6.34483 14.7383 8.57214 16.9656 11.3103 16.9656C12.6265 16.9616 13.888 16.4391 14.8215 15.5113C14.925 15.4078 15.0653 15.3497 15.2116 15.3497C15.3579 15.3497 15.4982 15.4078 15.6017 15.5113C15.7051 15.6147 15.7632 15.7551 15.7632 15.9014C15.7632 16.0477 15.7051 16.188 15.6017 16.2914C14.4609 17.4256 12.919 18.0643 11.3103 18.0691V18.0691Z" fill="#444444"/>
<path d="M15.675 10.8054H17.9796C18.0197 10.8053 18.0591 10.8158 18.0938 10.8359C18.1285 10.856 18.1572 10.885 18.1771 10.9198C18.1969 10.9547 18.2071 10.9942 18.2066 11.0343C18.2061 11.0744 18.195 11.1137 18.1743 11.148L17.0218 13.084C17.0018 13.1179 16.9733 13.146 16.9392 13.1654C16.905 13.1849 16.8664 13.1952 16.827 13.1952C16.7877 13.1952 16.7491 13.1849 16.7149 13.1654C16.6808 13.146 16.6523 13.1179 16.6323 13.084L15.4797 11.148C15.4594 11.1136 15.4486 11.0743 15.4483 11.0343C15.448 10.9943 15.4583 10.9549 15.4781 10.9202C15.498 10.8854 15.5266 10.8565 15.5612 10.8363C15.5957 10.8162 15.635 10.8055 15.675 10.8054V10.8054Z" fill="#444444"/>
</svg>
